%TF.GenerationSoftware,KiCad,Pcbnew,10.0.5*%
%TF.CreationDate,2026-08-21T14:51:37+08:00*%
%TF.ProjectId,nova_sensors,6e6f7661-5f73-4656-9e73-6f72732e6b69,rev?*%
%TF.SameCoordinates,Original*%
%TF.FileFunction,Copper,L2,Bot*%
%TF.FilePolarity,Positive*%
%FSLAX46Y46*%
G04 Gerber Fmt 4.6, Leading zero omitted, Abs format (unit mm)*
G04 Created by KiCad (PCBNEW 10.0.5) date 2026-08-21 14:51:37*
%MOMM*%
%LPD*%
G01*
G04 APERTURE LIST*
G04 Aperture macros list*
%AMRoundRect*
0 Rectangle with rounded corners*
0 $1 Rounding radius*
0 $2 $3 $4 $5 $6 $7 $8 $9 X,Y pos of 4 corners*
0 Add a 4 corners polygon primitive as box body*
4,1,4,$2,$3,$4,$5,$6,$7,$8,$9,$2,$3,0*
0 Add four circle primitives for the rounded corners*
1,1,$1+$1,$2,$3*
1,1,$1+$1,$4,$5*
1,1,$1+$1,$6,$7*
1,1,$1+$1,$8,$9*
0 Add four rect primitives between the rounded corners*
20,1,$1+$1,$2,$3,$4,$5,0*
20,1,$1+$1,$4,$5,$6,$7,0*
20,1,$1+$1,$6,$7,$8,$9,0*
20,1,$1+$1,$8,$9,$2,$3,0*%
G04 Aperture macros list end*
%TA.AperFunction,ComponentPad*%
%ADD10C,4.400000*%
%TD*%
%TA.AperFunction,ComponentPad*%
%ADD11RoundRect,0.249999X-1.550001X0.790001X-1.550001X-0.790001X1.550001X-0.790001X1.550001X0.790001X0*%
%TD*%
%TA.AperFunction,ComponentPad*%
%ADD12O,3.600000X2.080000*%
%TD*%
%TA.AperFunction,ComponentPad*%
%ADD13RoundRect,0.250000X-0.600000X-0.725000X0.600000X-0.725000X0.600000X0.725000X-0.600000X0.725000X0*%
%TD*%
%TA.AperFunction,ComponentPad*%
%ADD14O,1.700000X1.950000*%
%TD*%
%TA.AperFunction,ComponentPad*%
%ADD15RoundRect,0.249999X-0.790001X-1.550001X0.790001X-1.550001X0.790001X1.550001X-0.790001X1.550001X0*%
%TD*%
%TA.AperFunction,ComponentPad*%
%ADD16O,2.080000X3.600000*%
%TD*%
%TA.AperFunction,ComponentPad*%
%ADD17RoundRect,0.250000X-0.750000X0.600000X-0.750000X-0.600000X0.750000X-0.600000X0.750000X0.600000X0*%
%TD*%
%TA.AperFunction,ComponentPad*%
%ADD18O,2.000000X1.700000*%
%TD*%
%TA.AperFunction,ViaPad*%
%ADD19C,0.500000*%
%TD*%
%TA.AperFunction,Conductor*%
%ADD20C,0.300000*%
%TD*%
%TA.AperFunction,Conductor*%
%ADD21C,0.500000*%
%TD*%
G04 APERTURE END LIST*
D10*
%TO.P,H3,1,1_1*%
%TO.N,GND*%
X5000000Y-205000000D03*
%TD*%
D11*
%TO.P,J10,1,Pin_1_1*%
%TO.N,/IN1*%
X10900000Y-169000000D03*
D12*
%TO.P,J10,2,Pin_2_2*%
%TO.N,/IN2*%
X10900000Y-174080000D03*
%TO.P,J10,3,Pin_3_3*%
%TO.N,/IN3*%
X10900000Y-179160000D03*
%TD*%
D10*
%TO.P,H1,1,1_1*%
%TO.N,GND*%
X95000000Y-115000000D03*
%TD*%
%TO.P,H2,1,1_1*%
%TO.N,GND*%
X5000000Y-115000000D03*
%TD*%
D13*
%TO.P,J4,1,Pin_1_1*%
%TO.N,GND*%
X71200000Y-119100000D03*
D14*
%TO.P,J4,2,Pin_2_2*%
%TO.N,/SWCLK*%
X73700000Y-119100000D03*
%TO.P,J4,3,Pin_3_3*%
%TO.N,/SWDIO*%
X76200000Y-119100000D03*
%TO.P,J4,4,Pin_4_4*%
%TO.N,+3V3*%
X78700000Y-119100000D03*
%TD*%
D15*
%TO.P,J5,1,Pin_1_1*%
%TO.N,Net-(D5-A2)*%
X54500000Y-199500000D03*
D16*
%TO.P,J5,2,Pin_2_2*%
%TO.N,Net-(D5-A1)*%
X59580000Y-199500000D03*
%TD*%
D17*
%TO.P,J7,1,Pin_1_1*%
%TO.N,Net-(J7-Pin_1)*%
X96500000Y-177000000D03*
D18*
%TO.P,J7,2,Pin_2_2*%
%TO.N,GND*%
X96500000Y-179500000D03*
%TD*%
D10*
%TO.P,H4,1,1_1*%
%TO.N,GND*%
X95000000Y-205000000D03*
%TD*%
D15*
%TO.P,J6,1,Pin_1_1*%
%TO.N,Net-(D6-A2)*%
X68000000Y-199500000D03*
D16*
%TO.P,J6,2,Pin_2_2*%
%TO.N,Net-(D6-A1)*%
X73080000Y-199500000D03*
%TD*%
D15*
%TO.P,J1,1,Pin_1_1*%
%TO.N,/TTL_TX*%
X81500000Y-199500000D03*
D16*
%TO.P,J1,2,Pin_2_2*%
%TO.N,/TTL_RX*%
X86580000Y-199500000D03*
%TD*%
D11*
%TO.P,J11,1,Pin_1_1*%
%TO.N,/OUT1*%
X10900000Y-150280000D03*
D12*
%TO.P,J11,2,Pin_2_2*%
%TO.N,/OUT2*%
X10900000Y-155360000D03*
%TO.P,J11,3,Pin_3_3*%
%TO.N,/OUT3*%
X10900000Y-160440000D03*
%TD*%
D15*
%TO.P,J12,1,Pin_1_1*%
%TO.N,Net-(D1-A2)*%
X13500000Y-199500000D03*
D16*
%TO.P,J12,2,Pin_2_2*%
%TO.N,Net-(D3-A2)*%
X18580000Y-199500000D03*
%TO.P,J12,3,Pin_3_3*%
%TO.N,GND*%
X23660000Y-199500000D03*
%TD*%
D15*
%TO.P,J13,1,Pin_1_1*%
%TO.N,Net-(D2-A2)*%
X32250000Y-199500000D03*
D16*
%TO.P,J13,2,Pin_2_2*%
%TO.N,Net-(D4-A2)*%
X37330000Y-199500000D03*
%TO.P,J13,3,Pin_3_3*%
%TO.N,GND*%
X42410000Y-199500000D03*
%TD*%
D11*
%TO.P,J8,1,Pin_1_1*%
%TO.N,/ADC_IN1*%
X10900000Y-136640000D03*
D12*
%TO.P,J8,2,Pin_2_2*%
%TO.N,GND*%
X10900000Y-141720000D03*
%TD*%
D11*
%TO.P,J9,1,Pin_1_1*%
%TO.N,/ADC_IN0*%
X10900000Y-123000000D03*
D12*
%TO.P,J9,2,Pin_2_2*%
%TO.N,GND*%
X10900000Y-128080000D03*
%TD*%
D19*
%TO.N,/485_2_RX*%
X45800000Y-173100000D03*
X45800000Y-169200000D03*
%TO.N,/485_2_TX*%
X44300000Y-173200000D03*
X44300000Y-169200000D03*
%TO.N,GND*%
X21200000Y-129600000D03*
X49050000Y-132600000D03*
X53500000Y-138400000D03*
X17750000Y-192100000D03*
X53700000Y-178250000D03*
X17650000Y-195650000D03*
X91450000Y-130100000D03*
X71100000Y-137550000D03*
X80750000Y-144000000D03*
X31800000Y-150550000D03*
X56350000Y-146600000D03*
X54500000Y-165900000D03*
X69750000Y-161900000D03*
X53100000Y-150600000D03*
X62900000Y-140950000D03*
X42400000Y-173050000D03*
X29950000Y-169150000D03*
X17400000Y-123200000D03*
X77700000Y-129200000D03*
X45300000Y-121750000D03*
X14750000Y-163250000D03*
X85250000Y-190900000D03*
X91400000Y-134850000D03*
X79550000Y-146550000D03*
X14150000Y-124250000D03*
X60100000Y-151850000D03*
X17300000Y-139950000D03*
X26000000Y-127000000D03*
X69250000Y-125550000D03*
X24400000Y-184250000D03*
X49950000Y-175950000D03*
X36500000Y-167050000D03*
X68800000Y-184250000D03*
X71200000Y-171800000D03*
X65650000Y-121650000D03*
X34450000Y-185450000D03*
X31950000Y-148300000D03*
X19350000Y-151250000D03*
X88600000Y-120950000D03*
X91900000Y-181450000D03*
X36900000Y-138550000D03*
X23450000Y-145700000D03*
X64100000Y-144250000D03*
X48600000Y-129150000D03*
X74800000Y-129550000D03*
X26200000Y-177450000D03*
X27350000Y-135900000D03*
X24900000Y-165800000D03*
X28450000Y-175400000D03*
X60550000Y-131550000D03*
X41100000Y-180750000D03*
X35900000Y-195850000D03*
X79450000Y-140250000D03*
X28300000Y-133600000D03*
X74250000Y-158850000D03*
X45700000Y-144500000D03*
X18050000Y-154150000D03*
X19850000Y-170300000D03*
X87750000Y-160100000D03*
X40200000Y-123550000D03*
X65050000Y-161400000D03*
X59450000Y-181900000D03*
X31900000Y-155100000D03*
X19900000Y-196000000D03*
X56750000Y-170050000D03*
X58350000Y-140150000D03*
X91150000Y-145500000D03*
X14400000Y-160600000D03*
X72750000Y-183400000D03*
X63700000Y-156050000D03*
X55200000Y-176300000D03*
X55700000Y-195750000D03*
X29600000Y-131100000D03*
X29600000Y-141200000D03*
X61950000Y-180050000D03*
X90500000Y-179200000D03*
X18750000Y-175200000D03*
X70850000Y-181000000D03*
X59900000Y-122250000D03*
X57900000Y-159700000D03*
X54850000Y-159600000D03*
X73750000Y-169800000D03*
X18900000Y-184850000D03*
X66600000Y-158200000D03*
X31750000Y-152750000D03*
X67700000Y-191200000D03*
X75900000Y-160650000D03*
X22850000Y-154700000D03*
X65650000Y-146300000D03*
X31900000Y-139750000D03*
X18350000Y-157100000D03*
X61150000Y-196100000D03*
X14550000Y-190100000D03*
X15000000Y-154000000D03*
X39600000Y-160000000D03*
X17650000Y-188600000D03*
X73000000Y-164800000D03*
X20450000Y-163500000D03*
X25250000Y-133750000D03*
X88000000Y-185900000D03*
X39750000Y-134300000D03*
X96950000Y-155650000D03*
X48050000Y-166700000D03*
X14600000Y-178950000D03*
X35050000Y-130000000D03*
X54100000Y-191300000D03*
X57700000Y-154350000D03*
X26150000Y-124950000D03*
X80450000Y-184250000D03*
X90400000Y-173050000D03*
X31950000Y-145900000D03*
X74900000Y-147150000D03*
X45500000Y-140450000D03*
X85200000Y-124050000D03*
X57200000Y-150500000D03*
X65350000Y-129150000D03*
X29850000Y-148700000D03*
X29800000Y-188200000D03*
X29600000Y-143800000D03*
X25350000Y-173200000D03*
X33400000Y-166500000D03*
X83000000Y-191150000D03*
X58400000Y-122250000D03*
X14100000Y-122050000D03*
X69700000Y-177250000D03*
X70850000Y-133250000D03*
X66000000Y-179850000D03*
X23400000Y-142300000D03*
X21450000Y-143750000D03*
X50250000Y-135150000D03*
X18100000Y-169250000D03*
X22800000Y-164750000D03*
X14850000Y-140150000D03*
X31900000Y-158300000D03*
X43950000Y-182100000D03*
X87850000Y-191050000D03*
X83750000Y-165350000D03*
X69900000Y-166000000D03*
X29450000Y-155150000D03*
X82500000Y-139500000D03*
X21950000Y-157400000D03*
X26800000Y-182250000D03*
X28500000Y-150300000D03*
X69650000Y-170400000D03*
X92950000Y-164650000D03*
X74200000Y-152800000D03*
X84450000Y-145250000D03*
X64100000Y-134550000D03*
X80550000Y-191350000D03*
X32800000Y-195400000D03*
X28450000Y-147650000D03*
X42700000Y-166600000D03*
X58500000Y-194000000D03*
X57700000Y-182750000D03*
X50650000Y-170300000D03*
X55250000Y-184800000D03*
X85450000Y-186750000D03*
X52800000Y-173700000D03*
X73200000Y-190150000D03*
X57550000Y-184650000D03*
X26900000Y-128500000D03*
X93000000Y-167900000D03*
X39550000Y-157650000D03*
X88450000Y-138950000D03*
X79950000Y-157400000D03*
X12750000Y-187700000D03*
X35900000Y-188150000D03*
X58200000Y-165700000D03*
X23550000Y-129050000D03*
X43150000Y-151950000D03*
X97300000Y-164100000D03*
X95250000Y-173150000D03*
X91450000Y-130900000D03*
X88050000Y-195900000D03*
X34700000Y-182950000D03*
X78400000Y-163650000D03*
X64200000Y-124300000D03*
X74800000Y-123900000D03*
X85500000Y-138750000D03*
X55150000Y-182150000D03*
X56950000Y-190150000D03*
X40650000Y-184300000D03*
X85450000Y-182300000D03*
X91400000Y-129300000D03*
X92700000Y-173300000D03*
X38050000Y-154900000D03*
X50250000Y-149350000D03*
X68600000Y-135200000D03*
X71400000Y-167350000D03*
X52400000Y-195500000D03*
X76750000Y-114900000D03*
X74900000Y-195300000D03*
X91100000Y-144550000D03*
X30400000Y-135550000D03*
X25700000Y-158200000D03*
X53300000Y-124200000D03*
X27200000Y-188200000D03*
X90150000Y-171000000D03*
X20000000Y-192150000D03*
X42400000Y-147250000D03*
X61800000Y-123900000D03*
X62450000Y-163450000D03*
X51350000Y-145250000D03*
X91350000Y-133250000D03*
X88800000Y-145450000D03*
X66450000Y-195150000D03*
X65200000Y-131550000D03*
X46050000Y-125150000D03*
X75050000Y-141850000D03*
X32200000Y-171450000D03*
X96850000Y-153600000D03*
X47300000Y-173150000D03*
X55950000Y-193900000D03*
X61600000Y-115200000D03*
X22200000Y-177350000D03*
X60850000Y-129250000D03*
X77500000Y-123900000D03*
X48500000Y-140500000D03*
X29300000Y-158300000D03*
X36400000Y-173150000D03*
X14700000Y-175250000D03*
X18250000Y-137350000D03*
X70500000Y-189750000D03*
X68000000Y-114600000D03*
X50200000Y-156000000D03*
X80300000Y-195800000D03*
X40550000Y-144350000D03*
X70200000Y-195600000D03*
X24350000Y-169700000D03*
X38900000Y-193500000D03*
X83050000Y-184450000D03*
X31000000Y-184550000D03*
X66900000Y-126650000D03*
X73800000Y-174500000D03*
X34400000Y-179300000D03*
X47950000Y-178000000D03*
X14550000Y-135600000D03*
X55600000Y-129850000D03*
X43300000Y-122650000D03*
X83800000Y-129750000D03*
X50000000Y-140600000D03*
X65000000Y-165800000D03*
X58250000Y-157100000D03*
X40900000Y-182550000D03*
X46950000Y-155250000D03*
X60050000Y-177600000D03*
X73650000Y-134850000D03*
X50200000Y-153200000D03*
X82950000Y-195500000D03*
X91300000Y-134150000D03*
X36000000Y-192450000D03*
X45300000Y-132950000D03*
X56450000Y-181000000D03*
X53650000Y-147500000D03*
X45100000Y-127450000D03*
X85150000Y-117450000D03*
X43550000Y-177300000D03*
X34750000Y-180800000D03*
X14700000Y-156650000D03*
X72750000Y-139650000D03*
X14600000Y-137750000D03*
X19300000Y-127700000D03*
X25250000Y-144150000D03*
X12250000Y-191600000D03*
X55450000Y-126450000D03*
X21100000Y-140250000D03*
X96750000Y-151200000D03*
X46950000Y-153100000D03*
X29100000Y-182250000D03*
X42300000Y-143400000D03*
X90250000Y-175100000D03*
X48800000Y-125500000D03*
X71600000Y-177350000D03*
X44950000Y-150950000D03*
X25600000Y-160400000D03*
X31850000Y-177850000D03*
X14450000Y-195550000D03*
X29350000Y-160400000D03*
X59300000Y-190750000D03*
X75500000Y-137100000D03*
X67350000Y-163950000D03*
X96850000Y-144000000D03*
X79800000Y-152300000D03*
X54850000Y-157100000D03*
X21700000Y-160750000D03*
X31900000Y-137600000D03*
X39900000Y-156350000D03*
X14700000Y-171400000D03*
X40500000Y-166550000D03*
X95600000Y-144000000D03*
X20050000Y-186550000D03*
X19100000Y-141500000D03*
X25100000Y-147200000D03*
X31900000Y-141700000D03*
X67400000Y-168100000D03*
X39400000Y-179300000D03*
X58150000Y-195650000D03*
X29550000Y-138100000D03*
X29500000Y-152550000D03*
X45000000Y-160150000D03*
X15650000Y-167150000D03*
X31050000Y-126300000D03*
X16250000Y-184300000D03*
X26950000Y-145900000D03*
X40300000Y-154250000D03*
X40450000Y-141850000D03*
X40550000Y-147900000D03*
X33300000Y-134800000D03*
X12000000Y-196100000D03*
X60100000Y-160800000D03*
X42250000Y-195900000D03*
X33050000Y-189300000D03*
X91100000Y-139350000D03*
X84850000Y-172350000D03*
X39250000Y-153650000D03*
X64650000Y-182150000D03*
X42850000Y-160050000D03*
X21350000Y-127050000D03*
X45650000Y-180250000D03*
X23600000Y-131800000D03*
X25850000Y-131200000D03*
X32050000Y-143850000D03*
X33900000Y-160200000D03*
X85600000Y-195450000D03*
X50800000Y-180100000D03*
X71150000Y-184700000D03*
X60050000Y-154400000D03*
X39850000Y-149850000D03*
X62450000Y-158950000D03*
X57200000Y-199350000D03*
X27100000Y-190900000D03*
X32400000Y-182400000D03*
X14950000Y-148650000D03*
X78300000Y-173900000D03*
X27550000Y-166900000D03*
X29750000Y-146650000D03*
X26700000Y-148550000D03*
X19150000Y-124950000D03*
X94300000Y-145650000D03*
%TO.N,+5V*%
X70650000Y-134250000D03*
X94250000Y-160800000D03*
X74000000Y-137600000D03*
X82700000Y-183500000D03*
X72500000Y-184600000D03*
X64600000Y-180950000D03*
%TO.N,+3V3*%
X26400000Y-126000000D03*
X16000000Y-139750000D03*
X24050000Y-177400000D03*
X17800000Y-126000000D03*
X54900000Y-146000000D03*
X54900000Y-150900000D03*
X43100000Y-148500000D03*
X52650000Y-162600000D03*
X45650000Y-156950000D03*
%TO.N,/OUT1*%
X46250000Y-158600000D03*
%TO.N,/OUT2*%
X46700000Y-161150000D03*
%TO.N,/OUT3*%
X46700000Y-162000000D03*
%TO.N,/IN1*%
X41300000Y-163200000D03*
X46700000Y-163200000D03*
%TO.N,/IN2*%
X41300000Y-164300000D03*
X46700000Y-164300000D03*
%TO.N,/IN3*%
X46700000Y-165400000D03*
X41300000Y-165400000D03*
%TO.N,/BOOT1*%
X49250000Y-158100000D03*
X49250000Y-142800000D03*
%TO.N,/232_1_TX*%
X49000000Y-168800000D03*
X49000000Y-171400000D03*
%TO.N,/TTL_RX*%
X60000000Y-159200000D03*
X74300000Y-173500000D03*
%TO.N,/TTL_TX*%
X60300000Y-158000000D03*
%TO.N,/232_2_RX*%
X55700000Y-154900000D03*
X42500000Y-180100000D03*
%TO.N,/232_2_TX*%
X56700000Y-154900000D03*
X43500000Y-180100000D03*
%TO.N,4V5~16V*%
X76950000Y-159650000D03*
X90250000Y-163150000D03*
X88450000Y-168000000D03*
X92800000Y-162300000D03*
%TD*%
%TO.N,/485_2_RX*%
D20*
X45800000Y-169200000D02*
X45800000Y-173100000D01*
%TO.N,/485_2_TX*%
X44300000Y-173200000D02*
X44300000Y-169200000D01*
%TO.N,+5V*%
X94250000Y-177200000D02*
X94250000Y-160800000D01*
X82700000Y-183500000D02*
X87950000Y-183500000D01*
X74000000Y-137600000D02*
X70650000Y-134250000D01*
X87950000Y-183500000D02*
X94250000Y-177200000D01*
X68850000Y-180950000D02*
X72500000Y-184600000D01*
X64600000Y-180950000D02*
X68850000Y-180950000D01*
%TO.N,+3V3*%
X47000000Y-156950000D02*
X45650000Y-156950000D01*
D21*
X17800000Y-126000000D02*
X16000000Y-127800000D01*
D20*
X52650000Y-162600000D02*
X47000000Y-156950000D01*
D21*
X54900000Y-146000000D02*
X54900000Y-150900000D01*
X16000000Y-127800000D02*
X16000000Y-139750000D01*
X26400000Y-126000000D02*
X17800000Y-126000000D01*
X43100000Y-142700000D02*
X43100000Y-148500000D01*
D20*
X38850000Y-162600000D02*
X24050000Y-177400000D01*
D21*
X26400000Y-126000000D02*
X43100000Y-142700000D01*
D20*
X52650000Y-162600000D02*
X38850000Y-162600000D01*
%TO.N,/OUT1*%
X25500000Y-159650000D02*
X16130000Y-150280000D01*
X38650000Y-159650000D02*
X25500000Y-159650000D01*
X16130000Y-150280000D02*
X10900000Y-150280000D01*
X39700000Y-158600000D02*
X38650000Y-159650000D01*
X46250000Y-158600000D02*
X39700000Y-158600000D01*
%TO.N,/OUT2*%
X46700000Y-161150000D02*
X24550000Y-161150000D01*
X24550000Y-161150000D02*
X18760000Y-155360000D01*
X18760000Y-155360000D02*
X10900000Y-155360000D01*
%TO.N,/OUT3*%
X10900000Y-160440000D02*
X12460000Y-162000000D01*
X12460000Y-162000000D02*
X46700000Y-162000000D01*
%TO.N,/IN1*%
X41300000Y-163200000D02*
X46700000Y-163200000D01*
%TO.N,/IN2*%
X41300000Y-164300000D02*
X46700000Y-164300000D01*
%TO.N,/IN3*%
X41300000Y-165400000D02*
X46700000Y-165400000D01*
%TO.N,/BOOT1*%
X49250000Y-142800000D02*
X49250000Y-158100000D01*
%TO.N,/232_1_TX*%
X49000000Y-171400000D02*
X49000000Y-168800000D01*
%TO.N,/TTL_RX*%
X74300000Y-173500000D02*
X60000000Y-159200000D01*
%TO.N,/TTL_TX*%
X81500000Y-179200000D02*
X60300000Y-158000000D01*
X81500000Y-199500000D02*
X81500000Y-179200000D01*
%TO.N,/232_2_RX*%
X56100000Y-166500000D02*
X42500000Y-180100000D01*
X55700000Y-154900000D02*
X56100000Y-155300000D01*
X56100000Y-155300000D02*
X56100000Y-166500000D01*
%TO.N,/232_2_TX*%
X56700000Y-154900000D02*
X56700000Y-166900000D01*
X56700000Y-166900000D02*
X43500000Y-180100000D01*
%TO.N,4V5~16V*%
D21*
X90250000Y-166200000D02*
X88450000Y-168000000D01*
X91100000Y-162300000D02*
X90250000Y-163150000D01*
X80450000Y-163150000D02*
X76950000Y-159650000D01*
X90250000Y-163150000D02*
X80450000Y-163150000D01*
X92800000Y-162300000D02*
X91100000Y-162300000D01*
X90250000Y-163150000D02*
X90250000Y-166200000D01*
%TD*%
%TA.AperFunction,Conductor*%
%TO.N,GND*%
G36*
X97503736Y-110250726D02*
G01*
X97763662Y-110266448D01*
X97778524Y-110268253D01*
X97849528Y-110281264D01*
X98030969Y-110314515D01*
X98045498Y-110318096D01*
X98290523Y-110394449D01*
X98304516Y-110399755D01*
X98538562Y-110505091D01*
X98551808Y-110512044D01*
X98771449Y-110644821D01*
X98783760Y-110653319D01*
X98797810Y-110664326D01*
X98985792Y-110811601D01*
X98997000Y-110821531D01*
X99178468Y-111002999D01*
X99188398Y-111014207D01*
X99346676Y-111216233D01*
X99355182Y-111228556D01*
X99487952Y-111448185D01*
X99494911Y-111461444D01*
X99600242Y-111695480D01*
X99605551Y-111709480D01*
X99681901Y-111954494D01*
X99685485Y-111969034D01*
X99731746Y-112221475D01*
X99733551Y-112236339D01*
X99749274Y-112496263D01*
X99749500Y-112503750D01*
X99749500Y-207496249D01*
X99749274Y-207503736D01*
X99733551Y-207763660D01*
X99731746Y-207778524D01*
X99685485Y-208030965D01*
X99681901Y-208045505D01*
X99605551Y-208290519D01*
X99600242Y-208304519D01*
X99494911Y-208538555D01*
X99487952Y-208551814D01*
X99355182Y-208771443D01*
X99346676Y-208783766D01*
X99188398Y-208985792D01*
X99178468Y-208997000D01*
X98997000Y-209178468D01*
X98985792Y-209188398D01*
X98783766Y-209346676D01*
X98771443Y-209355182D01*
X98551814Y-209487952D01*
X98538555Y-209494911D01*
X98304519Y-209600242D01*
X98290519Y-209605551D01*
X98045505Y-209681901D01*
X98030965Y-209685485D01*
X97778524Y-209731746D01*
X97763660Y-209733551D01*
X97503736Y-209749274D01*
X97496249Y-209749500D01*
X2503751Y-209749500D01*
X2496264Y-209749274D01*
X2236339Y-209733551D01*
X2221475Y-209731746D01*
X1969034Y-209685485D01*
X1954494Y-209681901D01*
X1709480Y-209605551D01*
X1695480Y-209600242D01*
X1461444Y-209494911D01*
X1448185Y-209487952D01*
X1228556Y-209355182D01*
X1216233Y-209346676D01*
X1014207Y-209188398D01*
X1002999Y-209178468D01*
X821531Y-208997000D01*
X811601Y-208985792D01*
X653323Y-208783766D01*
X644821Y-208771449D01*
X512044Y-208551808D01*
X505091Y-208538562D01*
X399755Y-208304516D01*
X394448Y-208290519D01*
X318096Y-208045498D01*
X314514Y-208030965D01*
X301775Y-207961452D01*
X268253Y-207778524D01*
X266448Y-207763660D01*
X250726Y-207503736D01*
X250500Y-207496249D01*
X250500Y-197902134D01*
X12209500Y-197902134D01*
X12209500Y-201097865D01*
X12209501Y-201097884D01*
X12215908Y-201157481D01*
X12215910Y-201157488D01*
X12266202Y-201292328D01*
X12266203Y-201292330D01*
X12266204Y-201292331D01*
X12352453Y-201407547D01*
X12417118Y-201455954D01*
X12467669Y-201493796D01*
X12467671Y-201493797D01*
X12534501Y-201518723D01*
X12602516Y-201544091D01*
X12662126Y-201550500D01*
X12662135Y-201550500D01*
X14337865Y-201550500D01*
X14337874Y-201550500D01*
X14397484Y-201544091D01*
X14532331Y-201493796D01*
X14647547Y-201407547D01*
X14733796Y-201292331D01*
X14784091Y-201157484D01*
X14790500Y-201097874D01*
X14790500Y-198638435D01*
X17289500Y-198638435D01*
X17289500Y-200361564D01*
X17321277Y-200562194D01*
X17321277Y-200562197D01*
X17384045Y-200755377D01*
X17476268Y-200936372D01*
X17595656Y-201100697D01*
X17595660Y-201100702D01*
X17739297Y-201244339D01*
X17739302Y-201244343D01*
X17882635Y-201348480D01*
X17903631Y-201363734D01*
X18042797Y-201434643D01*
X18084622Y-201455954D01*
X18277803Y-201518722D01*
X18277804Y-201518722D01*
X18277807Y-201518723D01*
X18478435Y-201550500D01*
X18478436Y-201550500D01*
X18681564Y-201550500D01*
X18681565Y-201550500D01*
X18882193Y-201518723D01*
X18882196Y-201518722D01*
X18882197Y-201518722D01*
X19075377Y-201455954D01*
X19075377Y-201455953D01*
X19075380Y-201455953D01*
X19256369Y-201363734D01*
X19420704Y-201244338D01*
X19564338Y-201100704D01*
X19683734Y-200936369D01*
X19775953Y-200755380D01*
X19838723Y-200562193D01*
X19870500Y-200361565D01*
X19870500Y-198638435D01*
X19867390Y-198618799D01*
X22120000Y-198618799D01*
X22120000Y-199250000D01*
X23005879Y-199250000D01*
X22986901Y-199295818D01*
X22960000Y-199431056D01*
X22960000Y-199568944D01*
X22986901Y-199704182D01*
X23005879Y-199750000D01*
X22120000Y-199750000D01*
X22120000Y-200381200D01*
X22157920Y-200620618D01*
X22232827Y-200851159D01*
X22342874Y-201067136D01*
X22485356Y-201263245D01*
X22656754Y-201434643D01*
X22852863Y-201577125D01*
X23068840Y-201687172D01*
X23299381Y-201762080D01*
X23410000Y-201779600D01*
X23410000Y-200154120D01*
X23455818Y-200173099D01*
X23591056Y-200200000D01*
X23728944Y-200200000D01*
X23864182Y-200173099D01*
X23910000Y-200154120D01*
X23910000Y-201779599D01*
X24020618Y-201762080D01*
X24251159Y-201687172D01*
X24467136Y-201577125D01*
X24663245Y-201434643D01*
X24834643Y-201263245D01*
X24977125Y-201067136D01*
X25087172Y-200851159D01*
X25162079Y-200620618D01*
X25200000Y-200381200D01*
X25200000Y-199750000D01*
X24314121Y-199750000D01*
X24333099Y-199704182D01*
X24360000Y-199568944D01*
X24360000Y-199431056D01*
X24333099Y-199295818D01*
X24314121Y-199250000D01*
X25200000Y-199250000D01*
X25200000Y-198618799D01*
X25162079Y-198379381D01*
X25087172Y-198148840D01*
X24988456Y-197955100D01*
X24988455Y-197955098D01*
X24977127Y-197932866D01*
X24954799Y-197902134D01*
X30959500Y-197902134D01*
X30959500Y-201097865D01*
X30959501Y-201097884D01*
X30965908Y-201157481D01*
X30965910Y-201157488D01*
X31016202Y-201292328D01*
X31016203Y-201292330D01*
X31016204Y-201292331D01*
X31102453Y-201407547D01*
X31167118Y-201455954D01*
X31217669Y-201493796D01*
X31217671Y-201493797D01*
X31284501Y-201518723D01*
X31352516Y-201544091D01*
X31412126Y-201550500D01*
X31412135Y-201550500D01*
X33087865Y-201550500D01*
X33087874Y-201550500D01*
X33147484Y-201544091D01*
X33282331Y-201493796D01*
X33397547Y-201407547D01*
X33483796Y-201292331D01*
X33534091Y-201157484D01*
X33540500Y-201097874D01*
X33540500Y-198638435D01*
X36039500Y-198638435D01*
X36039500Y-200361564D01*
X36071277Y-200562194D01*
X36071277Y-200562197D01*
X36134045Y-200755377D01*
X36226268Y-200936372D01*
X36345656Y-201100697D01*
X36345660Y-201100702D01*
X36489297Y-201244339D01*
X36489302Y-201244343D01*
X36632635Y-201348480D01*
X36653631Y-201363734D01*
X36792797Y-201434643D01*
X36834622Y-201455954D01*
X37027803Y-201518722D01*
X37027804Y-201518722D01*
X37027807Y-201518723D01*
X37228435Y-201550500D01*
X37228436Y-201550500D01*
X37431564Y-201550500D01*
X37431565Y-201550500D01*
X37632193Y-201518723D01*
X37632196Y-201518722D01*
X37632197Y-201518722D01*
X37825377Y-201455954D01*
X37825377Y-201455953D01*
X37825380Y-201455953D01*
X38006369Y-201363734D01*
X38170704Y-201244338D01*
X38314338Y-201100704D01*
X38433734Y-200936369D01*
X38525953Y-200755380D01*
X38588723Y-200562193D01*
X38620500Y-200361565D01*
X38620500Y-198638435D01*
X38617390Y-198618799D01*
X40870000Y-198618799D01*
X40870000Y-199250000D01*
X41755879Y-199250000D01*
X41736901Y-199295818D01*
X41710000Y-199431056D01*
X41710000Y-199568944D01*
X41736901Y-199704182D01*
X41755879Y-199750000D01*
X40870000Y-199750000D01*
X40870000Y-200381200D01*
X40907920Y-200620618D01*
X40982827Y-200851159D01*
X41092874Y-201067136D01*
X41235356Y-201263245D01*
X41406754Y-201434643D01*
X41602863Y-201577125D01*
X41818840Y-201687172D01*
X42049381Y-201762080D01*
X42160000Y-201779600D01*
X42160000Y-200154120D01*
X42205818Y-200173099D01*
X42341056Y-200200000D01*
X42478944Y-200200000D01*
X42614182Y-200173099D01*
X42660000Y-200154120D01*
X42660000Y-201779599D01*
X42770618Y-201762080D01*
X43001159Y-201687172D01*
X43217136Y-201577125D01*
X43413245Y-201434643D01*
X43584643Y-201263245D01*
X43727125Y-201067136D01*
X43837172Y-200851159D01*
X43912079Y-200620618D01*
X43950000Y-200381200D01*
X43950000Y-199750000D01*
X43064121Y-199750000D01*
X43083099Y-199704182D01*
X43110000Y-199568944D01*
X43110000Y-199431056D01*
X43083099Y-199295818D01*
X43064121Y-199250000D01*
X43950000Y-199250000D01*
X43950000Y-198618799D01*
X43912079Y-198379381D01*
X43837172Y-198148840D01*
X43738456Y-197955100D01*
X43738455Y-197955098D01*
X43727127Y-197932866D01*
X43704799Y-197902134D01*
X53209500Y-197902134D01*
X53209500Y-201097865D01*
X53209501Y-201097884D01*
X53215908Y-201157481D01*
X53215910Y-201157488D01*
X53266202Y-201292328D01*
X53266203Y-201292330D01*
X53266204Y-201292331D01*
X53352453Y-201407547D01*
X53417118Y-201455954D01*
X53467669Y-201493796D01*
X53467671Y-201493797D01*
X53534501Y-201518723D01*
X53602516Y-201544091D01*
X53662126Y-201550500D01*
X53662135Y-201550500D01*
X55337865Y-201550500D01*
X55337874Y-201550500D01*
X55397484Y-201544091D01*
X55532331Y-201493796D01*
X55647547Y-201407547D01*
X55733796Y-201292331D01*
X55784091Y-201157484D01*
X55790500Y-201097874D01*
X55790500Y-198638435D01*
X58289500Y-198638435D01*
X58289500Y-200361564D01*
X58321277Y-200562194D01*
X58321277Y-200562197D01*
X58384045Y-200755377D01*
X58476268Y-200936372D01*
X58595656Y-201100697D01*
X58595660Y-201100702D01*
X58739297Y-201244339D01*
X58739302Y-201244343D01*
X58882635Y-201348480D01*
X58903631Y-201363734D01*
X59042797Y-201434643D01*
X59084622Y-201455954D01*
X59277803Y-201518722D01*
X59277804Y-201518722D01*
X59277807Y-201518723D01*
X59478435Y-201550500D01*
X59478436Y-201550500D01*
X59681564Y-201550500D01*
X59681565Y-201550500D01*
X59882193Y-201518723D01*
X59882196Y-201518722D01*
X59882197Y-201518722D01*
X60075377Y-201455954D01*
X60075377Y-201455953D01*
X60075380Y-201455953D01*
X60256369Y-201363734D01*
X60420704Y-201244338D01*
X60564338Y-201100704D01*
X60683734Y-200936369D01*
X60775953Y-200755380D01*
X60838723Y-200562193D01*
X60870500Y-200361565D01*
X60870500Y-198638435D01*
X60838723Y-198437807D01*
X60838722Y-198437803D01*
X60838722Y-198437802D01*
X60775954Y-198244622D01*
X60727150Y-198148840D01*
X60683734Y-198063631D01*
X60677030Y-198054404D01*
X60616936Y-197971690D01*
X60566401Y-197902134D01*
X66709500Y-197902134D01*
X66709500Y-201097865D01*
X66709501Y-201097884D01*
X66715908Y-201157481D01*
X66715910Y-201157488D01*
X66766202Y-201292328D01*
X66766203Y-201292330D01*
X66766204Y-201292331D01*
X66852453Y-201407547D01*
X66917118Y-201455954D01*
X66967669Y-201493796D01*
X66967671Y-201493797D01*
X67034501Y-201518723D01*
X67102516Y-201544091D01*
X67162126Y-201550500D01*
X67162135Y-201550500D01*
X68837865Y-201550500D01*
X68837874Y-201550500D01*
X68897484Y-201544091D01*
X69032331Y-201493796D01*
X69147547Y-201407547D01*
X69233796Y-201292331D01*
X69284091Y-201157484D01*
X69290500Y-201097874D01*
X69290500Y-198638435D01*
X71789500Y-198638435D01*
X71789500Y-200361564D01*
X71821277Y-200562194D01*
X71821277Y-200562197D01*
X71884045Y-200755377D01*
X71976268Y-200936372D01*
X72095656Y-201100697D01*
X72095660Y-201100702D01*
X72239297Y-201244339D01*
X72239302Y-201244343D01*
X72382635Y-201348480D01*
X72403631Y-201363734D01*
X72542797Y-201434643D01*
X72584622Y-201455954D01*
X72777803Y-201518722D01*
X72777804Y-201518722D01*
X72777807Y-201518723D01*
X72978435Y-201550500D01*
X72978436Y-201550500D01*
X73181564Y-201550500D01*
X73181565Y-201550500D01*
X73382193Y-201518723D01*
X73382196Y-201518722D01*
X73382197Y-201518722D01*
X73575377Y-201455954D01*
X73575377Y-201455953D01*
X73575380Y-201455953D01*
X73756369Y-201363734D01*
X73920704Y-201244338D01*
X74064338Y-201100704D01*
X74183734Y-200936369D01*
X74275953Y-200755380D01*
X74338723Y-200562193D01*
X74370500Y-200361565D01*
X74370500Y-198638435D01*
X74338723Y-198437807D01*
X74338722Y-198437803D01*
X74338722Y-198437802D01*
X74275954Y-198244622D01*
X74227150Y-198148840D01*
X74183734Y-198063631D01*
X74104882Y-197955100D01*
X74064343Y-197899302D01*
X74064339Y-197899297D01*
X73920702Y-197755660D01*
X73920697Y-197755656D01*
X73756372Y-197636268D01*
X73756371Y-197636267D01*
X73756369Y-197636266D01*
X73665874Y-197590156D01*
X73575377Y-197544045D01*
X73382196Y-197481277D01*
X73222023Y-197455908D01*
X73181565Y-197449500D01*
X72978435Y-197449500D01*
X72937971Y-197455909D01*
X72777805Y-197481277D01*
X72777802Y-197481277D01*
X72584622Y-197544045D01*
X72403627Y-197636268D01*
X72239302Y-197755656D01*
X72239297Y-197755660D01*
X72095660Y-197899297D01*
X72095656Y-197899302D01*
X71976268Y-198063627D01*
X71884045Y-198244622D01*
X71821277Y-198437802D01*
X71821277Y-198437805D01*
X71789500Y-198638435D01*
X69290500Y-198638435D01*
X69290500Y-197902126D01*
X69284091Y-197842516D01*
X69233796Y-197707669D01*
X69147547Y-197592453D01*
X69032331Y-197506204D01*
X69032330Y-197506203D01*
X69032328Y-197506202D01*
X68897488Y-197455910D01*
X68897481Y-197455908D01*
X68837884Y-197449501D01*
X68837882Y-197449500D01*
X68837874Y-197449500D01*
X67162126Y-197449500D01*
X67162118Y-197449500D01*
X67162115Y-197449501D01*
X67102518Y-197455908D01*
X67102511Y-197455910D01*
X66967671Y-197506202D01*
X66967669Y-197506203D01*
X66852453Y-197592453D01*
X66766203Y-197707669D01*
X66766202Y-197707671D01*
X66715910Y-197842511D01*
X66715908Y-197842518D01*
X66709501Y-197902115D01*
X66709500Y-197902134D01*
X60566401Y-197902134D01*
X60564343Y-197899302D01*
X60564339Y-197899297D01*
X60420702Y-197755660D01*
X60420697Y-197755656D01*
X60256372Y-197636268D01*
X60256371Y-197636267D01*
X60256369Y-197636266D01*
X60165874Y-197590156D01*
X60075377Y-197544045D01*
X59882196Y-197481277D01*
X59722023Y-197455908D01*
X59681565Y-197449500D01*
X59478435Y-197449500D01*
X59437971Y-197455909D01*
X59277805Y-197481277D01*
X59277802Y-197481277D01*
X59084622Y-197544045D01*
X58903627Y-197636268D01*
X58739302Y-197755656D01*
X58739297Y-197755660D01*
X58595660Y-197899297D01*
X58595656Y-197899302D01*
X58476268Y-198063627D01*
X58384045Y-198244622D01*
X58321277Y-198437802D01*
X58321277Y-198437805D01*
X58289500Y-198638435D01*
X55790500Y-198638435D01*
X55790500Y-197902126D01*
X55784091Y-197842516D01*
X55733796Y-197707669D01*
X55647547Y-197592453D01*
X55532331Y-197506204D01*
X55532330Y-197506203D01*
X55532328Y-197506202D01*
X55397488Y-197455910D01*
X55397481Y-197455908D01*
X55337884Y-197449501D01*
X55337882Y-197449500D01*
X55337874Y-197449500D01*
X53662126Y-197449500D01*
X53662118Y-197449500D01*
X53662115Y-197449501D01*
X53602518Y-197455908D01*
X53602511Y-197455910D01*
X53467671Y-197506202D01*
X53467669Y-197506203D01*
X53352453Y-197592453D01*
X53266203Y-197707669D01*
X53266202Y-197707671D01*
X53215910Y-197842511D01*
X53215908Y-197842518D01*
X53209501Y-197902115D01*
X53209500Y-197902134D01*
X43704799Y-197902134D01*
X43584643Y-197736754D01*
X43413245Y-197565356D01*
X43217136Y-197422874D01*
X43001157Y-197312827D01*
X42770614Y-197237919D01*
X42660000Y-197220399D01*
X42660000Y-198845879D01*
X42614182Y-198826901D01*
X42478944Y-198800000D01*
X42341056Y-198800000D01*
X42205818Y-198826901D01*
X42160000Y-198845879D01*
X42160000Y-197220399D01*
X42159999Y-197220399D01*
X42049385Y-197237919D01*
X41818842Y-197312827D01*
X41602863Y-197422874D01*
X41406754Y-197565356D01*
X41235356Y-197736754D01*
X41092874Y-197932863D01*
X40982827Y-198148840D01*
X40907920Y-198379381D01*
X40870000Y-198618799D01*
X38617390Y-198618799D01*
X38588723Y-198437807D01*
X38588722Y-198437803D01*
X38588722Y-198437802D01*
X38525954Y-198244622D01*
X38477150Y-198148840D01*
X38433734Y-198063631D01*
X38354882Y-197955100D01*
X38314343Y-197899302D01*
X38314339Y-197899297D01*
X38170702Y-197755660D01*
X38170697Y-197755656D01*
X38006372Y-197636268D01*
X38006371Y-197636267D01*
X38006369Y-197636266D01*
X37915874Y-197590156D01*
X37825377Y-197544045D01*
X37632196Y-197481277D01*
X37472023Y-197455908D01*
X37431565Y-197449500D01*
X37228435Y-197449500D01*
X37187971Y-197455909D01*
X37027805Y-197481277D01*
X37027802Y-197481277D01*
X36834622Y-197544045D01*
X36653627Y-197636268D01*
X36489302Y-197755656D01*
X36489297Y-197755660D01*
X36345660Y-197899297D01*
X36345656Y-197899302D01*
X36226268Y-198063627D01*
X36134045Y-198244622D01*
X36071277Y-198437802D01*
X36071277Y-198437805D01*
X36039500Y-198638435D01*
X33540500Y-198638435D01*
X33540500Y-197902126D01*
X33534091Y-197842516D01*
X33483796Y-197707669D01*
X33397547Y-197592453D01*
X33282331Y-197506204D01*
X33282330Y-197506203D01*
X33282328Y-197506202D01*
X33147488Y-197455910D01*
X33147481Y-197455908D01*
X33087884Y-197449501D01*
X33087882Y-197449500D01*
X33087874Y-197449500D01*
X31412126Y-197449500D01*
X31412118Y-197449500D01*
X31412115Y-197449501D01*
X31352518Y-197455908D01*
X31352511Y-197455910D01*
X31217671Y-197506202D01*
X31217669Y-197506203D01*
X31102453Y-197592453D01*
X31016203Y-197707669D01*
X31016202Y-197707671D01*
X30965910Y-197842511D01*
X30965908Y-197842518D01*
X30959501Y-197902115D01*
X30959500Y-197902134D01*
X24954799Y-197902134D01*
X24834643Y-197736754D01*
X24663245Y-197565356D01*
X24467136Y-197422874D01*
X24251157Y-197312827D01*
X24020614Y-197237919D01*
X23910000Y-197220399D01*
X23910000Y-198845879D01*
X23864182Y-198826901D01*
X23728944Y-198800000D01*
X23591056Y-198800000D01*
X23455818Y-198826901D01*
X23410000Y-198845879D01*
X23410000Y-197220399D01*
X23409999Y-197220399D01*
X23299385Y-197237919D01*
X23068842Y-197312827D01*
X22852863Y-197422874D01*
X22656754Y-197565356D01*
X22485356Y-197736754D01*
X22342874Y-197932863D01*
X22232827Y-198148840D01*
X22157920Y-198379381D01*
X22120000Y-198618799D01*
X19867390Y-198618799D01*
X19838723Y-198437807D01*
X19838722Y-198437803D01*
X19838722Y-198437802D01*
X19775954Y-198244622D01*
X19727150Y-198148840D01*
X19683734Y-198063631D01*
X19604882Y-197955100D01*
X19564343Y-197899302D01*
X19564339Y-197899297D01*
X19420702Y-197755660D01*
X19420697Y-197755656D01*
X19256372Y-197636268D01*
X19256371Y-197636267D01*
X19256369Y-197636266D01*
X19165874Y-197590156D01*
X19075377Y-197544045D01*
X18882196Y-197481277D01*
X18722023Y-197455908D01*
X18681565Y-197449500D01*
X18478435Y-197449500D01*
X18437971Y-197455909D01*
X18277805Y-197481277D01*
X18277802Y-197481277D01*
X18084622Y-197544045D01*
X17903627Y-197636268D01*
X17739302Y-197755656D01*
X17739297Y-197755660D01*
X17595660Y-197899297D01*
X17595656Y-197899302D01*
X17476268Y-198063627D01*
X17384045Y-198244622D01*
X17321277Y-198437802D01*
X17321277Y-198437805D01*
X17289500Y-198638435D01*
X14790500Y-198638435D01*
X14790500Y-197902126D01*
X14784091Y-197842516D01*
X14733796Y-197707669D01*
X14647547Y-197592453D01*
X14532331Y-197506204D01*
X14532330Y-197506203D01*
X14532328Y-197506202D01*
X14397488Y-197455910D01*
X14397481Y-197455908D01*
X14337884Y-197449501D01*
X14337882Y-197449500D01*
X14337874Y-197449500D01*
X12662126Y-197449500D01*
X12662118Y-197449500D01*
X12662115Y-197449501D01*
X12602518Y-197455908D01*
X12602511Y-197455910D01*
X12467671Y-197506202D01*
X12467669Y-197506203D01*
X12352453Y-197592453D01*
X12266203Y-197707669D01*
X12266202Y-197707671D01*
X12215910Y-197842511D01*
X12215908Y-197842518D01*
X12209501Y-197902115D01*
X12209500Y-197902134D01*
X250500Y-197902134D01*
X250500Y-180884108D01*
X64099500Y-180884108D01*
X64099500Y-181015891D01*
X64133608Y-181143187D01*
X64166554Y-181200250D01*
X64199500Y-181257314D01*
X64292686Y-181350500D01*
X64391521Y-181407563D01*
X64406810Y-181416390D01*
X64406814Y-181416392D01*
X64534108Y-181450500D01*
X64534110Y-181450500D01*
X64665890Y-181450500D01*
X64665892Y-181450500D01*
X64793186Y-181416392D01*
X64878540Y-181367113D01*
X64940540Y-181350500D01*
X68632745Y-181350500D01*
X68699784Y-181370185D01*
X68720426Y-181386819D01*
X71976005Y-184642397D01*
X72008098Y-184697983D01*
X72033608Y-184793186D01*
X72099500Y-184907314D01*
X72192686Y-185000500D01*
X72306814Y-185066392D01*
X72434108Y-185100500D01*
X72434110Y-185100500D01*
X72565890Y-185100500D01*
X72565892Y-185100500D01*
X72693186Y-185066392D01*
X72807314Y-185000500D01*
X72900500Y-184907314D01*
X72966392Y-184793186D01*
X73000500Y-184665892D01*
X73000500Y-184534108D01*
X72966392Y-184406814D01*
X72900500Y-184292686D01*
X72807314Y-184199500D01*
X72693186Y-184133608D01*
X72597983Y-184108098D01*
X72542397Y-184076005D01*
X69095915Y-180629522D01*
X69095914Y-180629521D01*
X69095913Y-180629520D01*
X69045648Y-180600499D01*
X69004589Y-180576793D01*
X68953657Y-180563146D01*
X68902727Y-180549500D01*
X68902726Y-180549500D01*
X64940540Y-180549500D01*
X64878540Y-180532887D01*
X64793188Y-180483609D01*
X64793187Y-180483608D01*
X64793186Y-180483608D01*
X64665892Y-180449500D01*
X64534108Y-180449500D01*
X64406812Y-180483608D01*
X64292686Y-180549500D01*
X64292683Y-180549502D01*
X64199502Y-180642683D01*
X64199500Y-180642686D01*
X64133608Y-180756812D01*
X64099500Y-180884108D01*
X250500Y-180884108D01*
X250500Y-179058435D01*
X8849500Y-179058435D01*
X8849500Y-179261565D01*
X8860272Y-179329573D01*
X8881277Y-179462194D01*
X8881277Y-179462197D01*
X8944045Y-179655377D01*
X8944047Y-179655380D01*
X9025953Y-179816129D01*
X9036268Y-179836372D01*
X9155656Y-180000697D01*
X9155660Y-180000702D01*
X9299297Y-180144339D01*
X9299302Y-180144343D01*
X9442635Y-180248480D01*
X9463631Y-180263734D01*
X9644620Y-180355953D01*
X9644622Y-180355954D01*
X9837803Y-180418722D01*
X9837804Y-180418722D01*
X9837807Y-180418723D01*
X10038435Y-180450500D01*
X10038436Y-180450500D01*
X11761564Y-180450500D01*
X11761565Y-180450500D01*
X11962193Y-180418723D01*
X11962196Y-180418722D01*
X11962197Y-180418722D01*
X12155377Y-180355954D01*
X12155377Y-180355953D01*
X12155380Y-180355953D01*
X12336369Y-180263734D01*
X12500704Y-180144338D01*
X12610934Y-180034108D01*
X41999500Y-180034108D01*
X41999500Y-180165892D01*
X42010664Y-180207557D01*
X42033608Y-180293187D01*
X42066554Y-180350250D01*
X42099500Y-180407314D01*
X42192686Y-180500500D01*
X42306814Y-180566392D01*
X42434108Y-180600500D01*
X42434110Y-180600500D01*
X42565890Y-180600500D01*
X42565892Y-180600500D01*
X42693186Y-180566392D01*
X42807314Y-180500500D01*
X42900500Y-180407314D01*
X42900504Y-180407306D01*
X42901625Y-180405847D01*
X42902892Y-180404921D01*
X42906247Y-180401567D01*
X42906770Y-180402090D01*
X42958053Y-180364645D01*
X43027799Y-180360491D01*
X43088719Y-180394704D01*
X43098375Y-180405847D01*
X43099498Y-180407311D01*
X43099500Y-180407314D01*
X43192686Y-180500500D01*
X43306814Y-180566392D01*
X43434108Y-180600500D01*
X43434110Y-180600500D01*
X43565890Y-180600500D01*
X43565892Y-180600500D01*
X43693186Y-180566392D01*
X43807314Y-180500500D01*
X43900500Y-180407314D01*
X43966392Y-180293186D01*
X43974284Y-180263734D01*
X43991900Y-180197986D01*
X44023992Y-180142399D01*
X57020480Y-167145913D01*
X57073207Y-167054588D01*
X57100500Y-166952727D01*
X57100500Y-166847273D01*
X57100500Y-159134108D01*
X59499500Y-159134108D01*
X59499500Y-159265891D01*
X59533608Y-159393187D01*
X59566554Y-159450250D01*
X59599500Y-159507314D01*
X59692686Y-159600500D01*
X59806814Y-159666392D01*
X59902014Y-159691900D01*
X59957600Y-159723993D01*
X73776005Y-173542398D01*
X73808099Y-173597985D01*
X73833608Y-173693186D01*
X73899500Y-173807314D01*
X73992686Y-173900500D01*
X74106814Y-173966392D01*
X74234108Y-174000500D01*
X74234110Y-174000500D01*
X74365890Y-174000500D01*
X74365892Y-174000500D01*
X74493186Y-173966392D01*
X74607314Y-173900500D01*
X74700500Y-173807314D01*
X74766392Y-173693186D01*
X74800500Y-173565892D01*
X74800500Y-173434108D01*
X74785864Y-173379485D01*
X74787526Y-173309638D01*
X74826687Y-173251775D01*
X74890916Y-173224270D01*
X74959818Y-173235856D01*
X74993319Y-173259712D01*
X81063181Y-179329573D01*
X81096666Y-179390896D01*
X81099500Y-179417254D01*
X81099500Y-197325500D01*
X81079815Y-197392539D01*
X81027011Y-197438294D01*
X80975500Y-197449500D01*
X80662126Y-197449500D01*
X80662118Y-197449500D01*
X80662115Y-197449501D01*
X80602518Y-197455908D01*
X80602511Y-197455910D01*
X80467671Y-197506202D01*
X80467669Y-197506203D01*
X80352453Y-197592453D01*
X80266203Y-197707669D01*
X80266202Y-197707671D01*
X80215910Y-197842511D01*
X80215908Y-197842518D01*
X80209501Y-197902115D01*
X80209500Y-197902134D01*
X80209500Y-201097865D01*
X80209501Y-201097884D01*
X80215908Y-201157481D01*
X80215910Y-201157488D01*
X80266202Y-201292328D01*
X80266203Y-201292330D01*
X80266204Y-201292331D01*
X80352453Y-201407547D01*
X80417118Y-201455954D01*
X80467669Y-201493796D01*
X80467671Y-201493797D01*
X80534501Y-201518723D01*
X80602516Y-201544091D01*
X80662126Y-201550500D01*
X80662135Y-201550500D01*
X82337865Y-201550500D01*
X82337874Y-201550500D01*
X82397484Y-201544091D01*
X82532331Y-201493796D01*
X82647547Y-201407547D01*
X82733796Y-201292331D01*
X82784091Y-201157484D01*
X82790500Y-201097874D01*
X82790500Y-198638435D01*
X85289500Y-198638435D01*
X85289500Y-200361564D01*
X85321277Y-200562194D01*
X85321277Y-200562197D01*
X85384045Y-200755377D01*
X85476268Y-200936372D01*
X85595656Y-201100697D01*
X85595660Y-201100702D01*
X85739297Y-201244339D01*
X85739302Y-201244343D01*
X85882635Y-201348480D01*
X85903631Y-201363734D01*
X86042797Y-201434643D01*
X86084622Y-201455954D01*
X86277803Y-201518722D01*
X86277804Y-201518722D01*
X86277807Y-201518723D01*
X86478435Y-201550500D01*
X86478436Y-201550500D01*
X86681564Y-201550500D01*
X86681565Y-201550500D01*
X86882193Y-201518723D01*
X86882196Y-201518722D01*
X86882197Y-201518722D01*
X87075377Y-201455954D01*
X87075377Y-201455953D01*
X87075380Y-201455953D01*
X87256369Y-201363734D01*
X87420704Y-201244338D01*
X87564338Y-201100704D01*
X87683734Y-200936369D01*
X87775953Y-200755380D01*
X87838723Y-200562193D01*
X87870500Y-200361565D01*
X87870500Y-198638435D01*
X87838723Y-198437807D01*
X87838722Y-198437803D01*
X87838722Y-198437802D01*
X87775954Y-198244622D01*
X87727150Y-198148840D01*
X87683734Y-198063631D01*
X87604882Y-197955100D01*
X87564343Y-197899302D01*
X87564339Y-197899297D01*
X87420702Y-197755660D01*
X87420697Y-197755656D01*
X87256372Y-197636268D01*
X87256371Y-197636267D01*
X87256369Y-197636266D01*
X87165874Y-197590156D01*
X87075377Y-197544045D01*
X86882196Y-197481277D01*
X86722023Y-197455908D01*
X86681565Y-197449500D01*
X86478435Y-197449500D01*
X86437971Y-197455909D01*
X86277805Y-197481277D01*
X86277802Y-197481277D01*
X86084622Y-197544045D01*
X85903627Y-197636268D01*
X85739302Y-197755656D01*
X85739297Y-197755660D01*
X85595660Y-197899297D01*
X85595656Y-197899302D01*
X85476268Y-198063627D01*
X85384045Y-198244622D01*
X85321277Y-198437802D01*
X85321277Y-198437805D01*
X85289500Y-198638435D01*
X82790500Y-198638435D01*
X82790500Y-197902126D01*
X82784091Y-197842516D01*
X82733796Y-197707669D01*
X82647547Y-197592453D01*
X82532331Y-197506204D01*
X82532330Y-197506203D01*
X82532328Y-197506202D01*
X82397488Y-197455910D01*
X82397481Y-197455908D01*
X82337884Y-197449501D01*
X82337882Y-197449500D01*
X82337874Y-197449500D01*
X82337866Y-197449500D01*
X82024500Y-197449500D01*
X81957461Y-197429815D01*
X81911706Y-197377011D01*
X81900500Y-197325500D01*
X81900500Y-183434108D01*
X82199500Y-183434108D01*
X82199500Y-183565891D01*
X82233608Y-183693187D01*
X82266554Y-183750250D01*
X82299500Y-183807314D01*
X82392686Y-183900500D01*
X82491521Y-183957563D01*
X82506810Y-183966390D01*
X82506814Y-183966392D01*
X82634108Y-184000500D01*
X82634110Y-184000500D01*
X82765890Y-184000500D01*
X82765892Y-184000500D01*
X82893186Y-183966392D01*
X82978540Y-183917113D01*
X83040540Y-183900500D01*
X88002725Y-183900500D01*
X88002727Y-183900500D01*
X88104588Y-183873207D01*
X88195913Y-183820480D01*
X92766393Y-179250000D01*
X95022769Y-179250000D01*
X96066988Y-179250000D01*
X96034075Y-179307007D01*
X96000000Y-179434174D01*
X96000000Y-179565826D01*
X96034075Y-179692993D01*
X96066988Y-179750000D01*
X95022769Y-179750000D01*
X95033242Y-179816126D01*
X95033242Y-179816129D01*
X95098904Y-180018217D01*
X95195379Y-180207557D01*
X95320272Y-180379459D01*
X95320276Y-180379464D01*
X95470535Y-180529723D01*
X95470540Y-180529727D01*
X95642442Y-180654620D01*
X95831782Y-180751095D01*
X96033870Y-180816757D01*
X96243754Y-180850000D01*
X96250000Y-180850000D01*
X96250000Y-179933012D01*
X96307007Y-179965925D01*
X96434174Y-180000000D01*
X96565826Y-180000000D01*
X96692993Y-179965925D01*
X96750000Y-179933012D01*
X96750000Y-180850000D01*
X96756246Y-180850000D01*
X96966127Y-180816757D01*
X96966130Y-180816757D01*
X97168217Y-180751095D01*
X97357557Y-180654620D01*
X97529459Y-180529727D01*
X97529464Y-180529723D01*
X97679723Y-180379464D01*
X97679727Y-180379459D01*
X97804620Y-180207557D01*
X97901095Y-180018217D01*
X97966757Y-179816129D01*
X97966757Y-179816126D01*
X97977231Y-179750000D01*
X96933012Y-179750000D01*
X96965925Y-179692993D01*
X97000000Y-179565826D01*
X97000000Y-179434174D01*
X96965925Y-179307007D01*
X96933012Y-179250000D01*
X97977231Y-179250000D01*
X97966757Y-179183873D01*
X97966757Y-179183870D01*
X97901095Y-178981782D01*
X97804620Y-178792442D01*
X97679727Y-178620540D01*
X97679723Y-178620535D01*
X97529464Y-178470276D01*
X97529459Y-178470272D01*
X97357557Y-178345378D01*
X97321661Y-178327088D01*
X97270866Y-178279113D01*
X97254072Y-178211292D01*
X97276610Y-178145157D01*
X97331326Y-178101706D01*
X97350192Y-178096978D01*
X97349932Y-178095876D01*
X97357479Y-178094092D01*
X97357481Y-178094091D01*
X97357483Y-178094091D01*
X97492331Y-178043796D01*
X97607546Y-177957546D01*
X97693796Y-177842331D01*
X97744091Y-177707483D01*
X97750500Y-177647873D01*
X97750499Y-176352128D01*
X97744091Y-176292517D01*
X97693796Y-176157669D01*
X97693795Y-176157668D01*
X97693793Y-176157664D01*
X97607547Y-176042455D01*
X97607544Y-176042452D01*
X97492335Y-175956206D01*
X97492328Y-175956202D01*
X97357482Y-175905908D01*
X97357483Y-175905908D01*
X97297883Y-175899501D01*
X97297881Y-175899500D01*
X97297873Y-175899500D01*
X97297864Y-175899500D01*
X95702129Y-175899500D01*
X95702123Y-175899501D01*
X95642516Y-175905908D01*
X95507671Y-175956202D01*
X95507664Y-175956206D01*
X95392455Y-176042452D01*
X95392452Y-176042455D01*
X95306206Y-176157664D01*
X95306202Y-176157671D01*
X95255908Y-176292517D01*
X95249501Y-176352116D01*
X95249501Y-176352123D01*
X95249500Y-176352135D01*
X95249500Y-177647870D01*
X95249501Y-177647876D01*
X95255908Y-177707483D01*
X95306202Y-177842328D01*
X95306206Y-177842335D01*
X95392452Y-177957544D01*
X95392455Y-177957547D01*
X95507664Y-178043793D01*
X95507671Y-178043797D01*
X95642517Y-178094091D01*
X95650062Y-178095874D01*
X95649296Y-178099113D01*
X95699848Y-178120052D01*
X95739696Y-178177444D01*
X95742190Y-178247269D01*
X95706538Y-178307358D01*
X95678339Y-178327088D01*
X95642442Y-178345378D01*
X95470540Y-178470272D01*
X95470535Y-178470276D01*
X95320276Y-178620535D01*
X95320272Y-178620540D01*
X95195379Y-178792442D01*
X95098904Y-178981782D01*
X95033242Y-179183870D01*
X95033242Y-179183873D01*
X95022769Y-179250000D01*
X92766393Y-179250000D01*
X94570480Y-177445913D01*
X94623207Y-177354587D01*
X94650500Y-177252727D01*
X94650500Y-161140539D01*
X94667112Y-161078540D01*
X94716392Y-160993186D01*
X94750500Y-160865892D01*
X94750500Y-160734108D01*
X94716392Y-160606814D01*
X94650500Y-160492686D01*
X94557314Y-160399500D01*
X94451547Y-160338435D01*
X94443187Y-160333608D01*
X94379539Y-160316554D01*
X94315892Y-160299500D01*
X94184108Y-160299500D01*
X94056812Y-160333608D01*
X93942686Y-160399500D01*
X93942683Y-160399502D01*
X93849502Y-160492683D01*
X93849500Y-160492686D01*
X93783608Y-160606812D01*
X93772170Y-160649500D01*
X93749500Y-160734108D01*
X93749500Y-160865892D01*
X93783608Y-160993186D01*
X93832887Y-161078540D01*
X93849500Y-161140539D01*
X93849500Y-176982745D01*
X93829815Y-177049784D01*
X93813181Y-177070426D01*
X87820426Y-183063181D01*
X87759103Y-183096666D01*
X87732745Y-183099500D01*
X83040540Y-183099500D01*
X82978540Y-183082887D01*
X82893188Y-183033609D01*
X82893187Y-183033608D01*
X82893186Y-183033608D01*
X82765892Y-182999500D01*
X82634108Y-182999500D01*
X82506812Y-183033608D01*
X82392686Y-183099500D01*
X82392683Y-183099502D01*
X82299502Y-183192683D01*
X82299500Y-183192686D01*
X82233608Y-183306812D01*
X82199500Y-183434108D01*
X81900500Y-183434108D01*
X81900500Y-179262729D01*
X81900501Y-179262716D01*
X81900501Y-179147276D01*
X81900501Y-179147274D01*
X81873207Y-179045413D01*
X81820480Y-178954087D01*
X81745913Y-178879520D01*
X81745912Y-178879519D01*
X81741582Y-178875189D01*
X81741571Y-178875179D01*
X62530055Y-159663662D01*
X62450501Y-159584108D01*
X76449500Y-159584108D01*
X76449500Y-159715891D01*
X76483608Y-159843187D01*
X76516554Y-159900250D01*
X76549500Y-159957314D01*
X80049500Y-163457314D01*
X80142686Y-163550500D01*
X80182016Y-163573207D01*
X80256814Y-163616392D01*
X80384107Y-163650500D01*
X80384108Y-163650500D01*
X89625500Y-163650500D01*
X89692539Y-163670185D01*
X89738294Y-163722989D01*
X89749500Y-163774500D01*
X89749500Y-165941324D01*
X89729815Y-166008363D01*
X89713181Y-166029005D01*
X88049502Y-167692683D01*
X88049500Y-167692686D01*
X87983608Y-167806812D01*
X87949500Y-167934108D01*
X87949500Y-168065891D01*
X87983608Y-168193187D01*
X88016554Y-168250250D01*
X88049500Y-168307314D01*
X88142686Y-168400500D01*
X88256814Y-168466392D01*
X88384108Y-168500500D01*
X88384110Y-168500500D01*
X88515890Y-168500500D01*
X88515892Y-168500500D01*
X88643186Y-168466392D01*
X88757314Y-168400500D01*
X90650499Y-166507315D01*
X90716392Y-166393186D01*
X90750500Y-166265893D01*
X90750500Y-166134108D01*
X90750500Y-163408676D01*
X90770185Y-163341637D01*
X90786819Y-163320995D01*
X91270995Y-162836819D01*
X91332318Y-162803334D01*
X91358676Y-162800500D01*
X92865890Y-162800500D01*
X92865892Y-162800500D01*
X92993186Y-162766392D01*
X93107314Y-162700500D01*
X93200500Y-162607314D01*
X93266392Y-162493186D01*
X93300500Y-162365892D01*
X93300500Y-162234108D01*
X93266392Y-162106814D01*
X93200500Y-161992686D01*
X93107314Y-161899500D01*
X93050250Y-161866554D01*
X92993187Y-161833608D01*
X92893188Y-161806814D01*
X92865892Y-161799500D01*
X91034108Y-161799500D01*
X90906812Y-161833608D01*
X90792686Y-161899500D01*
X90792683Y-161899502D01*
X90079005Y-162613181D01*
X90017682Y-162646666D01*
X89991324Y-162649500D01*
X80708676Y-162649500D01*
X80641637Y-162629815D01*
X80620995Y-162613181D01*
X77807814Y-159800000D01*
X82350000Y-159800000D01*
X96050000Y-159800000D01*
X96050000Y-146600000D01*
X82350000Y-146600000D01*
X82350000Y-159800000D01*
X77807814Y-159800000D01*
X77257316Y-159249502D01*
X77257314Y-159249500D01*
X77194408Y-159213181D01*
X77143187Y-159183608D01*
X77079539Y-159166554D01*
X77015892Y-159149500D01*
X76884108Y-159149500D01*
X76756812Y-159183608D01*
X76642686Y-159249500D01*
X76642683Y-159249502D01*
X76549502Y-159342683D01*
X76549500Y-159342686D01*
X76483608Y-159456812D01*
X76449500Y-159584108D01*
X62450501Y-159584108D01*
X60823993Y-157957600D01*
X60791900Y-157902014D01*
X60766392Y-157806814D01*
X60700500Y-157692686D01*
X60607314Y-157599500D01*
X60550250Y-157566554D01*
X60493187Y-157533608D01*
X60429539Y-157516554D01*
X60365892Y-157499500D01*
X60234108Y-157499500D01*
X60106812Y-157533608D01*
X59992686Y-157599500D01*
X59992683Y-157599502D01*
X59899502Y-157692683D01*
X59899500Y-157692686D01*
X59833608Y-157806812D01*
X59799500Y-157934108D01*
X59799500Y-158065891D01*
X59833608Y-158193187D01*
X59853011Y-158226793D01*
X59899500Y-158307314D01*
X59992686Y-158400500D01*
X60106814Y-158466392D01*
X60109795Y-158468113D01*
X60158011Y-158518680D01*
X60171234Y-158587287D01*
X60145266Y-158652152D01*
X60088351Y-158692680D01*
X60047795Y-158699500D01*
X59934108Y-158699500D01*
X59806812Y-158733608D01*
X59692686Y-158799500D01*
X59692683Y-158799502D01*
X59599502Y-158892683D01*
X59599500Y-158892686D01*
X59533608Y-159006812D01*
X59499500Y-159134108D01*
X57100500Y-159134108D01*
X57100500Y-155240539D01*
X57117112Y-155178540D01*
X57166392Y-155093186D01*
X57200500Y-154965892D01*
X57200500Y-154834108D01*
X57166392Y-154706814D01*
X57100500Y-154592686D01*
X57007314Y-154499500D01*
X56950250Y-154466554D01*
X56893187Y-154433608D01*
X56829539Y-154416554D01*
X56765892Y-154399500D01*
X56634108Y-154399500D01*
X56506812Y-154433608D01*
X56392686Y-154499500D01*
X56392683Y-154499502D01*
X56299498Y-154592687D01*
X56298370Y-154594158D01*
X56297102Y-154595083D01*
X56293753Y-154598433D01*
X56293230Y-154597910D01*
X56241940Y-154635356D01*
X56172193Y-154639506D01*
X56111275Y-154605289D01*
X56101630Y-154594158D01*
X56100501Y-154592687D01*
X56007316Y-154499502D01*
X56007314Y-154499500D01*
X55950250Y-154466554D01*
X55893187Y-154433608D01*
X55829539Y-154416554D01*
X55765892Y-154399500D01*
X55634108Y-154399500D01*
X55506812Y-154433608D01*
X55392686Y-154499500D01*
X55392683Y-154499502D01*
X55299502Y-154592683D01*
X55299500Y-154592686D01*
X55233608Y-154706812D01*
X55200000Y-154832241D01*
X55199500Y-154834108D01*
X55199500Y-154965892D01*
X55216554Y-155029539D01*
X55233608Y-155093187D01*
X55266554Y-155150250D01*
X55299500Y-155207314D01*
X55392686Y-155300500D01*
X55506814Y-155366392D01*
X55602014Y-155391900D01*
X55657600Y-155423993D01*
X55663181Y-155429574D01*
X55696666Y-155490897D01*
X55699500Y-155517255D01*
X55699500Y-166282744D01*
X55679815Y-166349783D01*
X55663181Y-166370425D01*
X42457600Y-179576005D01*
X42402014Y-179608098D01*
X42306815Y-179633607D01*
X42306814Y-179633607D01*
X42192686Y-179699500D01*
X42192683Y-179699502D01*
X42099502Y-179792683D01*
X42099500Y-179792686D01*
X42033608Y-179906812D01*
X42021207Y-179953096D01*
X41999500Y-180034108D01*
X12610934Y-180034108D01*
X12644338Y-180000704D01*
X12647448Y-179996422D01*
X12678928Y-179953096D01*
X12722560Y-179893039D01*
X12763734Y-179836369D01*
X12855953Y-179655380D01*
X12863027Y-179633608D01*
X12918722Y-179462197D01*
X12918722Y-179462196D01*
X12918723Y-179462193D01*
X12950500Y-179261565D01*
X12950500Y-179058435D01*
X12918723Y-178857807D01*
X12918722Y-178857803D01*
X12918722Y-178857802D01*
X12855954Y-178664622D01*
X12833490Y-178620535D01*
X12763734Y-178483631D01*
X12663288Y-178345378D01*
X12644343Y-178319302D01*
X12644339Y-178319297D01*
X12500702Y-178175660D01*
X12500697Y-178175656D01*
X12336372Y-178056268D01*
X12336371Y-178056267D01*
X12336369Y-178056266D01*
X12245874Y-178010156D01*
X12155377Y-177964045D01*
X11962196Y-177901277D01*
X11811722Y-177877444D01*
X11761565Y-177869500D01*
X10038435Y-177869500D01*
X9971559Y-177880092D01*
X9837805Y-177901277D01*
X9837802Y-177901277D01*
X9644622Y-177964045D01*
X9463627Y-178056268D01*
X9299302Y-178175656D01*
X9299297Y-178175660D01*
X9155660Y-178319297D01*
X9155656Y-178319302D01*
X9036268Y-178483627D01*
X8944045Y-178664622D01*
X8881277Y-178857802D01*
X8881277Y-178857805D01*
X8866027Y-178954087D01*
X8849500Y-179058435D01*
X250500Y-179058435D01*
X250500Y-173978435D01*
X8849500Y-173978435D01*
X8849500Y-174181564D01*
X8881277Y-174382194D01*
X8881277Y-174382197D01*
X8944045Y-174575377D01*
X9036268Y-174756372D01*
X9155656Y-174920697D01*
X9155660Y-174920702D01*
X9299297Y-175064339D01*
X9299302Y-175064343D01*
X9442635Y-175168480D01*
X9463631Y-175183734D01*
X9644620Y-175275953D01*
X9644622Y-175275954D01*
X9837803Y-175338722D01*
X9837804Y-175338722D01*
X9837807Y-175338723D01*
X10038435Y-175370500D01*
X10038436Y-175370500D01*
X11761564Y-175370500D01*
X11761565Y-175370500D01*
X11962193Y-175338723D01*
X11962196Y-175338722D01*
X11962197Y-175338722D01*
X12155377Y-175275954D01*
X12155377Y-175275953D01*
X12155380Y-175275953D01*
X12336369Y-175183734D01*
X12500704Y-175064338D01*
X12644338Y-174920704D01*
X12763734Y-174756369D01*
X12855953Y-174575380D01*
X12918723Y-174382193D01*
X12950500Y-174181565D01*
X12950500Y-173978435D01*
X12918723Y-173777807D01*
X12918722Y-173777803D01*
X12918722Y-173777802D01*
X12855954Y-173584622D01*
X12846411Y-173565893D01*
X12763734Y-173403631D01*
X12746193Y-173379488D01*
X12644343Y-173239302D01*
X12644339Y-173239297D01*
X12500702Y-173095660D01*
X12500697Y-173095656D01*
X12336372Y-172976268D01*
X12336371Y-172976267D01*
X12336369Y-172976266D01*
X12200055Y-172906810D01*
X12155377Y-172884045D01*
X11962196Y-172821277D01*
X11781680Y-172792686D01*
X11761565Y-172789500D01*
X10038435Y-172789500D01*
X10018320Y-172792686D01*
X9837805Y-172821277D01*
X9837802Y-172821277D01*
X9644622Y-172884045D01*
X9463627Y-172976268D01*
X9299302Y-173095656D01*
X9299297Y-173095660D01*
X9155660Y-173239297D01*
X9155656Y-173239302D01*
X9036268Y-173403627D01*
X8944045Y-173584622D01*
X8881277Y-173777802D01*
X8881277Y-173777805D01*
X8849500Y-173978435D01*
X250500Y-173978435D01*
X250500Y-168162134D01*
X8849500Y-168162134D01*
X8849500Y-169837865D01*
X8849501Y-169837884D01*
X8855908Y-169897481D01*
X8855910Y-169897488D01*
X8906202Y-170032328D01*
X8906203Y-170032330D01*
X8906204Y-170032331D01*
X8992453Y-170147547D01*
X9107669Y-170233796D01*
X9107671Y-170233797D01*
X9195696Y-170266628D01*
X9242516Y-170284091D01*
X9302126Y-170290500D01*
X9302135Y-170290500D01*
X12497865Y-170290500D01*
X12497874Y-170290500D01*
X12557484Y-170284091D01*
X12692331Y-170233796D01*
X12807547Y-170147547D01*
X12893796Y-170032331D01*
X12944091Y-169897484D01*
X12950500Y-169837874D01*
X12950500Y-168162126D01*
X12944091Y-168102516D01*
X12893796Y-167967669D01*
X12807547Y-167852453D01*
X12692331Y-167766204D01*
X12692330Y-167766203D01*
X12692328Y-167766202D01*
X12557488Y-167715910D01*
X12557481Y-167715908D01*
X12497884Y-167709501D01*
X12497882Y-167709500D01*
X12497874Y-167709500D01*
X9302126Y-167709500D01*
X9302118Y-167709500D01*
X9302115Y-167709501D01*
X9242518Y-167715908D01*
X9242511Y-167715910D01*
X9107671Y-167766202D01*
X9107669Y-167766203D01*
X8992453Y-167852453D01*
X8906203Y-167967669D01*
X8906202Y-167967671D01*
X8855910Y-168102511D01*
X8855908Y-168102518D01*
X8849501Y-168162115D01*
X8849500Y-168162134D01*
X250500Y-168162134D01*
X250500Y-155258435D01*
X8849500Y-155258435D01*
X8849500Y-155461564D01*
X8881277Y-155662194D01*
X8881277Y-155662197D01*
X8944045Y-155855377D01*
X9036268Y-156036372D01*
X9155656Y-156200697D01*
X9155660Y-156200702D01*
X9299297Y-156344339D01*
X9299302Y-156344343D01*
X9442635Y-156448480D01*
X9463631Y-156463734D01*
X9631959Y-156549502D01*
X9644622Y-156555954D01*
X9837803Y-156618722D01*
X9837804Y-156618722D01*
X9837807Y-156618723D01*
X10038435Y-156650500D01*
X10038436Y-156650500D01*
X11761564Y-156650500D01*
X11761565Y-156650500D01*
X11962193Y-156618723D01*
X11962196Y-156618722D01*
X11962197Y-156618722D01*
X12155377Y-156555954D01*
X12155377Y-156555953D01*
X12155380Y-156555953D01*
X12336369Y-156463734D01*
X12500704Y-156344338D01*
X12644338Y-156200704D01*
X12763734Y-156036369D01*
X12855953Y-155855380D01*
X12858942Y-155846182D01*
X12898380Y-155788506D01*
X12962738Y-155761308D01*
X12976873Y-155760500D01*
X18542745Y-155760500D01*
X18609784Y-155780185D01*
X18630426Y-155796819D01*
X24221427Y-161387819D01*
X24254912Y-161449142D01*
X24249928Y-161518834D01*
X24208056Y-161574767D01*
X24142592Y-161599184D01*
X24133746Y-161599500D01*
X12677255Y-161599500D01*
X12610216Y-161579815D01*
X12589574Y-161563181D01*
X12563398Y-161537005D01*
X12529913Y-161475682D01*
X12534897Y-161405990D01*
X12563394Y-161361647D01*
X12644338Y-161280704D01*
X12763734Y-161116369D01*
X12855953Y-160935380D01*
X12918723Y-160742193D01*
X12950500Y-160541565D01*
X12950500Y-160338435D01*
X12918723Y-160137807D01*
X12918722Y-160137803D01*
X12918722Y-160137802D01*
X12855954Y-159944622D01*
X12855953Y-159944620D01*
X12763734Y-159763631D01*
X12693086Y-159666392D01*
X12644343Y-159599302D01*
X12644339Y-159599297D01*
X12500702Y-159455660D01*
X12500697Y-159455656D01*
X12336372Y-159336268D01*
X12336371Y-159336267D01*
X12336369Y-159336266D01*
X12198253Y-159265892D01*
X12155377Y-159244045D01*
X11962196Y-159181277D01*
X11811722Y-159157444D01*
X11761565Y-159149500D01*
X10038435Y-159149500D01*
X9987295Y-159157600D01*
X9837805Y-159181277D01*
X9837802Y-159181277D01*
X9644622Y-159244045D01*
X9463627Y-159336268D01*
X9299302Y-159455656D01*
X9299297Y-159455660D01*
X9155660Y-159599297D01*
X9155656Y-159599302D01*
X9036268Y-159763627D01*
X8944045Y-159944622D01*
X8881277Y-160137802D01*
X8881277Y-160137805D01*
X8849500Y-160338435D01*
X8849500Y-160541564D01*
X8881277Y-160742194D01*
X8881277Y-160742197D01*
X8944045Y-160935377D01*
X8944047Y-160935380D01*
X9031652Y-161107314D01*
X9036268Y-161116372D01*
X9155656Y-161280697D01*
X9155660Y-161280702D01*
X9299297Y-161424339D01*
X9299302Y-161424343D01*
X9344686Y-161457316D01*
X9463631Y-161543734D01*
X9644620Y-161635953D01*
X9644622Y-161635954D01*
X9837803Y-161698722D01*
X9837804Y-161698722D01*
X9837807Y-161698723D01*
X10038435Y-161730500D01*
X11572745Y-161730500D01*
X11639784Y-161750185D01*
X11660426Y-161766819D01*
X12214087Y-162320480D01*
X12305412Y-162373207D01*
X12407273Y-162400500D01*
X38183746Y-162400500D01*
X38250785Y-162420185D01*
X38296540Y-162472989D01*
X38306484Y-162542147D01*
X38277459Y-162605703D01*
X38271427Y-162612181D01*
X24007600Y-176876005D01*
X23952014Y-176908098D01*
X23856815Y-176933607D01*
X23856814Y-176933607D01*
X23742686Y-176999500D01*
X23742683Y-176999502D01*
X23649502Y-177092683D01*
X23649500Y-177092686D01*
X23583608Y-177206812D01*
X23549500Y-177334108D01*
X23549500Y-177465892D01*
X23566554Y-177529539D01*
X23583608Y-177593187D01*
X23615176Y-177647864D01*
X23649500Y-177707314D01*
X23742686Y-177800500D01*
X23856814Y-177866392D01*
X23984108Y-177900500D01*
X23984110Y-177900500D01*
X24115890Y-177900500D01*
X24115892Y-177900500D01*
X24243186Y-177866392D01*
X24357314Y-177800500D01*
X24450500Y-177707314D01*
X24516392Y-177593186D01*
X24541900Y-177497986D01*
X24573992Y-177442399D01*
X32882284Y-169134108D01*
X43799500Y-169134108D01*
X43799500Y-169265892D01*
X43833608Y-169393186D01*
X43882887Y-169478540D01*
X43899500Y-169540539D01*
X43899500Y-172859460D01*
X43882887Y-172921460D01*
X43833609Y-173006810D01*
X43833609Y-173006811D01*
X43833608Y-173006813D01*
X43833608Y-173006814D01*
X43808773Y-173099500D01*
X43799500Y-173134108D01*
X43799500Y-173265891D01*
X43833608Y-173393187D01*
X43866554Y-173450250D01*
X43899500Y-173507314D01*
X43992686Y-173600500D01*
X44106814Y-173666392D01*
X44234108Y-173700500D01*
X44234110Y-173700500D01*
X44365890Y-173700500D01*
X44365892Y-173700500D01*
X44493186Y-173666392D01*
X44607314Y-173600500D01*
X44700500Y-173507314D01*
X44766392Y-173393186D01*
X44800500Y-173265892D01*
X44800500Y-173134108D01*
X44766392Y-173006814D01*
X44762169Y-172999500D01*
X44717113Y-172921460D01*
X44700500Y-172859460D01*
X44700500Y-169540539D01*
X44717112Y-169478540D01*
X44766392Y-169393186D01*
X44800500Y-169265892D01*
X44800500Y-169134108D01*
X45299500Y-169134108D01*
X45299500Y-169265892D01*
X45333608Y-169393186D01*
X45382887Y-169478540D01*
X45399500Y-169540539D01*
X45399500Y-172759460D01*
X45382887Y-172821460D01*
X45333609Y-172906810D01*
X45333609Y-172906811D01*
X45333608Y-172906813D01*
X45333608Y-172906814D01*
X45299500Y-173034108D01*
X45299500Y-173165892D01*
X45315142Y-173224270D01*
X45333608Y-173293187D01*
X45366554Y-173350250D01*
X45399500Y-173407314D01*
X45492686Y-173500500D01*
X45591521Y-173557563D01*
X45605949Y-173565893D01*
X45606814Y-173566392D01*
X45734108Y-173600500D01*
X45734110Y-173600500D01*
X45865890Y-173600500D01*
X45865892Y-173600500D01*
X45993186Y-173566392D01*
X46107314Y-173500500D01*
X46200500Y-173407314D01*
X46266392Y-173293186D01*
X46300500Y-173165892D01*
X46300500Y-173034108D01*
X46266392Y-172906814D01*
X46253247Y-172884047D01*
X46217113Y-172821460D01*
X46200500Y-172759460D01*
X46200500Y-169540539D01*
X46217112Y-169478540D01*
X46266392Y-169393186D01*
X46300500Y-169265892D01*
X46300500Y-169134108D01*
X46266392Y-169006814D01*
X46200500Y-168892686D01*
X46107314Y-168799500D01*
X46050250Y-168766554D01*
X45994053Y-168734108D01*
X48499500Y-168734108D01*
X48499500Y-168865892D01*
X48533608Y-168993186D01*
X48582887Y-169078540D01*
X48599500Y-169140539D01*
X48599500Y-171059460D01*
X48582887Y-171121460D01*
X48533609Y-171206810D01*
X48533609Y-171206811D01*
X48499500Y-171334108D01*
X48499500Y-171465891D01*
X48533608Y-171593187D01*
X48566554Y-171650250D01*
X48599500Y-171707314D01*
X48692686Y-171800500D01*
X48806814Y-171866392D01*
X48934108Y-171900500D01*
X48934110Y-171900500D01*
X49065890Y-171900500D01*
X49065892Y-171900500D01*
X49193186Y-171866392D01*
X49307314Y-171800500D01*
X49400500Y-171707314D01*
X49466392Y-171593186D01*
X49500500Y-171465892D01*
X49500500Y-171334108D01*
X49466392Y-171206814D01*
X49417113Y-171121460D01*
X49400500Y-171059460D01*
X49400500Y-169140539D01*
X49417112Y-169078540D01*
X49466392Y-168993186D01*
X49500500Y-168865892D01*
X49500500Y-168734108D01*
X49466392Y-168606814D01*
X49400500Y-168492686D01*
X49307314Y-168399500D01*
X49250250Y-168366554D01*
X49193187Y-168333608D01*
X49129539Y-168316554D01*
X49065892Y-168299500D01*
X48934108Y-168299500D01*
X48806812Y-168333608D01*
X48692686Y-168399500D01*
X48692683Y-168399502D01*
X48599502Y-168492683D01*
X48599500Y-168492686D01*
X48533608Y-168606812D01*
X48508773Y-168699500D01*
X48499500Y-168734108D01*
X45994053Y-168734108D01*
X45993187Y-168733608D01*
X45929539Y-168716554D01*
X45865892Y-168699500D01*
X45734108Y-168699500D01*
X45606812Y-168733608D01*
X45492686Y-168799500D01*
X45492683Y-168799502D01*
X45399502Y-168892683D01*
X45399500Y-168892686D01*
X45333608Y-169006812D01*
X45325171Y-169038300D01*
X45299500Y-169134108D01*
X44800500Y-169134108D01*
X44766392Y-169006814D01*
X44700500Y-168892686D01*
X44607314Y-168799500D01*
X44550250Y-168766554D01*
X44493187Y-168733608D01*
X44429539Y-168716554D01*
X44365892Y-168699500D01*
X44234108Y-168699500D01*
X44106812Y-168733608D01*
X43992686Y-168799500D01*
X43992683Y-168799502D01*
X43899502Y-168892683D01*
X43899500Y-168892686D01*
X43833608Y-169006812D01*
X43825171Y-169038300D01*
X43799500Y-169134108D01*
X32882284Y-169134108D01*
X38979573Y-163036819D01*
X39040896Y-163003334D01*
X39067254Y-163000500D01*
X40675695Y-163000500D01*
X40742734Y-163020185D01*
X40788489Y-163072989D01*
X40796430Y-163125981D01*
X40799500Y-163125981D01*
X40799500Y-163265891D01*
X40833608Y-163393187D01*
X40842551Y-163408676D01*
X40899500Y-163507314D01*
X40992686Y-163600500D01*
X41065626Y-163642612D01*
X41065628Y-163642613D01*
X41113843Y-163693180D01*
X41127065Y-163761788D01*
X41101097Y-163826652D01*
X41065628Y-163857386D01*
X41021459Y-163882888D01*
X40992686Y-163899500D01*
X40992683Y-163899502D01*
X40899502Y-163992683D01*
X40899500Y-163992686D01*
X40833608Y-164106812D01*
X40799500Y-164234108D01*
X40799500Y-164365891D01*
X40833608Y-164493187D01*
X40866554Y-164550250D01*
X40899500Y-164607314D01*
X40992686Y-164700500D01*
X41065626Y-164742612D01*
X41065628Y-164742613D01*
X41113843Y-164793180D01*
X41127065Y-164861788D01*
X41101097Y-164926652D01*
X41065628Y-164957386D01*
X41021459Y-164982888D01*
X40992686Y-164999500D01*
X40992683Y-164999502D01*
X40899502Y-165092683D01*
X40899500Y-165092686D01*
X40833608Y-165206812D01*
X40799500Y-165334108D01*
X40799500Y-165465891D01*
X40833608Y-165593187D01*
X40866554Y-165650250D01*
X40899500Y-165707314D01*
X40992686Y-165800500D01*
X41091521Y-165857563D01*
X41106810Y-165866390D01*
X41106814Y-165866392D01*
X41234108Y-165900500D01*
X41234110Y-165900500D01*
X41365890Y-165900500D01*
X41365892Y-165900500D01*
X41493186Y-165866392D01*
X41578540Y-165817113D01*
X41640540Y-165800500D01*
X46359460Y-165800500D01*
X46421460Y-165817113D01*
X46506814Y-165866392D01*
X46634108Y-165900500D01*
X46634110Y-165900500D01*
X46765890Y-165900500D01*
X46765892Y-165900500D01*
X46893186Y-165866392D01*
X47007314Y-165800500D01*
X47100500Y-165707314D01*
X47166392Y-165593186D01*
X47200500Y-165465892D01*
X47200500Y-165334108D01*
X47166392Y-165206814D01*
X47100500Y-165092686D01*
X47007314Y-164999500D01*
X46934371Y-164957386D01*
X46886156Y-164906820D01*
X46872933Y-164838213D01*
X46898901Y-164773348D01*
X46934372Y-164742613D01*
X46934374Y-164742612D01*
X47007314Y-164700500D01*
X47100500Y-164607314D01*
X47166392Y-164493186D01*
X47200500Y-164365892D01*
X47200500Y-164234108D01*
X47166392Y-164106814D01*
X47100500Y-163992686D01*
X47007314Y-163899500D01*
X46934371Y-163857386D01*
X46886156Y-163806820D01*
X46872933Y-163738213D01*
X46898901Y-163673348D01*
X46934372Y-163642613D01*
X46934374Y-163642612D01*
X47007314Y-163600500D01*
X47100500Y-163507314D01*
X47166392Y-163393186D01*
X47200500Y-163265892D01*
X47200500Y-163134108D01*
X47200500Y-163125981D01*
X47203659Y-163125981D01*
X47212131Y-163071652D01*
X47258510Y-163019395D01*
X47324305Y-163000500D01*
X52309460Y-163000500D01*
X52371460Y-163017113D01*
X52456814Y-163066392D01*
X52584108Y-163100500D01*
X52584110Y-163100500D01*
X52715890Y-163100500D01*
X52715892Y-163100500D01*
X52843186Y-163066392D01*
X52957314Y-163000500D01*
X53050500Y-162907314D01*
X53116392Y-162793186D01*
X53150500Y-162665892D01*
X53150500Y-162534108D01*
X53116392Y-162406814D01*
X53050500Y-162292686D01*
X52957314Y-162199500D01*
X52843186Y-162133608D01*
X52747983Y-162108098D01*
X52692397Y-162076005D01*
X49389682Y-158773289D01*
X49356197Y-158711966D01*
X49361181Y-158642274D01*
X49403053Y-158586341D01*
X49436023Y-158570325D01*
X49435682Y-158569500D01*
X49443183Y-158566392D01*
X49443186Y-158566392D01*
X49557314Y-158500500D01*
X49650500Y-158407314D01*
X49716392Y-158293186D01*
X49750500Y-158165892D01*
X49750500Y-158034108D01*
X49716392Y-157906814D01*
X49667113Y-157821460D01*
X49650500Y-157759460D01*
X49650500Y-145934108D01*
X54399500Y-145934108D01*
X54399500Y-150965891D01*
X54433608Y-151093187D01*
X54447867Y-151117884D01*
X54499500Y-151207314D01*
X54592686Y-151300500D01*
X54706814Y-151366392D01*
X54834108Y-151400500D01*
X54834110Y-151400500D01*
X54965890Y-151400500D01*
X54965892Y-151400500D01*
X55093186Y-151366392D01*
X55207314Y-151300500D01*
X55300500Y-151207314D01*
X55366392Y-151093186D01*
X55400500Y-150965892D01*
X55400500Y-145934108D01*
X55366392Y-145806814D01*
X55300500Y-145692686D01*
X55207314Y-145599500D01*
X55150250Y-145566554D01*
X55093187Y-145533608D01*
X55029539Y-145516554D01*
X54965892Y-145499500D01*
X54834108Y-145499500D01*
X54706812Y-145533608D01*
X54592686Y-145599500D01*
X54592683Y-145599502D01*
X54499502Y-145692683D01*
X54499500Y-145692686D01*
X54433608Y-145806812D01*
X54399500Y-145934108D01*
X49650500Y-145934108D01*
X49650500Y-143140539D01*
X49667112Y-143078540D01*
X49716392Y-142993186D01*
X49750500Y-142865892D01*
X49750500Y-142734108D01*
X49716392Y-142606814D01*
X49650500Y-142492686D01*
X49557314Y-142399500D01*
X49500250Y-142366554D01*
X49443187Y-142333608D01*
X49359404Y-142311159D01*
X49315892Y-142299500D01*
X49184108Y-142299500D01*
X49056812Y-142333608D01*
X48942686Y-142399500D01*
X48942683Y-142399502D01*
X48849502Y-142492683D01*
X48849500Y-142492686D01*
X48783608Y-142606812D01*
X48776294Y-142634110D01*
X48749500Y-142734108D01*
X48749500Y-142865892D01*
X48783608Y-142993186D01*
X48832887Y-143078540D01*
X48849500Y-143140539D01*
X48849500Y-157759460D01*
X48832887Y-157821460D01*
X48783609Y-157906810D01*
X48780500Y-157914318D01*
X48778764Y-157913599D01*
X48747786Y-157964404D01*
X48684934Y-157994922D01*
X48615560Y-157986616D01*
X48576710Y-157960317D01*
X47245915Y-156629522D01*
X47245913Y-156629520D01*
X47200250Y-156603156D01*
X47154589Y-156576793D01*
X47076810Y-156555953D01*
X47052727Y-156549500D01*
X47052726Y-156549500D01*
X45990540Y-156549500D01*
X45928540Y-156532887D01*
X45843188Y-156483609D01*
X45843187Y-156483608D01*
X45843186Y-156483608D01*
X45715892Y-156449500D01*
X45584108Y-156449500D01*
X45456812Y-156483608D01*
X45342686Y-156549500D01*
X45342683Y-156549502D01*
X45249502Y-156642683D01*
X45249500Y-156642686D01*
X45183608Y-156756812D01*
X45149500Y-156884108D01*
X45149500Y-157015891D01*
X45183608Y-157143187D01*
X45216554Y-157200250D01*
X45249500Y-157257314D01*
X45342686Y-157350500D01*
X45441521Y-157407563D01*
X45456810Y-157416390D01*
X45456814Y-157416392D01*
X45584108Y-157450500D01*
X45584110Y-157450500D01*
X45715890Y-157450500D01*
X45715892Y-157450500D01*
X45843186Y-157416392D01*
X45928540Y-157367113D01*
X45990540Y-157350500D01*
X46782745Y-157350500D01*
X46849784Y-157370185D01*
X46870426Y-157386819D01*
X49247238Y-159763631D01*
X51471427Y-161987819D01*
X51504912Y-162049142D01*
X51499928Y-162118834D01*
X51458056Y-162174767D01*
X51392592Y-162199184D01*
X51383746Y-162199500D01*
X47324305Y-162199500D01*
X47257266Y-162179815D01*
X47211511Y-162127011D01*
X47203570Y-162074019D01*
X47200500Y-162074019D01*
X47200500Y-161934110D01*
X47200500Y-161934108D01*
X47166392Y-161806814D01*
X47100500Y-161692686D01*
X47070495Y-161662681D01*
X47037010Y-161601358D01*
X47041994Y-161531666D01*
X47070495Y-161487319D01*
X47082132Y-161475682D01*
X47100500Y-161457314D01*
X47166392Y-161343186D01*
X47200500Y-161215892D01*
X47200500Y-161084108D01*
X47166392Y-160956814D01*
X47100500Y-160842686D01*
X47007314Y-160749500D01*
X46944408Y-160713181D01*
X46893187Y-160683608D01*
X46829539Y-160666554D01*
X46765892Y-160649500D01*
X46634108Y-160649500D01*
X46506814Y-160683608D01*
X46506813Y-160683608D01*
X46506811Y-160683609D01*
X46506810Y-160683609D01*
X46421460Y-160732887D01*
X46359460Y-160749500D01*
X24767254Y-160749500D01*
X24700215Y-160729815D01*
X24679573Y-160713181D01*
X19005915Y-155039522D01*
X19005914Y-155039521D01*
X19005913Y-155039520D01*
X18960250Y-155013156D01*
X18914589Y-154986793D01*
X18863657Y-154973146D01*
X18812727Y-154959500D01*
X18812726Y-154959500D01*
X12976873Y-154959500D01*
X12909834Y-154939815D01*
X12864079Y-154887011D01*
X12858942Y-154873818D01*
X12855954Y-154864622D01*
X12855953Y-154864619D01*
X12775545Y-154706812D01*
X12763734Y-154683631D01*
X12748480Y-154662635D01*
X12644343Y-154519302D01*
X12644339Y-154519297D01*
X12500702Y-154375660D01*
X12500697Y-154375656D01*
X12336372Y-154256268D01*
X12336371Y-154256267D01*
X12336369Y-154256266D01*
X12245874Y-154210156D01*
X12155377Y-154164045D01*
X11962196Y-154101277D01*
X11811722Y-154077444D01*
X11761565Y-154069500D01*
X10038435Y-154069500D01*
X9971559Y-154080092D01*
X9837805Y-154101277D01*
X9837802Y-154101277D01*
X9644622Y-154164045D01*
X9463627Y-154256268D01*
X9299302Y-154375656D01*
X9299297Y-154375660D01*
X9155660Y-154519297D01*
X9155656Y-154519302D01*
X9036268Y-154683627D01*
X8944045Y-154864622D01*
X8881277Y-155057802D01*
X8881277Y-155057805D01*
X8849500Y-155258435D01*
X250500Y-155258435D01*
X250500Y-149442134D01*
X8849500Y-149442134D01*
X8849500Y-151117865D01*
X8849501Y-151117884D01*
X8855908Y-151177481D01*
X8855910Y-151177488D01*
X8906202Y-151312328D01*
X8906203Y-151312330D01*
X8906204Y-151312331D01*
X8992453Y-151427547D01*
X9107669Y-151513796D01*
X9107671Y-151513797D01*
X9195696Y-151546628D01*
X9242516Y-151564091D01*
X9302126Y-151570500D01*
X9302135Y-151570500D01*
X12497865Y-151570500D01*
X12497874Y-151570500D01*
X12557484Y-151564091D01*
X12692331Y-151513796D01*
X12807547Y-151427547D01*
X12893796Y-151312331D01*
X12944091Y-151177484D01*
X12950500Y-151117874D01*
X12950500Y-150804500D01*
X12970185Y-150737461D01*
X13022989Y-150691706D01*
X13074500Y-150680500D01*
X15912745Y-150680500D01*
X15979784Y-150700185D01*
X16000426Y-150716819D01*
X25254087Y-159970480D01*
X25345412Y-160023207D01*
X25447273Y-160050500D01*
X25447275Y-160050500D01*
X38702725Y-160050500D01*
X38702727Y-160050500D01*
X38804588Y-160023207D01*
X38895913Y-159970480D01*
X39829574Y-159036819D01*
X39890897Y-159003334D01*
X39917255Y-159000500D01*
X45909460Y-159000500D01*
X45971460Y-159017113D01*
X46005592Y-159036819D01*
X46056814Y-159066392D01*
X46184108Y-159100500D01*
X46184110Y-159100500D01*
X46315890Y-159100500D01*
X46315892Y-159100500D01*
X46443186Y-159066392D01*
X46557314Y-159000500D01*
X46650500Y-158907314D01*
X46716392Y-158793186D01*
X46750500Y-158665892D01*
X46750500Y-158534108D01*
X46716392Y-158406814D01*
X46650500Y-158292686D01*
X46557314Y-158199500D01*
X46499100Y-158165890D01*
X46443187Y-158133608D01*
X46379539Y-158116554D01*
X46315892Y-158099500D01*
X46184108Y-158099500D01*
X46056814Y-158133608D01*
X46056813Y-158133608D01*
X46056811Y-158133609D01*
X46056810Y-158133609D01*
X45971460Y-158182887D01*
X45909460Y-158199500D01*
X39647273Y-158199500D01*
X39545410Y-158226793D01*
X39454087Y-158279520D01*
X39454084Y-158279522D01*
X38711681Y-159021926D01*
X38650358Y-159055411D01*
X38580666Y-159050427D01*
X38524733Y-159008555D01*
X38500316Y-158943091D01*
X38500000Y-158934245D01*
X38500000Y-155250000D01*
X35050000Y-155250000D01*
X35050000Y-159125500D01*
X35030315Y-159192539D01*
X34977511Y-159238294D01*
X34926000Y-159249500D01*
X25717255Y-159249500D01*
X25650216Y-159229815D01*
X25629574Y-159213181D01*
X19416393Y-153000000D01*
X36750000Y-153000000D01*
X39050000Y-153000000D01*
X39050000Y-149000000D01*
X36750000Y-149000000D01*
X36750000Y-153000000D01*
X19416393Y-153000000D01*
X16375915Y-149959522D01*
X16375913Y-149959520D01*
X16330250Y-149933156D01*
X16284589Y-149906793D01*
X16233657Y-149893146D01*
X16182727Y-149879500D01*
X16182726Y-149879500D01*
X13074500Y-149879500D01*
X13007461Y-149859815D01*
X12961706Y-149807011D01*
X12950500Y-149755500D01*
X12950500Y-149442134D01*
X12950500Y-149442126D01*
X12944091Y-149382516D01*
X12893796Y-149247669D01*
X12807547Y-149132453D01*
X12692331Y-149046204D01*
X12692328Y-149046203D01*
X12692327Y-149046202D01*
X12692328Y-149046202D01*
X12557488Y-148995910D01*
X12557481Y-148995908D01*
X12497884Y-148989501D01*
X12497882Y-148989500D01*
X12497874Y-148989500D01*
X9302126Y-148989500D01*
X9302118Y-148989500D01*
X9302115Y-148989501D01*
X9242518Y-148995908D01*
X9242511Y-148995910D01*
X9107671Y-149046202D01*
X9107669Y-149046203D01*
X8992453Y-149132453D01*
X8906203Y-149247669D01*
X8906202Y-149247671D01*
X8855910Y-149382511D01*
X8855908Y-149382518D01*
X8849501Y-149442115D01*
X8849500Y-149442134D01*
X250500Y-149442134D01*
X250500Y-141470000D01*
X8620400Y-141470000D01*
X10245879Y-141470000D01*
X10226901Y-141515818D01*
X10200000Y-141651056D01*
X10200000Y-141788944D01*
X10226901Y-141924182D01*
X10245879Y-141970000D01*
X8620400Y-141970000D01*
X8637919Y-142080618D01*
X8712827Y-142311159D01*
X8822874Y-142527136D01*
X8965356Y-142723245D01*
X9136754Y-142894643D01*
X9332863Y-143037125D01*
X9548840Y-143147172D01*
X9779381Y-143222079D01*
X10018800Y-143260000D01*
X10650000Y-143260000D01*
X10650000Y-142374120D01*
X10695818Y-142393099D01*
X10831056Y-142420000D01*
X10968944Y-142420000D01*
X11104182Y-142393099D01*
X11150000Y-142374120D01*
X11150000Y-143260000D01*
X11781200Y-143260000D01*
X12020618Y-143222079D01*
X12251159Y-143147172D01*
X12467136Y-143037125D01*
X12663245Y-142894643D01*
X12834643Y-142723245D01*
X12977125Y-142527136D01*
X13087172Y-142311159D01*
X13162080Y-142080618D01*
X13179600Y-141970000D01*
X11554121Y-141970000D01*
X11573099Y-141924182D01*
X11600000Y-141788944D01*
X11600000Y-141651056D01*
X11573099Y-141515818D01*
X11554121Y-141470000D01*
X13179600Y-141470000D01*
X13162080Y-141359381D01*
X13087172Y-141128840D01*
X12977125Y-140912863D01*
X12834643Y-140716754D01*
X12663245Y-140545356D01*
X12467136Y-140402874D01*
X12251159Y-140292827D01*
X12020618Y-140217920D01*
X11781200Y-140180000D01*
X11150000Y-140180000D01*
X11150000Y-141065879D01*
X11104182Y-141046901D01*
X10968944Y-141020000D01*
X10831056Y-141020000D01*
X10695818Y-141046901D01*
X10650000Y-141065879D01*
X10650000Y-140180000D01*
X10018800Y-140180000D01*
X9779381Y-140217920D01*
X9548840Y-140292827D01*
X9332863Y-140402874D01*
X9136754Y-140545356D01*
X8965356Y-140716754D01*
X8822874Y-140912863D01*
X8712827Y-141128840D01*
X8637919Y-141359381D01*
X8620400Y-141470000D01*
X250500Y-141470000D01*
X250500Y-135802134D01*
X8849500Y-135802134D01*
X8849500Y-137477865D01*
X8849501Y-137477884D01*
X8855908Y-137537481D01*
X8855910Y-137537488D01*
X8906202Y-137672328D01*
X8906203Y-137672330D01*
X8906204Y-137672331D01*
X8992453Y-137787547D01*
X9107669Y-137873796D01*
X9107671Y-137873797D01*
X9195696Y-137906628D01*
X9242516Y-137924091D01*
X9302126Y-137930500D01*
X9302135Y-137930500D01*
X12497865Y-137930500D01*
X12497874Y-137930500D01*
X12557484Y-137924091D01*
X12692331Y-137873796D01*
X12807547Y-137787547D01*
X12893796Y-137672331D01*
X12944091Y-137537484D01*
X12950500Y-137477874D01*
X12950500Y-135802126D01*
X12944091Y-135742516D01*
X12893796Y-135607669D01*
X12807547Y-135492453D01*
X12692331Y-135406204D01*
X12692330Y-135406203D01*
X12692328Y-135406202D01*
X12557488Y-135355910D01*
X12557481Y-135355908D01*
X12497884Y-135349501D01*
X12497882Y-135349500D01*
X12497874Y-135349500D01*
X9302126Y-135349500D01*
X9302118Y-135349500D01*
X9302115Y-135349501D01*
X9242518Y-135355908D01*
X9242511Y-135355910D01*
X9107671Y-135406202D01*
X9107669Y-135406203D01*
X8992453Y-135492453D01*
X8906203Y-135607669D01*
X8906202Y-135607671D01*
X8855910Y-135742511D01*
X8855908Y-135742518D01*
X8849501Y-135802115D01*
X8849500Y-135802134D01*
X250500Y-135802134D01*
X250500Y-127830000D01*
X8620400Y-127830000D01*
X10245879Y-127830000D01*
X10226901Y-127875818D01*
X10200000Y-128011056D01*
X10200000Y-128148944D01*
X10226901Y-128284182D01*
X10245879Y-128330000D01*
X8620400Y-128330000D01*
X8637919Y-128440618D01*
X8712827Y-128671159D01*
X8822874Y-128887136D01*
X8965356Y-129083245D01*
X9136754Y-129254643D01*
X9332863Y-129397125D01*
X9548840Y-129507172D01*
X9779381Y-129582079D01*
X10018800Y-129620000D01*
X10650000Y-129620000D01*
X10650000Y-128734120D01*
X10695818Y-128753099D01*
X10831056Y-128780000D01*
X10968944Y-128780000D01*
X11104182Y-128753099D01*
X11150000Y-128734120D01*
X11150000Y-129620000D01*
X11781200Y-129620000D01*
X12020618Y-129582079D01*
X12251159Y-129507172D01*
X12467136Y-129397125D01*
X12663245Y-129254643D01*
X12834643Y-129083245D01*
X12977125Y-128887136D01*
X13087172Y-128671159D01*
X13162080Y-128440618D01*
X13179600Y-128330000D01*
X11554121Y-128330000D01*
X11573099Y-128284182D01*
X11600000Y-128148944D01*
X11600000Y-128011056D01*
X11573099Y-127875818D01*
X11554121Y-127830000D01*
X13179600Y-127830000D01*
X13166198Y-127745379D01*
X13164412Y-127734108D01*
X15499500Y-127734108D01*
X15499500Y-139815891D01*
X15533608Y-139943187D01*
X15566554Y-140000250D01*
X15599500Y-140057314D01*
X15692686Y-140150500D01*
X15806814Y-140216392D01*
X15934108Y-140250500D01*
X15934110Y-140250500D01*
X16065890Y-140250500D01*
X16065892Y-140250500D01*
X16193186Y-140216392D01*
X16307314Y-140150500D01*
X16400500Y-140057314D01*
X16466392Y-139943186D01*
X16500500Y-139815892D01*
X16500500Y-128058676D01*
X16520185Y-127991637D01*
X16536819Y-127970995D01*
X17970995Y-126536819D01*
X18032318Y-126503334D01*
X18058676Y-126500500D01*
X26141324Y-126500500D01*
X26208363Y-126520185D01*
X26229005Y-126536819D01*
X42563181Y-142870995D01*
X42596666Y-142932318D01*
X42599500Y-142958676D01*
X42599500Y-148565891D01*
X42633608Y-148693187D01*
X42666554Y-148750250D01*
X42699500Y-148807314D01*
X42792686Y-148900500D01*
X42906814Y-148966392D01*
X43034108Y-149000500D01*
X43034110Y-149000500D01*
X43165890Y-149000500D01*
X43165892Y-149000500D01*
X43293186Y-148966392D01*
X43407314Y-148900500D01*
X43500500Y-148807314D01*
X43566392Y-148693186D01*
X43600500Y-148565892D01*
X43600500Y-142634108D01*
X43566392Y-142506814D01*
X43500500Y-142392686D01*
X43407314Y-142299500D01*
X35291922Y-134184108D01*
X70149500Y-134184108D01*
X70149500Y-134315891D01*
X70183608Y-134443187D01*
X70216554Y-134500250D01*
X70249500Y-134557314D01*
X70342686Y-134650500D01*
X70456814Y-134716392D01*
X70552014Y-134741900D01*
X70607600Y-134773993D01*
X73476005Y-137642398D01*
X73508099Y-137697985D01*
X73533608Y-137793186D01*
X73599500Y-137907314D01*
X73692686Y-138000500D01*
X73806814Y-138066392D01*
X73934108Y-138100500D01*
X73934110Y-138100500D01*
X74065890Y-138100500D01*
X74065892Y-138100500D01*
X74193186Y-138066392D01*
X74307314Y-138000500D01*
X74400500Y-137907314D01*
X74466392Y-137793186D01*
X74500500Y-137665892D01*
X74500500Y-137534108D01*
X74466392Y-137406814D01*
X74400500Y-137292686D01*
X74307314Y-137199500D01*
X74193186Y-137133608D01*
X74097985Y-137108099D01*
X74042398Y-137076005D01*
X71173993Y-134207600D01*
X71141900Y-134152014D01*
X71116392Y-134056814D01*
X71050500Y-133942686D01*
X70957314Y-133849500D01*
X70900250Y-133816554D01*
X70843187Y-133783608D01*
X70779539Y-133766554D01*
X70715892Y-133749500D01*
X70584108Y-133749500D01*
X70456812Y-133783608D01*
X70342686Y-133849500D01*
X70342683Y-133849502D01*
X70249502Y-133942683D01*
X70249500Y-133942686D01*
X70183608Y-134056812D01*
X70149500Y-134184108D01*
X35291922Y-134184108D01*
X26707314Y-125599500D01*
X26650250Y-125566554D01*
X26593187Y-125533608D01*
X26529539Y-125516554D01*
X26465892Y-125499500D01*
X17865892Y-125499500D01*
X17734107Y-125499500D01*
X17606812Y-125533608D01*
X17492686Y-125599500D01*
X17492683Y-125599502D01*
X15599502Y-127492683D01*
X15599500Y-127492686D01*
X15533608Y-127606812D01*
X15499500Y-127734108D01*
X13164412Y-127734108D01*
X13162079Y-127719380D01*
X13087172Y-127488840D01*
X12977125Y-127272863D01*
X12834643Y-127076754D01*
X12663245Y-126905356D01*
X12467136Y-126762874D01*
X12251159Y-126652827D01*
X12020618Y-126577920D01*
X11781200Y-126540000D01*
X11150000Y-126540000D01*
X11150000Y-127425879D01*
X11104182Y-127406901D01*
X10968944Y-127380000D01*
X10831056Y-127380000D01*
X10695818Y-127406901D01*
X10650000Y-127425879D01*
X10650000Y-126540000D01*
X10018800Y-126540000D01*
X9779381Y-126577920D01*
X9548840Y-126652827D01*
X9332863Y-126762874D01*
X9136754Y-126905356D01*
X8965356Y-127076754D01*
X8822874Y-127272863D01*
X8712827Y-127488840D01*
X8637919Y-127719381D01*
X8620400Y-127830000D01*
X250500Y-127830000D01*
X250500Y-122162134D01*
X8849500Y-122162134D01*
X8849500Y-123837865D01*
X8849501Y-123837884D01*
X8855908Y-123897481D01*
X8855910Y-123897488D01*
X8906202Y-124032328D01*
X8906203Y-124032330D01*
X8906204Y-124032331D01*
X8992453Y-124147547D01*
X9107669Y-124233796D01*
X9107671Y-124233797D01*
X9195696Y-124266628D01*
X9242516Y-124284091D01*
X9302126Y-124290500D01*
X9302135Y-124290500D01*
X12497865Y-124290500D01*
X12497874Y-124290500D01*
X12557484Y-124284091D01*
X12692331Y-124233796D01*
X12807547Y-124147547D01*
X12893796Y-124032331D01*
X12944091Y-123897484D01*
X12950500Y-123837874D01*
X12950500Y-122162126D01*
X12944091Y-122102516D01*
X12893796Y-121967669D01*
X12807547Y-121852453D01*
X12692331Y-121766204D01*
X12692330Y-121766203D01*
X12692328Y-121766202D01*
X12557488Y-121715910D01*
X12557481Y-121715908D01*
X12497884Y-121709501D01*
X12497882Y-121709500D01*
X12497874Y-121709500D01*
X9302126Y-121709500D01*
X9302118Y-121709500D01*
X9302115Y-121709501D01*
X9242518Y-121715908D01*
X9242511Y-121715910D01*
X9107671Y-121766202D01*
X9107669Y-121766203D01*
X8992453Y-121852453D01*
X8906203Y-121967669D01*
X8906202Y-121967671D01*
X8855910Y-122102511D01*
X8855908Y-122102518D01*
X8849501Y-122162115D01*
X8849500Y-122162134D01*
X250500Y-122162134D01*
X250500Y-118325013D01*
X69850000Y-118325013D01*
X69850000Y-118850000D01*
X70795854Y-118850000D01*
X70757370Y-118916657D01*
X70725000Y-119037465D01*
X70725000Y-119162535D01*
X70757370Y-119283343D01*
X70795854Y-119350000D01*
X69850001Y-119350000D01*
X69850001Y-119874986D01*
X69860494Y-119977697D01*
X69915641Y-120144119D01*
X69915643Y-120144124D01*
X70007684Y-120293345D01*
X70131654Y-120417315D01*
X70280875Y-120509356D01*
X70280880Y-120509358D01*
X70447302Y-120564505D01*
X70447309Y-120564506D01*
X70550019Y-120574999D01*
X70949999Y-120574999D01*
X70950000Y-120574998D01*
X70950000Y-119504145D01*
X71016657Y-119542630D01*
X71137465Y-119575000D01*
X71262535Y-119575000D01*
X71383343Y-119542630D01*
X71450000Y-119504145D01*
X71450000Y-120574999D01*
X71849972Y-120574999D01*
X71849986Y-120574998D01*
X71952697Y-120564505D01*
X72119119Y-120509358D01*
X72119124Y-120509356D01*
X72268345Y-120417315D01*
X72392315Y-120293345D01*
X72484356Y-120144124D01*
X72484358Y-120144119D01*
X72539505Y-119977697D01*
X72539506Y-119977689D01*
X72549318Y-119881652D01*
X72575714Y-119816960D01*
X72632895Y-119776809D01*
X72702706Y-119773945D01*
X72762982Y-119809279D01*
X72772991Y-119821365D01*
X72860586Y-119941928D01*
X72983072Y-120064414D01*
X73123212Y-120166232D01*
X73277555Y-120244873D01*
X73442299Y-120298402D01*
X73613389Y-120325500D01*
X73613390Y-120325500D01*
X73786610Y-120325500D01*
X73786611Y-120325500D01*
X73957701Y-120298402D01*
X74122445Y-120244873D01*
X74276788Y-120166232D01*
X74416928Y-120064414D01*
X74539414Y-119941928D01*
X74641232Y-119801788D01*
X74719873Y-119647445D01*
X74773402Y-119482701D01*
X74800500Y-119311611D01*
X74800500Y-118888389D01*
X75099500Y-118888389D01*
X75099500Y-119311611D01*
X75126598Y-119482701D01*
X75180127Y-119647445D01*
X75258768Y-119801788D01*
X75360586Y-119941928D01*
X75483072Y-120064414D01*
X75623212Y-120166232D01*
X75777555Y-120244873D01*
X75942299Y-120298402D01*
X76113389Y-120325500D01*
X76113390Y-120325500D01*
X76286610Y-120325500D01*
X76286611Y-120325500D01*
X76457701Y-120298402D01*
X76622445Y-120244873D01*
X76776788Y-120166232D01*
X76916928Y-120064414D01*
X77039414Y-119941928D01*
X77141232Y-119801788D01*
X77219873Y-119647445D01*
X77273402Y-119482701D01*
X77300500Y-119311611D01*
X77300500Y-118888389D01*
X77599500Y-118888389D01*
X77599500Y-119311611D01*
X77626598Y-119482701D01*
X77680127Y-119647445D01*
X77758768Y-119801788D01*
X77860586Y-119941928D01*
X77983072Y-120064414D01*
X78123212Y-120166232D01*
X78277555Y-120244873D01*
X78442299Y-120298402D01*
X78613389Y-120325500D01*
X78613390Y-120325500D01*
X78786610Y-120325500D01*
X78786611Y-120325500D01*
X78957701Y-120298402D01*
X79122445Y-120244873D01*
X79276788Y-120166232D01*
X79416928Y-120064414D01*
X79539414Y-119941928D01*
X79641232Y-119801788D01*
X79719873Y-119647445D01*
X79773402Y-119482701D01*
X79800500Y-119311611D01*
X79800500Y-118888389D01*
X79773402Y-118717299D01*
X79719873Y-118552555D01*
X79641232Y-118398212D01*
X79539414Y-118258072D01*
X79416928Y-118135586D01*
X79276788Y-118033768D01*
X79122445Y-117955127D01*
X78957701Y-117901598D01*
X78957699Y-117901597D01*
X78957698Y-117901597D01*
X78826271Y-117880781D01*
X78786611Y-117874500D01*
X78613389Y-117874500D01*
X78573728Y-117880781D01*
X78442302Y-117901597D01*
X78277552Y-117955128D01*
X78123211Y-118033768D01*
X78043256Y-118091859D01*
X77983072Y-118135586D01*
X77983070Y-118135588D01*
X77983069Y-118135588D01*
X77860588Y-118258069D01*
X77860588Y-118258070D01*
X77860586Y-118258072D01*
X77860582Y-118258078D01*
X77758768Y-118398211D01*
X77680128Y-118552552D01*
X77626597Y-118717302D01*
X77626185Y-118719905D01*
X77599500Y-118888389D01*
X77300500Y-118888389D01*
X77273402Y-118717299D01*
X77219873Y-118552555D01*
X77141232Y-118398212D01*
X77039414Y-118258072D01*
X76916928Y-118135586D01*
X76776788Y-118033768D01*
X76622445Y-117955127D01*
X76457701Y-117901598D01*
X76457699Y-117901597D01*
X76457698Y-117901597D01*
X76326271Y-117880781D01*
X76286611Y-117874500D01*
X76113389Y-117874500D01*
X76073728Y-117880781D01*
X75942302Y-117901597D01*
X75777552Y-117955128D01*
X75623211Y-118033768D01*
X75543256Y-118091859D01*
X75483072Y-118135586D01*
X75483070Y-118135588D01*
X75483069Y-118135588D01*
X75360588Y-118258069D01*
X75360588Y-118258070D01*
X75360586Y-118258072D01*
X75360582Y-118258078D01*
X75258768Y-118398211D01*
X75180128Y-118552552D01*
X75126597Y-118717302D01*
X75126185Y-118719905D01*
X75099500Y-118888389D01*
X74800500Y-118888389D01*
X74773402Y-118717299D01*
X74719873Y-118552555D01*
X74641232Y-118398212D01*
X74539414Y-118258072D01*
X74416928Y-118135586D01*
X74276788Y-118033768D01*
X74122445Y-117955127D01*
X73957701Y-117901598D01*
X73957699Y-117901597D01*
X73957698Y-117901597D01*
X73826271Y-117880781D01*
X73786611Y-117874500D01*
X73613389Y-117874500D01*
X73573728Y-117880781D01*
X73442302Y-117901597D01*
X73277552Y-117955128D01*
X73123211Y-118033768D01*
X73043256Y-118091859D01*
X72983072Y-118135586D01*
X72983070Y-118135588D01*
X72983069Y-118135588D01*
X72860588Y-118258069D01*
X72860581Y-118258078D01*
X72772992Y-118378632D01*
X72717662Y-118421298D01*
X72648049Y-118427276D01*
X72586254Y-118394670D01*
X72551897Y-118333831D01*
X72549317Y-118318347D01*
X72539506Y-118222303D01*
X72484358Y-118055880D01*
X72484356Y-118055875D01*
X72392315Y-117906654D01*
X72268345Y-117782684D01*
X72119124Y-117690643D01*
X72119119Y-117690641D01*
X71952697Y-117635494D01*
X71952690Y-117635493D01*
X71849986Y-117625000D01*
X71450000Y-117625000D01*
X71450000Y-118695854D01*
X71383343Y-118657370D01*
X71262535Y-118625000D01*
X71137465Y-118625000D01*
X71016657Y-118657370D01*
X70950000Y-118695854D01*
X70950000Y-117625000D01*
X70550028Y-117625000D01*
X70550012Y-117625001D01*
X70447302Y-117635494D01*
X70280880Y-117690641D01*
X70280875Y-117690643D01*
X70131654Y-117782684D01*
X70007684Y-117906654D01*
X69915643Y-118055875D01*
X69915641Y-118055880D01*
X69860494Y-118222302D01*
X69860493Y-118222309D01*
X69850000Y-118325013D01*
X250500Y-118325013D01*
X250500Y-112503750D01*
X250726Y-112496263D01*
X266448Y-112236339D01*
X268253Y-112221475D01*
X314515Y-111969026D01*
X318095Y-111954505D01*
X394451Y-111709471D01*
X399753Y-111695489D01*
X505095Y-111461430D01*
X512040Y-111448197D01*
X644826Y-111228542D01*
X653313Y-111216246D01*
X811608Y-111014198D01*
X821523Y-111003007D01*
X1003007Y-110821523D01*
X1014198Y-110811608D01*
X1216246Y-110653313D01*
X1228542Y-110644826D01*
X1448197Y-110512040D01*
X1461430Y-110505095D01*
X1695489Y-110399753D01*
X1709471Y-110394451D01*
X1954505Y-110318095D01*
X1969026Y-110314515D01*
X2221476Y-110268252D01*
X2236335Y-110266448D01*
X2496264Y-110250726D01*
X2503751Y-110250500D01*
X2544170Y-110250500D01*
X97455830Y-110250500D01*
X97496249Y-110250500D01*
X97503736Y-110250726D01*
G37*
%TD.AperFunction*%
%TD*%
M02*
