M48
; DRILL file KiCad 10.0.5 date 2026-08-21T14:51:44
; FORMAT={-:-/ absolute / metric / decimal}
; #@! TF.CreationDate,2026-08-21T14:51:44+08:00
; #@! TF.GenerationSoftware,Kicad,Pcbnew,10.0.5
; #@! TF.FileFunction,Plated,1,2,PTH
FMAT,2
METRIC
; #@! TA.AperFunction,Plated,PTH,ViaDrill
T1C0.300
; #@! TA.AperFunction,Plated,PTH,ComponentDrill
T2C0.950
; #@! TA.AperFunction,Plated,PTH,ComponentDrill
T3C1.000
; #@! TA.AperFunction,Plated,PTH,ComponentDrill
T4C1.400
; #@! TA.AperFunction,Plated,PTH,ComponentDrill
T5C2.200
%
G90
G05
T1
X12.0Y-196.1
X12.25Y-191.6
X12.75Y-187.7
X14.1Y-122.05
X14.15Y-124.25
X14.4Y-160.6
X14.45Y-195.55
X14.55Y-135.6
X14.55Y-190.1
X14.6Y-137.75
X14.6Y-178.95
X14.7Y-156.65
X14.7Y-171.4
X14.7Y-175.25
X14.75Y-163.25
X14.85Y-140.15
X14.95Y-148.65
X15.0Y-154.0
X15.65Y-167.15
X16.0Y-139.75
X16.25Y-184.3
X17.3Y-139.95
X17.4Y-123.2
X17.65Y-188.6
X17.65Y-195.65
X17.75Y-192.1
X17.8Y-126.0
X18.05Y-154.15
X18.1Y-169.25
X18.25Y-137.35
X18.35Y-157.1
X18.75Y-175.2
X18.9Y-184.85
X19.1Y-141.5
X19.15Y-124.95
X19.3Y-127.7
X19.35Y-151.25
X19.85Y-170.3
X19.9Y-196.0
X20.0Y-192.15
X20.05Y-186.55
X20.45Y-163.5
X21.1Y-140.25
X21.2Y-129.6
X21.35Y-127.05
X21.45Y-143.75
X21.7Y-160.75
X21.95Y-157.4
X22.2Y-177.35
X22.8Y-164.75
X22.85Y-154.7
X23.4Y-142.3
X23.45Y-145.7
X23.55Y-129.05
X23.6Y-131.8
X24.05Y-177.4
X24.35Y-169.7
X24.4Y-184.25
X24.9Y-165.8
X25.1Y-147.2
X25.25Y-133.75
X25.25Y-144.15
X25.35Y-173.2
X25.6Y-160.4
X25.7Y-158.2
X25.85Y-131.2
X26.0Y-127.0
X26.15Y-124.95
X26.2Y-177.45
X26.4Y-126.0
X26.7Y-148.55
X26.8Y-182.25
X26.9Y-128.5
X26.95Y-145.9
X27.1Y-190.9
X27.2Y-188.2
X27.35Y-135.9
X27.55Y-166.9
X28.3Y-133.6
X28.45Y-147.65
X28.45Y-175.4
X28.5Y-150.3
X29.1Y-182.25
X29.3Y-158.3
X29.35Y-160.4
X29.45Y-155.15
X29.5Y-152.55
X29.55Y-138.1
X29.6Y-131.1
X29.6Y-141.2
X29.6Y-143.8
X29.75Y-146.65
X29.8Y-188.2
X29.85Y-148.7
X29.95Y-169.15
X30.4Y-135.55
X31.0Y-184.55
X31.05Y-126.3
X31.75Y-152.75
X31.8Y-150.55
X31.85Y-177.85
X31.9Y-137.6
X31.9Y-139.75
X31.9Y-141.7
X31.9Y-155.1
X31.9Y-158.3
X31.95Y-145.9
X31.95Y-148.3
X32.05Y-143.85
X32.2Y-171.45
X32.4Y-182.4
X32.8Y-195.4
X33.05Y-189.3
X33.3Y-134.8
X33.4Y-166.5
X33.9Y-160.2
X34.4Y-179.3
X34.45Y-185.45
X34.7Y-182.95
X34.75Y-180.8
X35.05Y-130.0
X35.9Y-188.15
X35.9Y-195.85
X36.0Y-192.45
X36.4Y-173.15
X36.5Y-167.05
X36.9Y-138.55
X38.05Y-154.9
X38.9Y-193.5
X39.25Y-153.65
X39.4Y-179.3
X39.55Y-157.65
X39.6Y-160.0
X39.75Y-134.3
X39.85Y-149.85
X39.9Y-156.35
X40.2Y-123.55
X40.3Y-154.25
X40.45Y-141.85
X40.5Y-166.55
X40.55Y-144.35
X40.55Y-147.9
X40.65Y-184.3
X40.9Y-182.55
X41.1Y-180.75
X41.3Y-163.2
X41.3Y-164.3
X41.3Y-165.4
X42.25Y-195.9
X42.3Y-143.4
X42.4Y-147.25
X42.4Y-173.05
X42.5Y-180.1
X42.7Y-166.6
X42.85Y-160.05
X43.1Y-148.5
X43.15Y-151.95
X43.3Y-122.65
X43.5Y-180.1
X43.55Y-177.3
X43.95Y-182.1
X44.3Y-169.2
X44.3Y-173.2
X44.95Y-150.95
X45.0Y-160.15
X45.1Y-127.45
X45.3Y-121.75
X45.3Y-132.95
X45.5Y-140.45
X45.65Y-156.95
X45.65Y-180.25
X45.7Y-144.5
X45.8Y-169.2
X45.8Y-173.1
X46.05Y-125.15
X46.25Y-158.6
X46.7Y-161.15
X46.7Y-162.0
X46.7Y-163.2
X46.7Y-164.3
X46.7Y-165.4
X46.95Y-153.1
X46.95Y-155.25
X47.3Y-173.15
X47.95Y-178.0
X48.05Y-166.7
X48.5Y-140.5
X48.6Y-129.15
X48.8Y-125.5
X49.0Y-168.8
X49.0Y-171.4
X49.05Y-132.6
X49.25Y-142.8
X49.25Y-158.1
X49.95Y-175.95
X50.0Y-140.6
X50.2Y-153.2
X50.2Y-156.0
X50.25Y-135.15
X50.25Y-149.35
X50.65Y-170.3
X50.8Y-180.1
X51.35Y-145.25
X52.4Y-195.5
X52.65Y-162.6
X52.8Y-173.7
X53.1Y-150.6
X53.3Y-124.2
X53.5Y-138.4
X53.65Y-147.5
X53.7Y-178.25
X54.1Y-191.3
X54.5Y-165.9
X54.85Y-157.1
X54.85Y-159.6
X54.9Y-146.0
X54.9Y-150.9
X55.15Y-182.15
X55.2Y-176.3
X55.25Y-184.8
X55.45Y-126.45
X55.6Y-129.85
X55.7Y-154.9
X55.7Y-195.75
X55.95Y-193.9
X56.35Y-146.6
X56.45Y-181.0
X56.7Y-154.9
X56.75Y-170.05
X56.95Y-190.15
X57.2Y-150.5
X57.2Y-199.35
X57.55Y-184.65
X57.7Y-154.35
X57.7Y-182.75
X57.9Y-159.7
X58.15Y-195.65
X58.2Y-165.7
X58.25Y-157.1
X58.35Y-140.15
X58.4Y-122.25
X58.5Y-194.0
X59.3Y-190.75
X59.45Y-181.9
X59.9Y-122.25
X60.0Y-159.2
X60.05Y-154.4
X60.05Y-177.6
X60.1Y-151.85
X60.1Y-160.8
X60.3Y-158.0
X60.55Y-131.55
X60.85Y-129.25
X61.15Y-196.1
X61.6Y-115.2
X61.8Y-123.9
X61.95Y-180.05
X62.45Y-158.95
X62.45Y-163.45
X62.9Y-140.95
X63.7Y-156.05
X64.1Y-134.55
X64.1Y-144.25
X64.2Y-124.3
X64.6Y-180.95
X64.65Y-182.15
X65.0Y-165.8
X65.05Y-161.4
X65.2Y-131.55
X65.35Y-129.15
X65.65Y-121.65
X65.65Y-146.3
X66.0Y-179.85
X66.45Y-195.15
X66.6Y-158.2
X66.9Y-126.65
X67.35Y-163.95
X67.4Y-168.1
X67.7Y-191.2
X68.0Y-114.6
X68.6Y-135.2
X68.8Y-184.25
X69.25Y-125.55
X69.65Y-170.4
X69.7Y-177.25
X69.75Y-161.9
X69.9Y-166.0
X70.2Y-195.6
X70.5Y-189.75
X70.65Y-134.25
X70.85Y-133.25
X70.85Y-181.0
X71.1Y-137.55
X71.15Y-184.7
X71.2Y-171.8
X71.4Y-167.35
X71.6Y-177.35
X72.5Y-184.6
X72.75Y-139.65
X72.75Y-183.4
X73.0Y-164.8
X73.2Y-190.15
X73.65Y-134.85
X73.75Y-169.8
X73.8Y-174.5
X74.0Y-137.6
X74.2Y-152.8
X74.25Y-158.85
X74.3Y-173.5
X74.8Y-123.9
X74.8Y-129.55
X74.9Y-147.15
X74.9Y-195.3
X75.05Y-141.85
X75.5Y-137.1
X75.9Y-160.65
X76.75Y-114.9
X76.95Y-159.65
X77.5Y-123.9
X77.7Y-129.2
X78.3Y-173.9
X78.4Y-163.65
X79.45Y-140.25
X79.55Y-146.55
X79.8Y-152.3
X79.95Y-157.4
X80.3Y-195.8
X80.45Y-184.25
X80.55Y-191.35
X80.75Y-144.0
X82.5Y-139.5
X82.7Y-183.5
X82.95Y-195.5
X83.0Y-191.15
X83.05Y-184.45
X83.75Y-165.35
X83.8Y-129.75
X84.45Y-145.25
X84.85Y-172.35
X85.15Y-117.45
X85.2Y-124.05
X85.25Y-190.9
X85.45Y-182.3
X85.45Y-186.75
X85.5Y-138.75
X85.6Y-195.45
X87.75Y-160.1
X87.85Y-191.05
X88.0Y-185.9
X88.05Y-195.9
X88.45Y-138.95
X88.45Y-168.0
X88.6Y-120.95
X88.8Y-145.45
X90.15Y-171.0
X90.25Y-163.15
X90.25Y-175.1
X90.4Y-173.05
X90.5Y-179.2
X91.1Y-139.35
X91.1Y-144.55
X91.15Y-145.5
X91.3Y-134.15
X91.35Y-133.25
X91.4Y-129.3
X91.4Y-134.85
X91.45Y-130.1
X91.45Y-130.9
X91.9Y-181.45
X92.7Y-173.3
X92.8Y-162.3
X92.95Y-164.65
X93.0Y-167.9
X94.25Y-160.8
X94.3Y-145.65
X95.25Y-173.15
X95.6Y-144.0
X96.75Y-151.2
X96.85Y-144.0
X96.85Y-153.6
X96.95Y-155.65
X97.3Y-164.1
T2
X71.2Y-119.1
X73.7Y-119.1
X76.2Y-119.1
X78.7Y-119.1
T3
X96.5Y-177.0
X96.5Y-179.5
T4
X10.9Y-123.0
X10.9Y-128.08
X10.9Y-136.64
X10.9Y-141.72
X10.9Y-150.28
X10.9Y-155.36
X10.9Y-160.44
X10.9Y-169.0
X10.9Y-174.08
X10.9Y-179.16
X13.5Y-199.5
X18.58Y-199.5
X23.66Y-199.5
X32.25Y-199.5
X37.33Y-199.5
X42.41Y-199.5
X54.5Y-199.5
X59.58Y-199.5
X68.0Y-199.5
X73.08Y-199.5
X81.5Y-199.5
X86.58Y-199.5
T5
X5.0Y-115.0
X5.0Y-205.0
X95.0Y-115.0
X95.0Y-205.0
M30
