%TF.GenerationSoftware,KiCad,Pcbnew,10.0.5*%
%TF.CreationDate,2026-08-21T14:51:37+08:00*%
%TF.ProjectId,nova_sensors,6e6f7661-5f73-4656-9e73-6f72732e6b69,rev?*%
%TF.SameCoordinates,Original*%
%TF.FileFunction,Legend,Top*%
%TF.FilePolarity,Positive*%
%FSLAX46Y46*%
G04 Gerber Fmt 4.6, Leading zero omitted, Abs format (unit mm)*
G04 Created by KiCad (PCBNEW 10.0.5) date 2026-08-21 14:51:37*
%MOMM*%
%LPD*%
G01*
G04 APERTURE LIST*
%ADD10C,0.200000*%
%ADD11C,0.300000*%
%ADD12C,0.150000*%
%ADD13C,0.120000*%
%ADD14C,0.100000*%
%ADD15C,0.250000*%
%ADD16C,0.060000*%
G04 APERTURE END LIST*
D10*
X8969673Y-196167219D02*
X8969673Y-195167219D01*
X8969673Y-195167219D02*
X9303006Y-195881504D01*
X9303006Y-195881504D02*
X9636339Y-195167219D01*
X9636339Y-195167219D02*
X9636339Y-196167219D01*
X10683958Y-196071980D02*
X10636339Y-196119600D01*
X10636339Y-196119600D02*
X10493482Y-196167219D01*
X10493482Y-196167219D02*
X10398244Y-196167219D01*
X10398244Y-196167219D02*
X10255387Y-196119600D01*
X10255387Y-196119600D02*
X10160149Y-196024361D01*
X10160149Y-196024361D02*
X10112530Y-195929123D01*
X10112530Y-195929123D02*
X10064911Y-195738647D01*
X10064911Y-195738647D02*
X10064911Y-195595790D01*
X10064911Y-195595790D02*
X10112530Y-195405314D01*
X10112530Y-195405314D02*
X10160149Y-195310076D01*
X10160149Y-195310076D02*
X10255387Y-195214838D01*
X10255387Y-195214838D02*
X10398244Y-195167219D01*
X10398244Y-195167219D02*
X10493482Y-195167219D01*
X10493482Y-195167219D02*
X10636339Y-195214838D01*
X10636339Y-195214838D02*
X10683958Y-195262457D01*
X11112530Y-195167219D02*
X11112530Y-195976742D01*
X11112530Y-195976742D02*
X11160149Y-196071980D01*
X11160149Y-196071980D02*
X11207768Y-196119600D01*
X11207768Y-196119600D02*
X11303006Y-196167219D01*
X11303006Y-196167219D02*
X11493482Y-196167219D01*
X11493482Y-196167219D02*
X11588720Y-196119600D01*
X11588720Y-196119600D02*
X11636339Y-196071980D01*
X11636339Y-196071980D02*
X11683958Y-195976742D01*
X11683958Y-195976742D02*
X11683958Y-195167219D01*
X11922054Y-196262457D02*
X12683958Y-196262457D01*
X12779197Y-195167219D02*
X13350625Y-195167219D01*
X13064911Y-196167219D02*
X13064911Y-195167219D01*
X13588721Y-195167219D02*
X14255387Y-196167219D01*
X14255387Y-195167219D02*
X13588721Y-196167219D01*
X15160149Y-196167219D02*
X14588721Y-196167219D01*
X14874435Y-196167219D02*
X14874435Y-195167219D01*
X14874435Y-195167219D02*
X14779197Y-195310076D01*
X14779197Y-195310076D02*
X14683959Y-195405314D01*
X14683959Y-195405314D02*
X14588721Y-195452933D01*
X17169673Y-196167219D02*
X17169673Y-195167219D01*
X17169673Y-195167219D02*
X17503006Y-195881504D01*
X17503006Y-195881504D02*
X17836339Y-195167219D01*
X17836339Y-195167219D02*
X17836339Y-196167219D01*
X18883958Y-196071980D02*
X18836339Y-196119600D01*
X18836339Y-196119600D02*
X18693482Y-196167219D01*
X18693482Y-196167219D02*
X18598244Y-196167219D01*
X18598244Y-196167219D02*
X18455387Y-196119600D01*
X18455387Y-196119600D02*
X18360149Y-196024361D01*
X18360149Y-196024361D02*
X18312530Y-195929123D01*
X18312530Y-195929123D02*
X18264911Y-195738647D01*
X18264911Y-195738647D02*
X18264911Y-195595790D01*
X18264911Y-195595790D02*
X18312530Y-195405314D01*
X18312530Y-195405314D02*
X18360149Y-195310076D01*
X18360149Y-195310076D02*
X18455387Y-195214838D01*
X18455387Y-195214838D02*
X18598244Y-195167219D01*
X18598244Y-195167219D02*
X18693482Y-195167219D01*
X18693482Y-195167219D02*
X18836339Y-195214838D01*
X18836339Y-195214838D02*
X18883958Y-195262457D01*
X19312530Y-195167219D02*
X19312530Y-195976742D01*
X19312530Y-195976742D02*
X19360149Y-196071980D01*
X19360149Y-196071980D02*
X19407768Y-196119600D01*
X19407768Y-196119600D02*
X19503006Y-196167219D01*
X19503006Y-196167219D02*
X19693482Y-196167219D01*
X19693482Y-196167219D02*
X19788720Y-196119600D01*
X19788720Y-196119600D02*
X19836339Y-196071980D01*
X19836339Y-196071980D02*
X19883958Y-195976742D01*
X19883958Y-195976742D02*
X19883958Y-195167219D01*
X20122054Y-196262457D02*
X20883958Y-196262457D01*
X21693482Y-196167219D02*
X21360149Y-195691028D01*
X21122054Y-196167219D02*
X21122054Y-195167219D01*
X21122054Y-195167219D02*
X21503006Y-195167219D01*
X21503006Y-195167219D02*
X21598244Y-195214838D01*
X21598244Y-195214838D02*
X21645863Y-195262457D01*
X21645863Y-195262457D02*
X21693482Y-195357695D01*
X21693482Y-195357695D02*
X21693482Y-195500552D01*
X21693482Y-195500552D02*
X21645863Y-195595790D01*
X21645863Y-195595790D02*
X21598244Y-195643409D01*
X21598244Y-195643409D02*
X21503006Y-195691028D01*
X21503006Y-195691028D02*
X21122054Y-195691028D01*
X22026816Y-195167219D02*
X22693482Y-196167219D01*
X22693482Y-195167219D02*
X22026816Y-196167219D01*
X23598244Y-196167219D02*
X23026816Y-196167219D01*
X23312530Y-196167219D02*
X23312530Y-195167219D01*
X23312530Y-195167219D02*
X23217292Y-195310076D01*
X23217292Y-195310076D02*
X23122054Y-195405314D01*
X23122054Y-195405314D02*
X23026816Y-195452933D01*
X25041101Y-116467219D02*
X24707768Y-115991028D01*
X24469673Y-116467219D02*
X24469673Y-115467219D01*
X24469673Y-115467219D02*
X24850625Y-115467219D01*
X24850625Y-115467219D02*
X24945863Y-115514838D01*
X24945863Y-115514838D02*
X24993482Y-115562457D01*
X24993482Y-115562457D02*
X25041101Y-115657695D01*
X25041101Y-115657695D02*
X25041101Y-115800552D01*
X25041101Y-115800552D02*
X24993482Y-115895790D01*
X24993482Y-115895790D02*
X24945863Y-115943409D01*
X24945863Y-115943409D02*
X24850625Y-115991028D01*
X24850625Y-115991028D02*
X24469673Y-115991028D01*
X25469673Y-115943409D02*
X25803006Y-115943409D01*
X25945863Y-116467219D02*
X25469673Y-116467219D01*
X25469673Y-116467219D02*
X25469673Y-115467219D01*
X25469673Y-115467219D02*
X25945863Y-115467219D01*
X26326816Y-116419600D02*
X26469673Y-116467219D01*
X26469673Y-116467219D02*
X26707768Y-116467219D01*
X26707768Y-116467219D02*
X26803006Y-116419600D01*
X26803006Y-116419600D02*
X26850625Y-116371980D01*
X26850625Y-116371980D02*
X26898244Y-116276742D01*
X26898244Y-116276742D02*
X26898244Y-116181504D01*
X26898244Y-116181504D02*
X26850625Y-116086266D01*
X26850625Y-116086266D02*
X26803006Y-116038647D01*
X26803006Y-116038647D02*
X26707768Y-115991028D01*
X26707768Y-115991028D02*
X26517292Y-115943409D01*
X26517292Y-115943409D02*
X26422054Y-115895790D01*
X26422054Y-115895790D02*
X26374435Y-115848171D01*
X26374435Y-115848171D02*
X26326816Y-115752933D01*
X26326816Y-115752933D02*
X26326816Y-115657695D01*
X26326816Y-115657695D02*
X26374435Y-115562457D01*
X26374435Y-115562457D02*
X26422054Y-115514838D01*
X26422054Y-115514838D02*
X26517292Y-115467219D01*
X26517292Y-115467219D02*
X26755387Y-115467219D01*
X26755387Y-115467219D02*
X26898244Y-115514838D01*
X27326816Y-115943409D02*
X27660149Y-115943409D01*
X27803006Y-116467219D02*
X27326816Y-116467219D01*
X27326816Y-116467219D02*
X27326816Y-115467219D01*
X27326816Y-115467219D02*
X27803006Y-115467219D01*
X28088721Y-115467219D02*
X28660149Y-115467219D01*
X28374435Y-116467219D02*
X28374435Y-115467219D01*
X27569673Y-196067219D02*
X27569673Y-195067219D01*
X27569673Y-195067219D02*
X27903006Y-195781504D01*
X27903006Y-195781504D02*
X28236339Y-195067219D01*
X28236339Y-195067219D02*
X28236339Y-196067219D01*
X29283958Y-195971980D02*
X29236339Y-196019600D01*
X29236339Y-196019600D02*
X29093482Y-196067219D01*
X29093482Y-196067219D02*
X28998244Y-196067219D01*
X28998244Y-196067219D02*
X28855387Y-196019600D01*
X28855387Y-196019600D02*
X28760149Y-195924361D01*
X28760149Y-195924361D02*
X28712530Y-195829123D01*
X28712530Y-195829123D02*
X28664911Y-195638647D01*
X28664911Y-195638647D02*
X28664911Y-195495790D01*
X28664911Y-195495790D02*
X28712530Y-195305314D01*
X28712530Y-195305314D02*
X28760149Y-195210076D01*
X28760149Y-195210076D02*
X28855387Y-195114838D01*
X28855387Y-195114838D02*
X28998244Y-195067219D01*
X28998244Y-195067219D02*
X29093482Y-195067219D01*
X29093482Y-195067219D02*
X29236339Y-195114838D01*
X29236339Y-195114838D02*
X29283958Y-195162457D01*
X29712530Y-195067219D02*
X29712530Y-195876742D01*
X29712530Y-195876742D02*
X29760149Y-195971980D01*
X29760149Y-195971980D02*
X29807768Y-196019600D01*
X29807768Y-196019600D02*
X29903006Y-196067219D01*
X29903006Y-196067219D02*
X30093482Y-196067219D01*
X30093482Y-196067219D02*
X30188720Y-196019600D01*
X30188720Y-196019600D02*
X30236339Y-195971980D01*
X30236339Y-195971980D02*
X30283958Y-195876742D01*
X30283958Y-195876742D02*
X30283958Y-195067219D01*
X30522054Y-196162457D02*
X31283958Y-196162457D01*
X31379197Y-195067219D02*
X31950625Y-195067219D01*
X31664911Y-196067219D02*
X31664911Y-195067219D01*
X32188721Y-195067219D02*
X32855387Y-196067219D01*
X32855387Y-195067219D02*
X32188721Y-196067219D01*
X33188721Y-195162457D02*
X33236340Y-195114838D01*
X33236340Y-195114838D02*
X33331578Y-195067219D01*
X33331578Y-195067219D02*
X33569673Y-195067219D01*
X33569673Y-195067219D02*
X33664911Y-195114838D01*
X33664911Y-195114838D02*
X33712530Y-195162457D01*
X33712530Y-195162457D02*
X33760149Y-195257695D01*
X33760149Y-195257695D02*
X33760149Y-195352933D01*
X33760149Y-195352933D02*
X33712530Y-195495790D01*
X33712530Y-195495790D02*
X33141102Y-196067219D01*
X33141102Y-196067219D02*
X33760149Y-196067219D01*
X35069673Y-196067219D02*
X35069673Y-195067219D01*
X35069673Y-195067219D02*
X35403006Y-195781504D01*
X35403006Y-195781504D02*
X35736339Y-195067219D01*
X35736339Y-195067219D02*
X35736339Y-196067219D01*
X36783958Y-195971980D02*
X36736339Y-196019600D01*
X36736339Y-196019600D02*
X36593482Y-196067219D01*
X36593482Y-196067219D02*
X36498244Y-196067219D01*
X36498244Y-196067219D02*
X36355387Y-196019600D01*
X36355387Y-196019600D02*
X36260149Y-195924361D01*
X36260149Y-195924361D02*
X36212530Y-195829123D01*
X36212530Y-195829123D02*
X36164911Y-195638647D01*
X36164911Y-195638647D02*
X36164911Y-195495790D01*
X36164911Y-195495790D02*
X36212530Y-195305314D01*
X36212530Y-195305314D02*
X36260149Y-195210076D01*
X36260149Y-195210076D02*
X36355387Y-195114838D01*
X36355387Y-195114838D02*
X36498244Y-195067219D01*
X36498244Y-195067219D02*
X36593482Y-195067219D01*
X36593482Y-195067219D02*
X36736339Y-195114838D01*
X36736339Y-195114838D02*
X36783958Y-195162457D01*
X37212530Y-195067219D02*
X37212530Y-195876742D01*
X37212530Y-195876742D02*
X37260149Y-195971980D01*
X37260149Y-195971980D02*
X37307768Y-196019600D01*
X37307768Y-196019600D02*
X37403006Y-196067219D01*
X37403006Y-196067219D02*
X37593482Y-196067219D01*
X37593482Y-196067219D02*
X37688720Y-196019600D01*
X37688720Y-196019600D02*
X37736339Y-195971980D01*
X37736339Y-195971980D02*
X37783958Y-195876742D01*
X37783958Y-195876742D02*
X37783958Y-195067219D01*
X38022054Y-196162457D02*
X38783958Y-196162457D01*
X39593482Y-196067219D02*
X39260149Y-195591028D01*
X39022054Y-196067219D02*
X39022054Y-195067219D01*
X39022054Y-195067219D02*
X39403006Y-195067219D01*
X39403006Y-195067219D02*
X39498244Y-195114838D01*
X39498244Y-195114838D02*
X39545863Y-195162457D01*
X39545863Y-195162457D02*
X39593482Y-195257695D01*
X39593482Y-195257695D02*
X39593482Y-195400552D01*
X39593482Y-195400552D02*
X39545863Y-195495790D01*
X39545863Y-195495790D02*
X39498244Y-195543409D01*
X39498244Y-195543409D02*
X39403006Y-195591028D01*
X39403006Y-195591028D02*
X39022054Y-195591028D01*
X39926816Y-195067219D02*
X40593482Y-196067219D01*
X40593482Y-195067219D02*
X39926816Y-196067219D01*
X40926816Y-195162457D02*
X40974435Y-195114838D01*
X40974435Y-195114838D02*
X41069673Y-195067219D01*
X41069673Y-195067219D02*
X41307768Y-195067219D01*
X41307768Y-195067219D02*
X41403006Y-195114838D01*
X41403006Y-195114838D02*
X41450625Y-195162457D01*
X41450625Y-195162457D02*
X41498244Y-195257695D01*
X41498244Y-195257695D02*
X41498244Y-195352933D01*
X41498244Y-195352933D02*
X41450625Y-195495790D01*
X41450625Y-195495790D02*
X40879197Y-196067219D01*
X40879197Y-196067219D02*
X41498244Y-196067219D01*
X37169673Y-116567219D02*
X37169673Y-115567219D01*
X37169673Y-115567219D02*
X37407768Y-115567219D01*
X37407768Y-115567219D02*
X37550625Y-115614838D01*
X37550625Y-115614838D02*
X37645863Y-115710076D01*
X37645863Y-115710076D02*
X37693482Y-115805314D01*
X37693482Y-115805314D02*
X37741101Y-115995790D01*
X37741101Y-115995790D02*
X37741101Y-116138647D01*
X37741101Y-116138647D02*
X37693482Y-116329123D01*
X37693482Y-116329123D02*
X37645863Y-116424361D01*
X37645863Y-116424361D02*
X37550625Y-116519600D01*
X37550625Y-116519600D02*
X37407768Y-116567219D01*
X37407768Y-116567219D02*
X37169673Y-116567219D01*
X38169673Y-116567219D02*
X38169673Y-115567219D01*
X38645863Y-116567219D02*
X38645863Y-115567219D01*
X38645863Y-115567219D02*
X39026815Y-115567219D01*
X39026815Y-115567219D02*
X39122053Y-115614838D01*
X39122053Y-115614838D02*
X39169672Y-115662457D01*
X39169672Y-115662457D02*
X39217291Y-115757695D01*
X39217291Y-115757695D02*
X39217291Y-115900552D01*
X39217291Y-115900552D02*
X39169672Y-115995790D01*
X39169672Y-115995790D02*
X39122053Y-116043409D01*
X39122053Y-116043409D02*
X39026815Y-116091028D01*
X39026815Y-116091028D02*
X38645863Y-116091028D01*
X39598244Y-115662457D02*
X39645863Y-115614838D01*
X39645863Y-115614838D02*
X39741101Y-115567219D01*
X39741101Y-115567219D02*
X39979196Y-115567219D01*
X39979196Y-115567219D02*
X40074434Y-115614838D01*
X40074434Y-115614838D02*
X40122053Y-115662457D01*
X40122053Y-115662457D02*
X40169672Y-115757695D01*
X40169672Y-115757695D02*
X40169672Y-115852933D01*
X40169672Y-115852933D02*
X40122053Y-115995790D01*
X40122053Y-115995790D02*
X39550625Y-116567219D01*
X39550625Y-116567219D02*
X40169672Y-116567219D01*
X37169673Y-123767219D02*
X37169673Y-122767219D01*
X37169673Y-122767219D02*
X37407768Y-122767219D01*
X37407768Y-122767219D02*
X37550625Y-122814838D01*
X37550625Y-122814838D02*
X37645863Y-122910076D01*
X37645863Y-122910076D02*
X37693482Y-123005314D01*
X37693482Y-123005314D02*
X37741101Y-123195790D01*
X37741101Y-123195790D02*
X37741101Y-123338647D01*
X37741101Y-123338647D02*
X37693482Y-123529123D01*
X37693482Y-123529123D02*
X37645863Y-123624361D01*
X37645863Y-123624361D02*
X37550625Y-123719600D01*
X37550625Y-123719600D02*
X37407768Y-123767219D01*
X37407768Y-123767219D02*
X37169673Y-123767219D01*
X38169673Y-123767219D02*
X38169673Y-122767219D01*
X38645863Y-123767219D02*
X38645863Y-122767219D01*
X38645863Y-122767219D02*
X39026815Y-122767219D01*
X39026815Y-122767219D02*
X39122053Y-122814838D01*
X39122053Y-122814838D02*
X39169672Y-122862457D01*
X39169672Y-122862457D02*
X39217291Y-122957695D01*
X39217291Y-122957695D02*
X39217291Y-123100552D01*
X39217291Y-123100552D02*
X39169672Y-123195790D01*
X39169672Y-123195790D02*
X39122053Y-123243409D01*
X39122053Y-123243409D02*
X39026815Y-123291028D01*
X39026815Y-123291028D02*
X38645863Y-123291028D01*
X40169672Y-123767219D02*
X39598244Y-123767219D01*
X39883958Y-123767219D02*
X39883958Y-122767219D01*
X39883958Y-122767219D02*
X39788720Y-122910076D01*
X39788720Y-122910076D02*
X39693482Y-123005314D01*
X39693482Y-123005314D02*
X39598244Y-123052933D01*
X51303006Y-115943409D02*
X51445863Y-115991028D01*
X51445863Y-115991028D02*
X51493482Y-116038647D01*
X51493482Y-116038647D02*
X51541101Y-116133885D01*
X51541101Y-116133885D02*
X51541101Y-116276742D01*
X51541101Y-116276742D02*
X51493482Y-116371980D01*
X51493482Y-116371980D02*
X51445863Y-116419600D01*
X51445863Y-116419600D02*
X51350625Y-116467219D01*
X51350625Y-116467219D02*
X50969673Y-116467219D01*
X50969673Y-116467219D02*
X50969673Y-115467219D01*
X50969673Y-115467219D02*
X51303006Y-115467219D01*
X51303006Y-115467219D02*
X51398244Y-115514838D01*
X51398244Y-115514838D02*
X51445863Y-115562457D01*
X51445863Y-115562457D02*
X51493482Y-115657695D01*
X51493482Y-115657695D02*
X51493482Y-115752933D01*
X51493482Y-115752933D02*
X51445863Y-115848171D01*
X51445863Y-115848171D02*
X51398244Y-115895790D01*
X51398244Y-115895790D02*
X51303006Y-115943409D01*
X51303006Y-115943409D02*
X50969673Y-115943409D01*
X52160149Y-115467219D02*
X52350625Y-115467219D01*
X52350625Y-115467219D02*
X52445863Y-115514838D01*
X52445863Y-115514838D02*
X52541101Y-115610076D01*
X52541101Y-115610076D02*
X52588720Y-115800552D01*
X52588720Y-115800552D02*
X52588720Y-116133885D01*
X52588720Y-116133885D02*
X52541101Y-116324361D01*
X52541101Y-116324361D02*
X52445863Y-116419600D01*
X52445863Y-116419600D02*
X52350625Y-116467219D01*
X52350625Y-116467219D02*
X52160149Y-116467219D01*
X52160149Y-116467219D02*
X52064911Y-116419600D01*
X52064911Y-116419600D02*
X51969673Y-116324361D01*
X51969673Y-116324361D02*
X51922054Y-116133885D01*
X51922054Y-116133885D02*
X51922054Y-115800552D01*
X51922054Y-115800552D02*
X51969673Y-115610076D01*
X51969673Y-115610076D02*
X52064911Y-115514838D01*
X52064911Y-115514838D02*
X52160149Y-115467219D01*
X53207768Y-115467219D02*
X53398244Y-115467219D01*
X53398244Y-115467219D02*
X53493482Y-115514838D01*
X53493482Y-115514838D02*
X53588720Y-115610076D01*
X53588720Y-115610076D02*
X53636339Y-115800552D01*
X53636339Y-115800552D02*
X53636339Y-116133885D01*
X53636339Y-116133885D02*
X53588720Y-116324361D01*
X53588720Y-116324361D02*
X53493482Y-116419600D01*
X53493482Y-116419600D02*
X53398244Y-116467219D01*
X53398244Y-116467219D02*
X53207768Y-116467219D01*
X53207768Y-116467219D02*
X53112530Y-116419600D01*
X53112530Y-116419600D02*
X53017292Y-116324361D01*
X53017292Y-116324361D02*
X52969673Y-116133885D01*
X52969673Y-116133885D02*
X52969673Y-115800552D01*
X52969673Y-115800552D02*
X53017292Y-115610076D01*
X53017292Y-115610076D02*
X53112530Y-115514838D01*
X53112530Y-115514838D02*
X53207768Y-115467219D01*
X53922054Y-115467219D02*
X54493482Y-115467219D01*
X54207768Y-116467219D02*
X54207768Y-115467219D01*
X55350625Y-116467219D02*
X54779197Y-116467219D01*
X55064911Y-116467219D02*
X55064911Y-115467219D01*
X55064911Y-115467219D02*
X54969673Y-115610076D01*
X54969673Y-115610076D02*
X54874435Y-115705314D01*
X54874435Y-115705314D02*
X54779197Y-115752933D01*
X51303006Y-123143409D02*
X51445863Y-123191028D01*
X51445863Y-123191028D02*
X51493482Y-123238647D01*
X51493482Y-123238647D02*
X51541101Y-123333885D01*
X51541101Y-123333885D02*
X51541101Y-123476742D01*
X51541101Y-123476742D02*
X51493482Y-123571980D01*
X51493482Y-123571980D02*
X51445863Y-123619600D01*
X51445863Y-123619600D02*
X51350625Y-123667219D01*
X51350625Y-123667219D02*
X50969673Y-123667219D01*
X50969673Y-123667219D02*
X50969673Y-122667219D01*
X50969673Y-122667219D02*
X51303006Y-122667219D01*
X51303006Y-122667219D02*
X51398244Y-122714838D01*
X51398244Y-122714838D02*
X51445863Y-122762457D01*
X51445863Y-122762457D02*
X51493482Y-122857695D01*
X51493482Y-122857695D02*
X51493482Y-122952933D01*
X51493482Y-122952933D02*
X51445863Y-123048171D01*
X51445863Y-123048171D02*
X51398244Y-123095790D01*
X51398244Y-123095790D02*
X51303006Y-123143409D01*
X51303006Y-123143409D02*
X50969673Y-123143409D01*
X52160149Y-122667219D02*
X52350625Y-122667219D01*
X52350625Y-122667219D02*
X52445863Y-122714838D01*
X52445863Y-122714838D02*
X52541101Y-122810076D01*
X52541101Y-122810076D02*
X52588720Y-123000552D01*
X52588720Y-123000552D02*
X52588720Y-123333885D01*
X52588720Y-123333885D02*
X52541101Y-123524361D01*
X52541101Y-123524361D02*
X52445863Y-123619600D01*
X52445863Y-123619600D02*
X52350625Y-123667219D01*
X52350625Y-123667219D02*
X52160149Y-123667219D01*
X52160149Y-123667219D02*
X52064911Y-123619600D01*
X52064911Y-123619600D02*
X51969673Y-123524361D01*
X51969673Y-123524361D02*
X51922054Y-123333885D01*
X51922054Y-123333885D02*
X51922054Y-123000552D01*
X51922054Y-123000552D02*
X51969673Y-122810076D01*
X51969673Y-122810076D02*
X52064911Y-122714838D01*
X52064911Y-122714838D02*
X52160149Y-122667219D01*
X53207768Y-122667219D02*
X53398244Y-122667219D01*
X53398244Y-122667219D02*
X53493482Y-122714838D01*
X53493482Y-122714838D02*
X53588720Y-122810076D01*
X53588720Y-122810076D02*
X53636339Y-123000552D01*
X53636339Y-123000552D02*
X53636339Y-123333885D01*
X53636339Y-123333885D02*
X53588720Y-123524361D01*
X53588720Y-123524361D02*
X53493482Y-123619600D01*
X53493482Y-123619600D02*
X53398244Y-123667219D01*
X53398244Y-123667219D02*
X53207768Y-123667219D01*
X53207768Y-123667219D02*
X53112530Y-123619600D01*
X53112530Y-123619600D02*
X53017292Y-123524361D01*
X53017292Y-123524361D02*
X52969673Y-123333885D01*
X52969673Y-123333885D02*
X52969673Y-123000552D01*
X52969673Y-123000552D02*
X53017292Y-122810076D01*
X53017292Y-122810076D02*
X53112530Y-122714838D01*
X53112530Y-122714838D02*
X53207768Y-122667219D01*
X53922054Y-122667219D02*
X54493482Y-122667219D01*
X54207768Y-123667219D02*
X54207768Y-122667219D01*
X55017292Y-122667219D02*
X55112530Y-122667219D01*
X55112530Y-122667219D02*
X55207768Y-122714838D01*
X55207768Y-122714838D02*
X55255387Y-122762457D01*
X55255387Y-122762457D02*
X55303006Y-122857695D01*
X55303006Y-122857695D02*
X55350625Y-123048171D01*
X55350625Y-123048171D02*
X55350625Y-123286266D01*
X55350625Y-123286266D02*
X55303006Y-123476742D01*
X55303006Y-123476742D02*
X55255387Y-123571980D01*
X55255387Y-123571980D02*
X55207768Y-123619600D01*
X55207768Y-123619600D02*
X55112530Y-123667219D01*
X55112530Y-123667219D02*
X55017292Y-123667219D01*
X55017292Y-123667219D02*
X54922054Y-123619600D01*
X54922054Y-123619600D02*
X54874435Y-123571980D01*
X54874435Y-123571980D02*
X54826816Y-123476742D01*
X54826816Y-123476742D02*
X54779197Y-123286266D01*
X54779197Y-123286266D02*
X54779197Y-123048171D01*
X54779197Y-123048171D02*
X54826816Y-122857695D01*
X54826816Y-122857695D02*
X54874435Y-122762457D01*
X54874435Y-122762457D02*
X54922054Y-122714838D01*
X54922054Y-122714838D02*
X55017292Y-122667219D01*
X54322054Y-195481504D02*
X54798244Y-195481504D01*
X54226816Y-195767219D02*
X54560149Y-194767219D01*
X54560149Y-194767219D02*
X54893482Y-195767219D01*
X59803006Y-195243409D02*
X59945863Y-195291028D01*
X59945863Y-195291028D02*
X59993482Y-195338647D01*
X59993482Y-195338647D02*
X60041101Y-195433885D01*
X60041101Y-195433885D02*
X60041101Y-195576742D01*
X60041101Y-195576742D02*
X59993482Y-195671980D01*
X59993482Y-195671980D02*
X59945863Y-195719600D01*
X59945863Y-195719600D02*
X59850625Y-195767219D01*
X59850625Y-195767219D02*
X59469673Y-195767219D01*
X59469673Y-195767219D02*
X59469673Y-194767219D01*
X59469673Y-194767219D02*
X59803006Y-194767219D01*
X59803006Y-194767219D02*
X59898244Y-194814838D01*
X59898244Y-194814838D02*
X59945863Y-194862457D01*
X59945863Y-194862457D02*
X59993482Y-194957695D01*
X59993482Y-194957695D02*
X59993482Y-195052933D01*
X59993482Y-195052933D02*
X59945863Y-195148171D01*
X59945863Y-195148171D02*
X59898244Y-195195790D01*
X59898244Y-195195790D02*
X59803006Y-195243409D01*
X59803006Y-195243409D02*
X59469673Y-195243409D01*
X67822054Y-195481504D02*
X68298244Y-195481504D01*
X67726816Y-195767219D02*
X68060149Y-194767219D01*
X68060149Y-194767219D02*
X68393482Y-195767219D01*
X73303006Y-195243409D02*
X73445863Y-195291028D01*
X73445863Y-195291028D02*
X73493482Y-195338647D01*
X73493482Y-195338647D02*
X73541101Y-195433885D01*
X73541101Y-195433885D02*
X73541101Y-195576742D01*
X73541101Y-195576742D02*
X73493482Y-195671980D01*
X73493482Y-195671980D02*
X73445863Y-195719600D01*
X73445863Y-195719600D02*
X73350625Y-195767219D01*
X73350625Y-195767219D02*
X72969673Y-195767219D01*
X72969673Y-195767219D02*
X72969673Y-194767219D01*
X72969673Y-194767219D02*
X73303006Y-194767219D01*
X73303006Y-194767219D02*
X73398244Y-194814838D01*
X73398244Y-194814838D02*
X73445863Y-194862457D01*
X73445863Y-194862457D02*
X73493482Y-194957695D01*
X73493482Y-194957695D02*
X73493482Y-195052933D01*
X73493482Y-195052933D02*
X73445863Y-195148171D01*
X73445863Y-195148171D02*
X73398244Y-195195790D01*
X73398244Y-195195790D02*
X73303006Y-195243409D01*
X73303006Y-195243409D02*
X72969673Y-195243409D01*
X77369673Y-195567219D02*
X77369673Y-194567219D01*
X77369673Y-194567219D02*
X77703006Y-195281504D01*
X77703006Y-195281504D02*
X78036339Y-194567219D01*
X78036339Y-194567219D02*
X78036339Y-195567219D01*
X79083958Y-195471980D02*
X79036339Y-195519600D01*
X79036339Y-195519600D02*
X78893482Y-195567219D01*
X78893482Y-195567219D02*
X78798244Y-195567219D01*
X78798244Y-195567219D02*
X78655387Y-195519600D01*
X78655387Y-195519600D02*
X78560149Y-195424361D01*
X78560149Y-195424361D02*
X78512530Y-195329123D01*
X78512530Y-195329123D02*
X78464911Y-195138647D01*
X78464911Y-195138647D02*
X78464911Y-194995790D01*
X78464911Y-194995790D02*
X78512530Y-194805314D01*
X78512530Y-194805314D02*
X78560149Y-194710076D01*
X78560149Y-194710076D02*
X78655387Y-194614838D01*
X78655387Y-194614838D02*
X78798244Y-194567219D01*
X78798244Y-194567219D02*
X78893482Y-194567219D01*
X78893482Y-194567219D02*
X79036339Y-194614838D01*
X79036339Y-194614838D02*
X79083958Y-194662457D01*
X79512530Y-194567219D02*
X79512530Y-195376742D01*
X79512530Y-195376742D02*
X79560149Y-195471980D01*
X79560149Y-195471980D02*
X79607768Y-195519600D01*
X79607768Y-195519600D02*
X79703006Y-195567219D01*
X79703006Y-195567219D02*
X79893482Y-195567219D01*
X79893482Y-195567219D02*
X79988720Y-195519600D01*
X79988720Y-195519600D02*
X80036339Y-195471980D01*
X80036339Y-195471980D02*
X80083958Y-195376742D01*
X80083958Y-195376742D02*
X80083958Y-194567219D01*
X80322054Y-195662457D02*
X81083958Y-195662457D01*
X81179197Y-194567219D02*
X81750625Y-194567219D01*
X81464911Y-195567219D02*
X81464911Y-194567219D01*
X81988721Y-194567219D02*
X82655387Y-195567219D01*
X82655387Y-194567219D02*
X81988721Y-195567219D01*
X85369673Y-195567219D02*
X85369673Y-194567219D01*
X85369673Y-194567219D02*
X85703006Y-195281504D01*
X85703006Y-195281504D02*
X86036339Y-194567219D01*
X86036339Y-194567219D02*
X86036339Y-195567219D01*
X87083958Y-195471980D02*
X87036339Y-195519600D01*
X87036339Y-195519600D02*
X86893482Y-195567219D01*
X86893482Y-195567219D02*
X86798244Y-195567219D01*
X86798244Y-195567219D02*
X86655387Y-195519600D01*
X86655387Y-195519600D02*
X86560149Y-195424361D01*
X86560149Y-195424361D02*
X86512530Y-195329123D01*
X86512530Y-195329123D02*
X86464911Y-195138647D01*
X86464911Y-195138647D02*
X86464911Y-194995790D01*
X86464911Y-194995790D02*
X86512530Y-194805314D01*
X86512530Y-194805314D02*
X86560149Y-194710076D01*
X86560149Y-194710076D02*
X86655387Y-194614838D01*
X86655387Y-194614838D02*
X86798244Y-194567219D01*
X86798244Y-194567219D02*
X86893482Y-194567219D01*
X86893482Y-194567219D02*
X87036339Y-194614838D01*
X87036339Y-194614838D02*
X87083958Y-194662457D01*
X87512530Y-194567219D02*
X87512530Y-195376742D01*
X87512530Y-195376742D02*
X87560149Y-195471980D01*
X87560149Y-195471980D02*
X87607768Y-195519600D01*
X87607768Y-195519600D02*
X87703006Y-195567219D01*
X87703006Y-195567219D02*
X87893482Y-195567219D01*
X87893482Y-195567219D02*
X87988720Y-195519600D01*
X87988720Y-195519600D02*
X88036339Y-195471980D01*
X88036339Y-195471980D02*
X88083958Y-195376742D01*
X88083958Y-195376742D02*
X88083958Y-194567219D01*
X88322054Y-195662457D02*
X89083958Y-195662457D01*
X89893482Y-195567219D02*
X89560149Y-195091028D01*
X89322054Y-195567219D02*
X89322054Y-194567219D01*
X89322054Y-194567219D02*
X89703006Y-194567219D01*
X89703006Y-194567219D02*
X89798244Y-194614838D01*
X89798244Y-194614838D02*
X89845863Y-194662457D01*
X89845863Y-194662457D02*
X89893482Y-194757695D01*
X89893482Y-194757695D02*
X89893482Y-194900552D01*
X89893482Y-194900552D02*
X89845863Y-194995790D01*
X89845863Y-194995790D02*
X89798244Y-195043409D01*
X89798244Y-195043409D02*
X89703006Y-195091028D01*
X89703006Y-195091028D02*
X89322054Y-195091028D01*
X90226816Y-194567219D02*
X90893482Y-195567219D01*
X90893482Y-194567219D02*
X90226816Y-195567219D01*
X97486266Y-173780326D02*
X97486266Y-173018422D01*
X97867219Y-173399374D02*
X97105314Y-173399374D01*
X96867219Y-172066041D02*
X96867219Y-172542231D01*
X96867219Y-172542231D02*
X97343409Y-172589850D01*
X97343409Y-172589850D02*
X97295790Y-172542231D01*
X97295790Y-172542231D02*
X97248171Y-172446993D01*
X97248171Y-172446993D02*
X97248171Y-172208898D01*
X97248171Y-172208898D02*
X97295790Y-172113660D01*
X97295790Y-172113660D02*
X97343409Y-172066041D01*
X97343409Y-172066041D02*
X97438647Y-172018422D01*
X97438647Y-172018422D02*
X97676742Y-172018422D01*
X97676742Y-172018422D02*
X97771980Y-172066041D01*
X97771980Y-172066041D02*
X97819600Y-172113660D01*
X97819600Y-172113660D02*
X97867219Y-172208898D01*
X97867219Y-172208898D02*
X97867219Y-172446993D01*
X97867219Y-172446993D02*
X97819600Y-172542231D01*
X97819600Y-172542231D02*
X97771980Y-172589850D01*
X97486266Y-171732707D02*
X97438647Y-171685088D01*
X97438647Y-171685088D02*
X97391028Y-171589850D01*
X97391028Y-171589850D02*
X97486266Y-171399374D01*
X97486266Y-171399374D02*
X97438647Y-171304136D01*
X97438647Y-171304136D02*
X97391028Y-171256517D01*
X97867219Y-170351755D02*
X97867219Y-170923183D01*
X97867219Y-170637469D02*
X96867219Y-170637469D01*
X96867219Y-170637469D02*
X97010076Y-170732707D01*
X97010076Y-170732707D02*
X97105314Y-170827945D01*
X97105314Y-170827945D02*
X97152933Y-170923183D01*
X96962457Y-169970802D02*
X96914838Y-169923183D01*
X96914838Y-169923183D02*
X96867219Y-169827945D01*
X96867219Y-169827945D02*
X96867219Y-169589850D01*
X96867219Y-169589850D02*
X96914838Y-169494612D01*
X96914838Y-169494612D02*
X96962457Y-169446993D01*
X96962457Y-169446993D02*
X97057695Y-169399374D01*
X97057695Y-169399374D02*
X97152933Y-169399374D01*
X97152933Y-169399374D02*
X97295790Y-169446993D01*
X97295790Y-169446993D02*
X97867219Y-170018421D01*
X97867219Y-170018421D02*
X97867219Y-169399374D01*
X96867219Y-169113659D02*
X97867219Y-168780326D01*
X97867219Y-168780326D02*
X96867219Y-168446993D01*
X97614838Y-184706517D02*
X97567219Y-184801755D01*
X97567219Y-184801755D02*
X97567219Y-184944612D01*
X97567219Y-184944612D02*
X97614838Y-185087469D01*
X97614838Y-185087469D02*
X97710076Y-185182707D01*
X97710076Y-185182707D02*
X97805314Y-185230326D01*
X97805314Y-185230326D02*
X97995790Y-185277945D01*
X97995790Y-185277945D02*
X98138647Y-185277945D01*
X98138647Y-185277945D02*
X98329123Y-185230326D01*
X98329123Y-185230326D02*
X98424361Y-185182707D01*
X98424361Y-185182707D02*
X98519600Y-185087469D01*
X98519600Y-185087469D02*
X98567219Y-184944612D01*
X98567219Y-184944612D02*
X98567219Y-184849374D01*
X98567219Y-184849374D02*
X98519600Y-184706517D01*
X98519600Y-184706517D02*
X98471980Y-184658898D01*
X98471980Y-184658898D02*
X98138647Y-184658898D01*
X98138647Y-184658898D02*
X98138647Y-184849374D01*
X98567219Y-184230326D02*
X97567219Y-184230326D01*
X97567219Y-184230326D02*
X98567219Y-183658898D01*
X98567219Y-183658898D02*
X97567219Y-183658898D01*
X98567219Y-183182707D02*
X97567219Y-183182707D01*
X97567219Y-183182707D02*
X97567219Y-182944612D01*
X97567219Y-182944612D02*
X97614838Y-182801755D01*
X97614838Y-182801755D02*
X97710076Y-182706517D01*
X97710076Y-182706517D02*
X97805314Y-182658898D01*
X97805314Y-182658898D02*
X97995790Y-182611279D01*
X97995790Y-182611279D02*
X98138647Y-182611279D01*
X98138647Y-182611279D02*
X98329123Y-182658898D01*
X98329123Y-182658898D02*
X98424361Y-182706517D01*
X98424361Y-182706517D02*
X98519600Y-182801755D01*
X98519600Y-182801755D02*
X98567219Y-182944612D01*
X98567219Y-182944612D02*
X98567219Y-183182707D01*
X13918495Y-139122054D02*
X13918495Y-139598244D01*
X13632780Y-139026816D02*
X14632780Y-139360149D01*
X14632780Y-139360149D02*
X13632780Y-139693482D01*
X13632780Y-140026816D02*
X14632780Y-140026816D01*
X14632780Y-140026816D02*
X14632780Y-140264911D01*
X14632780Y-140264911D02*
X14585161Y-140407768D01*
X14585161Y-140407768D02*
X14489923Y-140503006D01*
X14489923Y-140503006D02*
X14394685Y-140550625D01*
X14394685Y-140550625D02*
X14204209Y-140598244D01*
X14204209Y-140598244D02*
X14061352Y-140598244D01*
X14061352Y-140598244D02*
X13870876Y-140550625D01*
X13870876Y-140550625D02*
X13775638Y-140503006D01*
X13775638Y-140503006D02*
X13680400Y-140407768D01*
X13680400Y-140407768D02*
X13632780Y-140264911D01*
X13632780Y-140264911D02*
X13632780Y-140026816D01*
X13728019Y-141598244D02*
X13680400Y-141550625D01*
X13680400Y-141550625D02*
X13632780Y-141407768D01*
X13632780Y-141407768D02*
X13632780Y-141312530D01*
X13632780Y-141312530D02*
X13680400Y-141169673D01*
X13680400Y-141169673D02*
X13775638Y-141074435D01*
X13775638Y-141074435D02*
X13870876Y-141026816D01*
X13870876Y-141026816D02*
X14061352Y-140979197D01*
X14061352Y-140979197D02*
X14204209Y-140979197D01*
X14204209Y-140979197D02*
X14394685Y-141026816D01*
X14394685Y-141026816D02*
X14489923Y-141074435D01*
X14489923Y-141074435D02*
X14585161Y-141169673D01*
X14585161Y-141169673D02*
X14632780Y-141312530D01*
X14632780Y-141312530D02*
X14632780Y-141407768D01*
X14632780Y-141407768D02*
X14585161Y-141550625D01*
X14585161Y-141550625D02*
X14537542Y-141598244D01*
X13632780Y-142550625D02*
X13632780Y-141979197D01*
X13632780Y-142264911D02*
X14632780Y-142264911D01*
X14632780Y-142264911D02*
X14489923Y-142169673D01*
X14489923Y-142169673D02*
X14394685Y-142074435D01*
X14394685Y-142074435D02*
X14347066Y-141979197D01*
X14018495Y-125422054D02*
X14018495Y-125898244D01*
X13732780Y-125326816D02*
X14732780Y-125660149D01*
X14732780Y-125660149D02*
X13732780Y-125993482D01*
X13732780Y-126326816D02*
X14732780Y-126326816D01*
X14732780Y-126326816D02*
X14732780Y-126564911D01*
X14732780Y-126564911D02*
X14685161Y-126707768D01*
X14685161Y-126707768D02*
X14589923Y-126803006D01*
X14589923Y-126803006D02*
X14494685Y-126850625D01*
X14494685Y-126850625D02*
X14304209Y-126898244D01*
X14304209Y-126898244D02*
X14161352Y-126898244D01*
X14161352Y-126898244D02*
X13970876Y-126850625D01*
X13970876Y-126850625D02*
X13875638Y-126803006D01*
X13875638Y-126803006D02*
X13780400Y-126707768D01*
X13780400Y-126707768D02*
X13732780Y-126564911D01*
X13732780Y-126564911D02*
X13732780Y-126326816D01*
X13828019Y-127898244D02*
X13780400Y-127850625D01*
X13780400Y-127850625D02*
X13732780Y-127707768D01*
X13732780Y-127707768D02*
X13732780Y-127612530D01*
X13732780Y-127612530D02*
X13780400Y-127469673D01*
X13780400Y-127469673D02*
X13875638Y-127374435D01*
X13875638Y-127374435D02*
X13970876Y-127326816D01*
X13970876Y-127326816D02*
X14161352Y-127279197D01*
X14161352Y-127279197D02*
X14304209Y-127279197D01*
X14304209Y-127279197D02*
X14494685Y-127326816D01*
X14494685Y-127326816D02*
X14589923Y-127374435D01*
X14589923Y-127374435D02*
X14685161Y-127469673D01*
X14685161Y-127469673D02*
X14732780Y-127612530D01*
X14732780Y-127612530D02*
X14732780Y-127707768D01*
X14732780Y-127707768D02*
X14685161Y-127850625D01*
X14685161Y-127850625D02*
X14637542Y-127898244D01*
X14732780Y-128517292D02*
X14732780Y-128612530D01*
X14732780Y-128612530D02*
X14685161Y-128707768D01*
X14685161Y-128707768D02*
X14637542Y-128755387D01*
X14637542Y-128755387D02*
X14542304Y-128803006D01*
X14542304Y-128803006D02*
X14351828Y-128850625D01*
X14351828Y-128850625D02*
X14113733Y-128850625D01*
X14113733Y-128850625D02*
X13923257Y-128803006D01*
X13923257Y-128803006D02*
X13828019Y-128755387D01*
X13828019Y-128755387D02*
X13780400Y-128707768D01*
X13780400Y-128707768D02*
X13732780Y-128612530D01*
X13732780Y-128612530D02*
X13732780Y-128517292D01*
X13732780Y-128517292D02*
X13780400Y-128422054D01*
X13780400Y-128422054D02*
X13828019Y-128374435D01*
X13828019Y-128374435D02*
X13923257Y-128326816D01*
X13923257Y-128326816D02*
X14113733Y-128279197D01*
X14113733Y-128279197D02*
X14351828Y-128279197D01*
X14351828Y-128279197D02*
X14542304Y-128326816D01*
X14542304Y-128326816D02*
X14637542Y-128374435D01*
X14637542Y-128374435D02*
X14685161Y-128422054D01*
X14685161Y-128422054D02*
X14732780Y-128517292D01*
X14332780Y-177969673D02*
X15332780Y-177969673D01*
X14332780Y-178445863D02*
X15332780Y-178445863D01*
X15332780Y-178445863D02*
X14332780Y-179017291D01*
X14332780Y-179017291D02*
X15332780Y-179017291D01*
X15332780Y-179398244D02*
X15332780Y-180017291D01*
X15332780Y-180017291D02*
X14951828Y-179683958D01*
X14951828Y-179683958D02*
X14951828Y-179826815D01*
X14951828Y-179826815D02*
X14904209Y-179922053D01*
X14904209Y-179922053D02*
X14856590Y-179969672D01*
X14856590Y-179969672D02*
X14761352Y-180017291D01*
X14761352Y-180017291D02*
X14523257Y-180017291D01*
X14523257Y-180017291D02*
X14428019Y-179969672D01*
X14428019Y-179969672D02*
X14380400Y-179922053D01*
X14380400Y-179922053D02*
X14332780Y-179826815D01*
X14332780Y-179826815D02*
X14332780Y-179541101D01*
X14332780Y-179541101D02*
X14380400Y-179445863D01*
X14380400Y-179445863D02*
X14428019Y-179398244D01*
X14432780Y-168169673D02*
X15432780Y-168169673D01*
X14432780Y-168645863D02*
X15432780Y-168645863D01*
X15432780Y-168645863D02*
X14432780Y-169217291D01*
X14432780Y-169217291D02*
X15432780Y-169217291D01*
X14432780Y-170217291D02*
X14432780Y-169645863D01*
X14432780Y-169931577D02*
X15432780Y-169931577D01*
X15432780Y-169931577D02*
X15289923Y-169836339D01*
X15289923Y-169836339D02*
X15194685Y-169741101D01*
X15194685Y-169741101D02*
X15147066Y-169645863D01*
X14432780Y-173169673D02*
X15432780Y-173169673D01*
X14432780Y-173645863D02*
X15432780Y-173645863D01*
X15432780Y-173645863D02*
X14432780Y-174217291D01*
X14432780Y-174217291D02*
X15432780Y-174217291D01*
X15337542Y-174645863D02*
X15385161Y-174693482D01*
X15385161Y-174693482D02*
X15432780Y-174788720D01*
X15432780Y-174788720D02*
X15432780Y-175026815D01*
X15432780Y-175026815D02*
X15385161Y-175122053D01*
X15385161Y-175122053D02*
X15337542Y-175169672D01*
X15337542Y-175169672D02*
X15242304Y-175217291D01*
X15242304Y-175217291D02*
X15147066Y-175217291D01*
X15147066Y-175217291D02*
X15004209Y-175169672D01*
X15004209Y-175169672D02*
X14432780Y-174598244D01*
X14432780Y-174598244D02*
X14432780Y-175217291D01*
X15532780Y-149060149D02*
X15532780Y-149250625D01*
X15532780Y-149250625D02*
X15485161Y-149345863D01*
X15485161Y-149345863D02*
X15389923Y-149441101D01*
X15389923Y-149441101D02*
X15199447Y-149488720D01*
X15199447Y-149488720D02*
X14866114Y-149488720D01*
X14866114Y-149488720D02*
X14675638Y-149441101D01*
X14675638Y-149441101D02*
X14580400Y-149345863D01*
X14580400Y-149345863D02*
X14532780Y-149250625D01*
X14532780Y-149250625D02*
X14532780Y-149060149D01*
X14532780Y-149060149D02*
X14580400Y-148964911D01*
X14580400Y-148964911D02*
X14675638Y-148869673D01*
X14675638Y-148869673D02*
X14866114Y-148822054D01*
X14866114Y-148822054D02*
X15199447Y-148822054D01*
X15199447Y-148822054D02*
X15389923Y-148869673D01*
X15389923Y-148869673D02*
X15485161Y-148964911D01*
X15485161Y-148964911D02*
X15532780Y-149060149D01*
X15532780Y-149917292D02*
X14723257Y-149917292D01*
X14723257Y-149917292D02*
X14628019Y-149964911D01*
X14628019Y-149964911D02*
X14580400Y-150012530D01*
X14580400Y-150012530D02*
X14532780Y-150107768D01*
X14532780Y-150107768D02*
X14532780Y-150298244D01*
X14532780Y-150298244D02*
X14580400Y-150393482D01*
X14580400Y-150393482D02*
X14628019Y-150441101D01*
X14628019Y-150441101D02*
X14723257Y-150488720D01*
X14723257Y-150488720D02*
X15532780Y-150488720D01*
X15532780Y-150822054D02*
X15532780Y-151393482D01*
X14532780Y-151107768D02*
X15532780Y-151107768D01*
X14532780Y-152250625D02*
X14532780Y-151679197D01*
X14532780Y-151964911D02*
X15532780Y-151964911D01*
X15532780Y-151964911D02*
X15389923Y-151869673D01*
X15389923Y-151869673D02*
X15294685Y-151774435D01*
X15294685Y-151774435D02*
X15247066Y-151679197D01*
X15532780Y-154260149D02*
X15532780Y-154450625D01*
X15532780Y-154450625D02*
X15485161Y-154545863D01*
X15485161Y-154545863D02*
X15389923Y-154641101D01*
X15389923Y-154641101D02*
X15199447Y-154688720D01*
X15199447Y-154688720D02*
X14866114Y-154688720D01*
X14866114Y-154688720D02*
X14675638Y-154641101D01*
X14675638Y-154641101D02*
X14580400Y-154545863D01*
X14580400Y-154545863D02*
X14532780Y-154450625D01*
X14532780Y-154450625D02*
X14532780Y-154260149D01*
X14532780Y-154260149D02*
X14580400Y-154164911D01*
X14580400Y-154164911D02*
X14675638Y-154069673D01*
X14675638Y-154069673D02*
X14866114Y-154022054D01*
X14866114Y-154022054D02*
X15199447Y-154022054D01*
X15199447Y-154022054D02*
X15389923Y-154069673D01*
X15389923Y-154069673D02*
X15485161Y-154164911D01*
X15485161Y-154164911D02*
X15532780Y-154260149D01*
X15532780Y-155117292D02*
X14723257Y-155117292D01*
X14723257Y-155117292D02*
X14628019Y-155164911D01*
X14628019Y-155164911D02*
X14580400Y-155212530D01*
X14580400Y-155212530D02*
X14532780Y-155307768D01*
X14532780Y-155307768D02*
X14532780Y-155498244D01*
X14532780Y-155498244D02*
X14580400Y-155593482D01*
X14580400Y-155593482D02*
X14628019Y-155641101D01*
X14628019Y-155641101D02*
X14723257Y-155688720D01*
X14723257Y-155688720D02*
X15532780Y-155688720D01*
X15532780Y-156022054D02*
X15532780Y-156593482D01*
X14532780Y-156307768D02*
X15532780Y-156307768D01*
X15437542Y-156879197D02*
X15485161Y-156926816D01*
X15485161Y-156926816D02*
X15532780Y-157022054D01*
X15532780Y-157022054D02*
X15532780Y-157260149D01*
X15532780Y-157260149D02*
X15485161Y-157355387D01*
X15485161Y-157355387D02*
X15437542Y-157403006D01*
X15437542Y-157403006D02*
X15342304Y-157450625D01*
X15342304Y-157450625D02*
X15247066Y-157450625D01*
X15247066Y-157450625D02*
X15104209Y-157403006D01*
X15104209Y-157403006D02*
X14532780Y-156831578D01*
X14532780Y-156831578D02*
X14532780Y-157450625D01*
X15532780Y-159360149D02*
X15532780Y-159550625D01*
X15532780Y-159550625D02*
X15485161Y-159645863D01*
X15485161Y-159645863D02*
X15389923Y-159741101D01*
X15389923Y-159741101D02*
X15199447Y-159788720D01*
X15199447Y-159788720D02*
X14866114Y-159788720D01*
X14866114Y-159788720D02*
X14675638Y-159741101D01*
X14675638Y-159741101D02*
X14580400Y-159645863D01*
X14580400Y-159645863D02*
X14532780Y-159550625D01*
X14532780Y-159550625D02*
X14532780Y-159360149D01*
X14532780Y-159360149D02*
X14580400Y-159264911D01*
X14580400Y-159264911D02*
X14675638Y-159169673D01*
X14675638Y-159169673D02*
X14866114Y-159122054D01*
X14866114Y-159122054D02*
X15199447Y-159122054D01*
X15199447Y-159122054D02*
X15389923Y-159169673D01*
X15389923Y-159169673D02*
X15485161Y-159264911D01*
X15485161Y-159264911D02*
X15532780Y-159360149D01*
X15532780Y-160217292D02*
X14723257Y-160217292D01*
X14723257Y-160217292D02*
X14628019Y-160264911D01*
X14628019Y-160264911D02*
X14580400Y-160312530D01*
X14580400Y-160312530D02*
X14532780Y-160407768D01*
X14532780Y-160407768D02*
X14532780Y-160598244D01*
X14532780Y-160598244D02*
X14580400Y-160693482D01*
X14580400Y-160693482D02*
X14628019Y-160741101D01*
X14628019Y-160741101D02*
X14723257Y-160788720D01*
X14723257Y-160788720D02*
X15532780Y-160788720D01*
X15532780Y-161122054D02*
X15532780Y-161693482D01*
X14532780Y-161407768D02*
X15532780Y-161407768D01*
X15532780Y-161931578D02*
X15532780Y-162550625D01*
X15532780Y-162550625D02*
X15151828Y-162217292D01*
X15151828Y-162217292D02*
X15151828Y-162360149D01*
X15151828Y-162360149D02*
X15104209Y-162455387D01*
X15104209Y-162455387D02*
X15056590Y-162503006D01*
X15056590Y-162503006D02*
X14961352Y-162550625D01*
X14961352Y-162550625D02*
X14723257Y-162550625D01*
X14723257Y-162550625D02*
X14628019Y-162503006D01*
X14628019Y-162503006D02*
X14580400Y-162455387D01*
X14580400Y-162455387D02*
X14532780Y-162360149D01*
X14532780Y-162360149D02*
X14532780Y-162074435D01*
X14532780Y-162074435D02*
X14580400Y-161979197D01*
X14580400Y-161979197D02*
X14628019Y-161931578D01*
D11*
X37025939Y-193517257D02*
X36025939Y-192088685D01*
X35311653Y-193517257D02*
X35311653Y-190517257D01*
X35311653Y-190517257D02*
X36454510Y-190517257D01*
X36454510Y-190517257D02*
X36740225Y-190660114D01*
X36740225Y-190660114D02*
X36883082Y-190802971D01*
X36883082Y-190802971D02*
X37025939Y-191088685D01*
X37025939Y-191088685D02*
X37025939Y-191517257D01*
X37025939Y-191517257D02*
X36883082Y-191802971D01*
X36883082Y-191802971D02*
X36740225Y-191945828D01*
X36740225Y-191945828D02*
X36454510Y-192088685D01*
X36454510Y-192088685D02*
X35311653Y-192088685D01*
X38168796Y-193374400D02*
X38597368Y-193517257D01*
X38597368Y-193517257D02*
X39311653Y-193517257D01*
X39311653Y-193517257D02*
X39597368Y-193374400D01*
X39597368Y-193374400D02*
X39740225Y-193231542D01*
X39740225Y-193231542D02*
X39883082Y-192945828D01*
X39883082Y-192945828D02*
X39883082Y-192660114D01*
X39883082Y-192660114D02*
X39740225Y-192374400D01*
X39740225Y-192374400D02*
X39597368Y-192231542D01*
X39597368Y-192231542D02*
X39311653Y-192088685D01*
X39311653Y-192088685D02*
X38740225Y-191945828D01*
X38740225Y-191945828D02*
X38454510Y-191802971D01*
X38454510Y-191802971D02*
X38311653Y-191660114D01*
X38311653Y-191660114D02*
X38168796Y-191374400D01*
X38168796Y-191374400D02*
X38168796Y-191088685D01*
X38168796Y-191088685D02*
X38311653Y-190802971D01*
X38311653Y-190802971D02*
X38454510Y-190660114D01*
X38454510Y-190660114D02*
X38740225Y-190517257D01*
X38740225Y-190517257D02*
X39454510Y-190517257D01*
X39454510Y-190517257D02*
X39883082Y-190660114D01*
X41025939Y-190802971D02*
X41168796Y-190660114D01*
X41168796Y-190660114D02*
X41454511Y-190517257D01*
X41454511Y-190517257D02*
X42168796Y-190517257D01*
X42168796Y-190517257D02*
X42454511Y-190660114D01*
X42454511Y-190660114D02*
X42597368Y-190802971D01*
X42597368Y-190802971D02*
X42740225Y-191088685D01*
X42740225Y-191088685D02*
X42740225Y-191374400D01*
X42740225Y-191374400D02*
X42597368Y-191802971D01*
X42597368Y-191802971D02*
X40883082Y-193517257D01*
X40883082Y-193517257D02*
X42740225Y-193517257D01*
X43740225Y-190517257D02*
X45597368Y-190517257D01*
X45597368Y-190517257D02*
X44597368Y-191660114D01*
X44597368Y-191660114D02*
X45025939Y-191660114D01*
X45025939Y-191660114D02*
X45311654Y-191802971D01*
X45311654Y-191802971D02*
X45454511Y-191945828D01*
X45454511Y-191945828D02*
X45597368Y-192231542D01*
X45597368Y-192231542D02*
X45597368Y-192945828D01*
X45597368Y-192945828D02*
X45454511Y-193231542D01*
X45454511Y-193231542D02*
X45311654Y-193374400D01*
X45311654Y-193374400D02*
X45025939Y-193517257D01*
X45025939Y-193517257D02*
X44168796Y-193517257D01*
X44168796Y-193517257D02*
X43883082Y-193374400D01*
X43883082Y-193374400D02*
X43740225Y-193231542D01*
X46740225Y-190802971D02*
X46883082Y-190660114D01*
X46883082Y-190660114D02*
X47168797Y-190517257D01*
X47168797Y-190517257D02*
X47883082Y-190517257D01*
X47883082Y-190517257D02*
X48168797Y-190660114D01*
X48168797Y-190660114D02*
X48311654Y-190802971D01*
X48311654Y-190802971D02*
X48454511Y-191088685D01*
X48454511Y-191088685D02*
X48454511Y-191374400D01*
X48454511Y-191374400D02*
X48311654Y-191802971D01*
X48311654Y-191802971D02*
X46597368Y-193517257D01*
X46597368Y-193517257D02*
X48454511Y-193517257D01*
X79025939Y-192517257D02*
X78025939Y-191088685D01*
X77311653Y-192517257D02*
X77311653Y-189517257D01*
X77311653Y-189517257D02*
X78454510Y-189517257D01*
X78454510Y-189517257D02*
X78740225Y-189660114D01*
X78740225Y-189660114D02*
X78883082Y-189802971D01*
X78883082Y-189802971D02*
X79025939Y-190088685D01*
X79025939Y-190088685D02*
X79025939Y-190517257D01*
X79025939Y-190517257D02*
X78883082Y-190802971D01*
X78883082Y-190802971D02*
X78740225Y-190945828D01*
X78740225Y-190945828D02*
X78454510Y-191088685D01*
X78454510Y-191088685D02*
X77311653Y-191088685D01*
X80168796Y-192374400D02*
X80597368Y-192517257D01*
X80597368Y-192517257D02*
X81311653Y-192517257D01*
X81311653Y-192517257D02*
X81597368Y-192374400D01*
X81597368Y-192374400D02*
X81740225Y-192231542D01*
X81740225Y-192231542D02*
X81883082Y-191945828D01*
X81883082Y-191945828D02*
X81883082Y-191660114D01*
X81883082Y-191660114D02*
X81740225Y-191374400D01*
X81740225Y-191374400D02*
X81597368Y-191231542D01*
X81597368Y-191231542D02*
X81311653Y-191088685D01*
X81311653Y-191088685D02*
X80740225Y-190945828D01*
X80740225Y-190945828D02*
X80454510Y-190802971D01*
X80454510Y-190802971D02*
X80311653Y-190660114D01*
X80311653Y-190660114D02*
X80168796Y-190374400D01*
X80168796Y-190374400D02*
X80168796Y-190088685D01*
X80168796Y-190088685D02*
X80311653Y-189802971D01*
X80311653Y-189802971D02*
X80454510Y-189660114D01*
X80454510Y-189660114D02*
X80740225Y-189517257D01*
X80740225Y-189517257D02*
X81454510Y-189517257D01*
X81454510Y-189517257D02*
X81883082Y-189660114D01*
X84454511Y-190517257D02*
X84454511Y-192517257D01*
X83740225Y-189374400D02*
X83025939Y-191517257D01*
X83025939Y-191517257D02*
X84883082Y-191517257D01*
X86454511Y-190802971D02*
X86168796Y-190660114D01*
X86168796Y-190660114D02*
X86025939Y-190517257D01*
X86025939Y-190517257D02*
X85883082Y-190231542D01*
X85883082Y-190231542D02*
X85883082Y-190088685D01*
X85883082Y-190088685D02*
X86025939Y-189802971D01*
X86025939Y-189802971D02*
X86168796Y-189660114D01*
X86168796Y-189660114D02*
X86454511Y-189517257D01*
X86454511Y-189517257D02*
X87025939Y-189517257D01*
X87025939Y-189517257D02*
X87311654Y-189660114D01*
X87311654Y-189660114D02*
X87454511Y-189802971D01*
X87454511Y-189802971D02*
X87597368Y-190088685D01*
X87597368Y-190088685D02*
X87597368Y-190231542D01*
X87597368Y-190231542D02*
X87454511Y-190517257D01*
X87454511Y-190517257D02*
X87311654Y-190660114D01*
X87311654Y-190660114D02*
X87025939Y-190802971D01*
X87025939Y-190802971D02*
X86454511Y-190802971D01*
X86454511Y-190802971D02*
X86168796Y-190945828D01*
X86168796Y-190945828D02*
X86025939Y-191088685D01*
X86025939Y-191088685D02*
X85883082Y-191374400D01*
X85883082Y-191374400D02*
X85883082Y-191945828D01*
X85883082Y-191945828D02*
X86025939Y-192231542D01*
X86025939Y-192231542D02*
X86168796Y-192374400D01*
X86168796Y-192374400D02*
X86454511Y-192517257D01*
X86454511Y-192517257D02*
X87025939Y-192517257D01*
X87025939Y-192517257D02*
X87311654Y-192374400D01*
X87311654Y-192374400D02*
X87454511Y-192231542D01*
X87454511Y-192231542D02*
X87597368Y-191945828D01*
X87597368Y-191945828D02*
X87597368Y-191374400D01*
X87597368Y-191374400D02*
X87454511Y-191088685D01*
X87454511Y-191088685D02*
X87311654Y-190945828D01*
X87311654Y-190945828D02*
X87025939Y-190802971D01*
X90311654Y-189517257D02*
X88883082Y-189517257D01*
X88883082Y-189517257D02*
X88740225Y-190945828D01*
X88740225Y-190945828D02*
X88883082Y-190802971D01*
X88883082Y-190802971D02*
X89168797Y-190660114D01*
X89168797Y-190660114D02*
X89883082Y-190660114D01*
X89883082Y-190660114D02*
X90168797Y-190802971D01*
X90168797Y-190802971D02*
X90311654Y-190945828D01*
X90311654Y-190945828D02*
X90454511Y-191231542D01*
X90454511Y-191231542D02*
X90454511Y-191945828D01*
X90454511Y-191945828D02*
X90311654Y-192231542D01*
X90311654Y-192231542D02*
X90168797Y-192374400D01*
X90168797Y-192374400D02*
X89883082Y-192517257D01*
X89883082Y-192517257D02*
X89168797Y-192517257D01*
X89168797Y-192517257D02*
X88883082Y-192374400D01*
X88883082Y-192374400D02*
X88740225Y-192231542D01*
X17782742Y-162011653D02*
X20782742Y-162011653D01*
X20782742Y-164011653D02*
X20782742Y-164583081D01*
X20782742Y-164583081D02*
X20639885Y-164868796D01*
X20639885Y-164868796D02*
X20354171Y-165154510D01*
X20354171Y-165154510D02*
X19782742Y-165297367D01*
X19782742Y-165297367D02*
X18782742Y-165297367D01*
X18782742Y-165297367D02*
X18211314Y-165154510D01*
X18211314Y-165154510D02*
X17925600Y-164868796D01*
X17925600Y-164868796D02*
X17782742Y-164583081D01*
X17782742Y-164583081D02*
X17782742Y-164011653D01*
X17782742Y-164011653D02*
X17925600Y-163725939D01*
X17925600Y-163725939D02*
X18211314Y-163440224D01*
X18211314Y-163440224D02*
X18782742Y-163297367D01*
X18782742Y-163297367D02*
X19782742Y-163297367D01*
X19782742Y-163297367D02*
X20354171Y-163440224D01*
X20354171Y-163440224D02*
X20639885Y-163725939D01*
X20639885Y-163725939D02*
X20782742Y-164011653D01*
X18939885Y-129168796D02*
X18939885Y-130597368D01*
X18082742Y-128883082D02*
X21082742Y-129883082D01*
X21082742Y-129883082D02*
X18082742Y-130883082D01*
X18082742Y-131883082D02*
X21082742Y-131883082D01*
X21082742Y-131883082D02*
X21082742Y-132597368D01*
X21082742Y-132597368D02*
X20939885Y-133025939D01*
X20939885Y-133025939D02*
X20654171Y-133311654D01*
X20654171Y-133311654D02*
X20368457Y-133454511D01*
X20368457Y-133454511D02*
X19797028Y-133597368D01*
X19797028Y-133597368D02*
X19368457Y-133597368D01*
X19368457Y-133597368D02*
X18797028Y-133454511D01*
X18797028Y-133454511D02*
X18511314Y-133311654D01*
X18511314Y-133311654D02*
X18225600Y-133025939D01*
X18225600Y-133025939D02*
X18082742Y-132597368D01*
X18082742Y-132597368D02*
X18082742Y-131883082D01*
X18368457Y-136597368D02*
X18225600Y-136454511D01*
X18225600Y-136454511D02*
X18082742Y-136025939D01*
X18082742Y-136025939D02*
X18082742Y-135740225D01*
X18082742Y-135740225D02*
X18225600Y-135311654D01*
X18225600Y-135311654D02*
X18511314Y-135025939D01*
X18511314Y-135025939D02*
X18797028Y-134883082D01*
X18797028Y-134883082D02*
X19368457Y-134740225D01*
X19368457Y-134740225D02*
X19797028Y-134740225D01*
X19797028Y-134740225D02*
X20368457Y-134883082D01*
X20368457Y-134883082D02*
X20654171Y-135025939D01*
X20654171Y-135025939D02*
X20939885Y-135311654D01*
X20939885Y-135311654D02*
X21082742Y-135740225D01*
X21082742Y-135740225D02*
X21082742Y-136025939D01*
X21082742Y-136025939D02*
X20939885Y-136454511D01*
X20939885Y-136454511D02*
X20797028Y-136597368D01*
D12*
X52854819Y-181549404D02*
X53664342Y-181549404D01*
X53664342Y-181549404D02*
X53759580Y-181501785D01*
X53759580Y-181501785D02*
X53807200Y-181454166D01*
X53807200Y-181454166D02*
X53854819Y-181358928D01*
X53854819Y-181358928D02*
X53854819Y-181168452D01*
X53854819Y-181168452D02*
X53807200Y-181073214D01*
X53807200Y-181073214D02*
X53759580Y-181025595D01*
X53759580Y-181025595D02*
X53664342Y-180977976D01*
X53664342Y-180977976D02*
X52854819Y-180977976D01*
X52854819Y-180597023D02*
X52854819Y-179977976D01*
X52854819Y-179977976D02*
X53235771Y-180311309D01*
X53235771Y-180311309D02*
X53235771Y-180168452D01*
X53235771Y-180168452D02*
X53283390Y-180073214D01*
X53283390Y-180073214D02*
X53331009Y-180025595D01*
X53331009Y-180025595D02*
X53426247Y-179977976D01*
X53426247Y-179977976D02*
X53664342Y-179977976D01*
X53664342Y-179977976D02*
X53759580Y-180025595D01*
X53759580Y-180025595D02*
X53807200Y-180073214D01*
X53807200Y-180073214D02*
X53854819Y-180168452D01*
X53854819Y-180168452D02*
X53854819Y-180454166D01*
X53854819Y-180454166D02*
X53807200Y-180549404D01*
X53807200Y-180549404D02*
X53759580Y-180597023D01*
X59211905Y-130754819D02*
X59211905Y-129754819D01*
X59211905Y-129754819D02*
X59450000Y-129754819D01*
X59450000Y-129754819D02*
X59592857Y-129802438D01*
X59592857Y-129802438D02*
X59688095Y-129897676D01*
X59688095Y-129897676D02*
X59735714Y-129992914D01*
X59735714Y-129992914D02*
X59783333Y-130183390D01*
X59783333Y-130183390D02*
X59783333Y-130326247D01*
X59783333Y-130326247D02*
X59735714Y-130516723D01*
X59735714Y-130516723D02*
X59688095Y-130611961D01*
X59688095Y-130611961D02*
X59592857Y-130707200D01*
X59592857Y-130707200D02*
X59450000Y-130754819D01*
X59450000Y-130754819D02*
X59211905Y-130754819D01*
X60354762Y-130183390D02*
X60259524Y-130135771D01*
X60259524Y-130135771D02*
X60211905Y-130088152D01*
X60211905Y-130088152D02*
X60164286Y-129992914D01*
X60164286Y-129992914D02*
X60164286Y-129945295D01*
X60164286Y-129945295D02*
X60211905Y-129850057D01*
X60211905Y-129850057D02*
X60259524Y-129802438D01*
X60259524Y-129802438D02*
X60354762Y-129754819D01*
X60354762Y-129754819D02*
X60545238Y-129754819D01*
X60545238Y-129754819D02*
X60640476Y-129802438D01*
X60640476Y-129802438D02*
X60688095Y-129850057D01*
X60688095Y-129850057D02*
X60735714Y-129945295D01*
X60735714Y-129945295D02*
X60735714Y-129992914D01*
X60735714Y-129992914D02*
X60688095Y-130088152D01*
X60688095Y-130088152D02*
X60640476Y-130135771D01*
X60640476Y-130135771D02*
X60545238Y-130183390D01*
X60545238Y-130183390D02*
X60354762Y-130183390D01*
X60354762Y-130183390D02*
X60259524Y-130231009D01*
X60259524Y-130231009D02*
X60211905Y-130278628D01*
X60211905Y-130278628D02*
X60164286Y-130373866D01*
X60164286Y-130373866D02*
X60164286Y-130564342D01*
X60164286Y-130564342D02*
X60211905Y-130659580D01*
X60211905Y-130659580D02*
X60259524Y-130707200D01*
X60259524Y-130707200D02*
X60354762Y-130754819D01*
X60354762Y-130754819D02*
X60545238Y-130754819D01*
X60545238Y-130754819D02*
X60640476Y-130707200D01*
X60640476Y-130707200D02*
X60688095Y-130659580D01*
X60688095Y-130659580D02*
X60735714Y-130564342D01*
X60735714Y-130564342D02*
X60735714Y-130373866D01*
X60735714Y-130373866D02*
X60688095Y-130278628D01*
X60688095Y-130278628D02*
X60640476Y-130231009D01*
X60640476Y-130231009D02*
X60545238Y-130183390D01*
X37423809Y-148078628D02*
X37423809Y-148554819D01*
X37090476Y-147554819D02*
X37423809Y-148078628D01*
X37423809Y-148078628D02*
X37757142Y-147554819D01*
X38042857Y-147650057D02*
X38090476Y-147602438D01*
X38090476Y-147602438D02*
X38185714Y-147554819D01*
X38185714Y-147554819D02*
X38423809Y-147554819D01*
X38423809Y-147554819D02*
X38519047Y-147602438D01*
X38519047Y-147602438D02*
X38566666Y-147650057D01*
X38566666Y-147650057D02*
X38614285Y-147745295D01*
X38614285Y-147745295D02*
X38614285Y-147840533D01*
X38614285Y-147840533D02*
X38566666Y-147983390D01*
X38566666Y-147983390D02*
X37995238Y-148554819D01*
X37995238Y-148554819D02*
X38614285Y-148554819D01*
X77400714Y-162994819D02*
X77400714Y-161994819D01*
X77400714Y-161994819D02*
X77638809Y-161994819D01*
X77638809Y-161994819D02*
X77781666Y-162042438D01*
X77781666Y-162042438D02*
X77876904Y-162137676D01*
X77876904Y-162137676D02*
X77924523Y-162232914D01*
X77924523Y-162232914D02*
X77972142Y-162423390D01*
X77972142Y-162423390D02*
X77972142Y-162566247D01*
X77972142Y-162566247D02*
X77924523Y-162756723D01*
X77924523Y-162756723D02*
X77876904Y-162851961D01*
X77876904Y-162851961D02*
X77781666Y-162947200D01*
X77781666Y-162947200D02*
X77638809Y-162994819D01*
X77638809Y-162994819D02*
X77400714Y-162994819D01*
X78924523Y-162994819D02*
X78353095Y-162994819D01*
X78638809Y-162994819D02*
X78638809Y-161994819D01*
X78638809Y-161994819D02*
X78543571Y-162137676D01*
X78543571Y-162137676D02*
X78448333Y-162232914D01*
X78448333Y-162232914D02*
X78353095Y-162280533D01*
X79543571Y-161994819D02*
X79638809Y-161994819D01*
X79638809Y-161994819D02*
X79734047Y-162042438D01*
X79734047Y-162042438D02*
X79781666Y-162090057D01*
X79781666Y-162090057D02*
X79829285Y-162185295D01*
X79829285Y-162185295D02*
X79876904Y-162375771D01*
X79876904Y-162375771D02*
X79876904Y-162613866D01*
X79876904Y-162613866D02*
X79829285Y-162804342D01*
X79829285Y-162804342D02*
X79781666Y-162899580D01*
X79781666Y-162899580D02*
X79734047Y-162947200D01*
X79734047Y-162947200D02*
X79638809Y-162994819D01*
X79638809Y-162994819D02*
X79543571Y-162994819D01*
X79543571Y-162994819D02*
X79448333Y-162947200D01*
X79448333Y-162947200D02*
X79400714Y-162899580D01*
X79400714Y-162899580D02*
X79353095Y-162804342D01*
X79353095Y-162804342D02*
X79305476Y-162613866D01*
X79305476Y-162613866D02*
X79305476Y-162375771D01*
X79305476Y-162375771D02*
X79353095Y-162185295D01*
X79353095Y-162185295D02*
X79400714Y-162090057D01*
X79400714Y-162090057D02*
X79448333Y-162042438D01*
X79448333Y-162042438D02*
X79543571Y-161994819D01*
X52338095Y-150154819D02*
X52338095Y-150964342D01*
X52338095Y-150964342D02*
X52385714Y-151059580D01*
X52385714Y-151059580D02*
X52433333Y-151107200D01*
X52433333Y-151107200D02*
X52528571Y-151154819D01*
X52528571Y-151154819D02*
X52719047Y-151154819D01*
X52719047Y-151154819D02*
X52814285Y-151107200D01*
X52814285Y-151107200D02*
X52861904Y-151059580D01*
X52861904Y-151059580D02*
X52909523Y-150964342D01*
X52909523Y-150964342D02*
X52909523Y-150154819D01*
X53909523Y-151154819D02*
X53338095Y-151154819D01*
X53623809Y-151154819D02*
X53623809Y-150154819D01*
X53623809Y-150154819D02*
X53528571Y-150297676D01*
X53528571Y-150297676D02*
X53433333Y-150392914D01*
X53433333Y-150392914D02*
X53338095Y-150440533D01*
X69757142Y-133154819D02*
X69423809Y-132678628D01*
X69185714Y-133154819D02*
X69185714Y-132154819D01*
X69185714Y-132154819D02*
X69566666Y-132154819D01*
X69566666Y-132154819D02*
X69661904Y-132202438D01*
X69661904Y-132202438D02*
X69709523Y-132250057D01*
X69709523Y-132250057D02*
X69757142Y-132345295D01*
X69757142Y-132345295D02*
X69757142Y-132488152D01*
X69757142Y-132488152D02*
X69709523Y-132583390D01*
X69709523Y-132583390D02*
X69661904Y-132631009D01*
X69661904Y-132631009D02*
X69566666Y-132678628D01*
X69566666Y-132678628D02*
X69185714Y-132678628D01*
X70709523Y-133154819D02*
X70138095Y-133154819D01*
X70423809Y-133154819D02*
X70423809Y-132154819D01*
X70423809Y-132154819D02*
X70328571Y-132297676D01*
X70328571Y-132297676D02*
X70233333Y-132392914D01*
X70233333Y-132392914D02*
X70138095Y-132440533D01*
X71042857Y-132154819D02*
X71709523Y-132154819D01*
X71709523Y-132154819D02*
X71280952Y-133154819D01*
X6354819Y-174889523D02*
X7069104Y-174889523D01*
X7069104Y-174889523D02*
X7211961Y-174937142D01*
X7211961Y-174937142D02*
X7307200Y-175032380D01*
X7307200Y-175032380D02*
X7354819Y-175175237D01*
X7354819Y-175175237D02*
X7354819Y-175270475D01*
X7354819Y-173889523D02*
X7354819Y-174460951D01*
X7354819Y-174175237D02*
X6354819Y-174175237D01*
X6354819Y-174175237D02*
X6497676Y-174270475D01*
X6497676Y-174270475D02*
X6592914Y-174365713D01*
X6592914Y-174365713D02*
X6640533Y-174460951D01*
X6354819Y-173270475D02*
X6354819Y-173175237D01*
X6354819Y-173175237D02*
X6402438Y-173079999D01*
X6402438Y-173079999D02*
X6450057Y-173032380D01*
X6450057Y-173032380D02*
X6545295Y-172984761D01*
X6545295Y-172984761D02*
X6735771Y-172937142D01*
X6735771Y-172937142D02*
X6973866Y-172937142D01*
X6973866Y-172937142D02*
X7164342Y-172984761D01*
X7164342Y-172984761D02*
X7259580Y-173032380D01*
X7259580Y-173032380D02*
X7307200Y-173079999D01*
X7307200Y-173079999D02*
X7354819Y-173175237D01*
X7354819Y-173175237D02*
X7354819Y-173270475D01*
X7354819Y-173270475D02*
X7307200Y-173365713D01*
X7307200Y-173365713D02*
X7259580Y-173413332D01*
X7259580Y-173413332D02*
X7164342Y-173460951D01*
X7164342Y-173460951D02*
X6973866Y-173508570D01*
X6973866Y-173508570D02*
X6735771Y-173508570D01*
X6735771Y-173508570D02*
X6545295Y-173460951D01*
X6545295Y-173460951D02*
X6450057Y-173413332D01*
X6450057Y-173413332D02*
X6402438Y-173365713D01*
X6402438Y-173365713D02*
X6354819Y-173270475D01*
X82257142Y-166554819D02*
X81923809Y-166078628D01*
X81685714Y-166554819D02*
X81685714Y-165554819D01*
X81685714Y-165554819D02*
X82066666Y-165554819D01*
X82066666Y-165554819D02*
X82161904Y-165602438D01*
X82161904Y-165602438D02*
X82209523Y-165650057D01*
X82209523Y-165650057D02*
X82257142Y-165745295D01*
X82257142Y-165745295D02*
X82257142Y-165888152D01*
X82257142Y-165888152D02*
X82209523Y-165983390D01*
X82209523Y-165983390D02*
X82161904Y-166031009D01*
X82161904Y-166031009D02*
X82066666Y-166078628D01*
X82066666Y-166078628D02*
X81685714Y-166078628D01*
X83209523Y-166554819D02*
X82638095Y-166554819D01*
X82923809Y-166554819D02*
X82923809Y-165554819D01*
X82923809Y-165554819D02*
X82828571Y-165697676D01*
X82828571Y-165697676D02*
X82733333Y-165792914D01*
X82733333Y-165792914D02*
X82638095Y-165840533D01*
X83780952Y-165983390D02*
X83685714Y-165935771D01*
X83685714Y-165935771D02*
X83638095Y-165888152D01*
X83638095Y-165888152D02*
X83590476Y-165792914D01*
X83590476Y-165792914D02*
X83590476Y-165745295D01*
X83590476Y-165745295D02*
X83638095Y-165650057D01*
X83638095Y-165650057D02*
X83685714Y-165602438D01*
X83685714Y-165602438D02*
X83780952Y-165554819D01*
X83780952Y-165554819D02*
X83971428Y-165554819D01*
X83971428Y-165554819D02*
X84066666Y-165602438D01*
X84066666Y-165602438D02*
X84114285Y-165650057D01*
X84114285Y-165650057D02*
X84161904Y-165745295D01*
X84161904Y-165745295D02*
X84161904Y-165792914D01*
X84161904Y-165792914D02*
X84114285Y-165888152D01*
X84114285Y-165888152D02*
X84066666Y-165935771D01*
X84066666Y-165935771D02*
X83971428Y-165983390D01*
X83971428Y-165983390D02*
X83780952Y-165983390D01*
X83780952Y-165983390D02*
X83685714Y-166031009D01*
X83685714Y-166031009D02*
X83638095Y-166078628D01*
X83638095Y-166078628D02*
X83590476Y-166173866D01*
X83590476Y-166173866D02*
X83590476Y-166364342D01*
X83590476Y-166364342D02*
X83638095Y-166459580D01*
X83638095Y-166459580D02*
X83685714Y-166507200D01*
X83685714Y-166507200D02*
X83780952Y-166554819D01*
X83780952Y-166554819D02*
X83971428Y-166554819D01*
X83971428Y-166554819D02*
X84066666Y-166507200D01*
X84066666Y-166507200D02*
X84114285Y-166459580D01*
X84114285Y-166459580D02*
X84161904Y-166364342D01*
X84161904Y-166364342D02*
X84161904Y-166173866D01*
X84161904Y-166173866D02*
X84114285Y-166078628D01*
X84114285Y-166078628D02*
X84066666Y-166031009D01*
X84066666Y-166031009D02*
X83971428Y-165983390D01*
X24159580Y-192766666D02*
X24207200Y-192814285D01*
X24207200Y-192814285D02*
X24254819Y-192957142D01*
X24254819Y-192957142D02*
X24254819Y-193052380D01*
X24254819Y-193052380D02*
X24207200Y-193195237D01*
X24207200Y-193195237D02*
X24111961Y-193290475D01*
X24111961Y-193290475D02*
X24016723Y-193338094D01*
X24016723Y-193338094D02*
X23826247Y-193385713D01*
X23826247Y-193385713D02*
X23683390Y-193385713D01*
X23683390Y-193385713D02*
X23492914Y-193338094D01*
X23492914Y-193338094D02*
X23397676Y-193290475D01*
X23397676Y-193290475D02*
X23302438Y-193195237D01*
X23302438Y-193195237D02*
X23254819Y-193052380D01*
X23254819Y-193052380D02*
X23254819Y-192957142D01*
X23254819Y-192957142D02*
X23302438Y-192814285D01*
X23302438Y-192814285D02*
X23350057Y-192766666D01*
X23254819Y-192433332D02*
X23254819Y-191766666D01*
X23254819Y-191766666D02*
X24254819Y-192195237D01*
X16504819Y-135042857D02*
X16028628Y-135376190D01*
X16504819Y-135614285D02*
X15504819Y-135614285D01*
X15504819Y-135614285D02*
X15504819Y-135233333D01*
X15504819Y-135233333D02*
X15552438Y-135138095D01*
X15552438Y-135138095D02*
X15600057Y-135090476D01*
X15600057Y-135090476D02*
X15695295Y-135042857D01*
X15695295Y-135042857D02*
X15838152Y-135042857D01*
X15838152Y-135042857D02*
X15933390Y-135090476D01*
X15933390Y-135090476D02*
X15981009Y-135138095D01*
X15981009Y-135138095D02*
X16028628Y-135233333D01*
X16028628Y-135233333D02*
X16028628Y-135614285D01*
X16504819Y-134090476D02*
X16504819Y-134661904D01*
X16504819Y-134376190D02*
X15504819Y-134376190D01*
X15504819Y-134376190D02*
X15647676Y-134471428D01*
X15647676Y-134471428D02*
X15742914Y-134566666D01*
X15742914Y-134566666D02*
X15790533Y-134661904D01*
X15838152Y-133233333D02*
X16504819Y-133233333D01*
X15457200Y-133471428D02*
X16171485Y-133709523D01*
X16171485Y-133709523D02*
X16171485Y-133090476D01*
X59633333Y-189342319D02*
X59300000Y-188866128D01*
X59061905Y-189342319D02*
X59061905Y-188342319D01*
X59061905Y-188342319D02*
X59442857Y-188342319D01*
X59442857Y-188342319D02*
X59538095Y-188389938D01*
X59538095Y-188389938D02*
X59585714Y-188437557D01*
X59585714Y-188437557D02*
X59633333Y-188532795D01*
X59633333Y-188532795D02*
X59633333Y-188675652D01*
X59633333Y-188675652D02*
X59585714Y-188770890D01*
X59585714Y-188770890D02*
X59538095Y-188818509D01*
X59538095Y-188818509D02*
X59442857Y-188866128D01*
X59442857Y-188866128D02*
X59061905Y-188866128D01*
X60204762Y-188770890D02*
X60109524Y-188723271D01*
X60109524Y-188723271D02*
X60061905Y-188675652D01*
X60061905Y-188675652D02*
X60014286Y-188580414D01*
X60014286Y-188580414D02*
X60014286Y-188532795D01*
X60014286Y-188532795D02*
X60061905Y-188437557D01*
X60061905Y-188437557D02*
X60109524Y-188389938D01*
X60109524Y-188389938D02*
X60204762Y-188342319D01*
X60204762Y-188342319D02*
X60395238Y-188342319D01*
X60395238Y-188342319D02*
X60490476Y-188389938D01*
X60490476Y-188389938D02*
X60538095Y-188437557D01*
X60538095Y-188437557D02*
X60585714Y-188532795D01*
X60585714Y-188532795D02*
X60585714Y-188580414D01*
X60585714Y-188580414D02*
X60538095Y-188675652D01*
X60538095Y-188675652D02*
X60490476Y-188723271D01*
X60490476Y-188723271D02*
X60395238Y-188770890D01*
X60395238Y-188770890D02*
X60204762Y-188770890D01*
X60204762Y-188770890D02*
X60109524Y-188818509D01*
X60109524Y-188818509D02*
X60061905Y-188866128D01*
X60061905Y-188866128D02*
X60014286Y-188961366D01*
X60014286Y-188961366D02*
X60014286Y-189151842D01*
X60014286Y-189151842D02*
X60061905Y-189247080D01*
X60061905Y-189247080D02*
X60109524Y-189294700D01*
X60109524Y-189294700D02*
X60204762Y-189342319D01*
X60204762Y-189342319D02*
X60395238Y-189342319D01*
X60395238Y-189342319D02*
X60490476Y-189294700D01*
X60490476Y-189294700D02*
X60538095Y-189247080D01*
X60538095Y-189247080D02*
X60585714Y-189151842D01*
X60585714Y-189151842D02*
X60585714Y-188961366D01*
X60585714Y-188961366D02*
X60538095Y-188866128D01*
X60538095Y-188866128D02*
X60490476Y-188818509D01*
X60490476Y-188818509D02*
X60395238Y-188770890D01*
X96957142Y-162659580D02*
X96909523Y-162707200D01*
X96909523Y-162707200D02*
X96766666Y-162754819D01*
X96766666Y-162754819D02*
X96671428Y-162754819D01*
X96671428Y-162754819D02*
X96528571Y-162707200D01*
X96528571Y-162707200D02*
X96433333Y-162611961D01*
X96433333Y-162611961D02*
X96385714Y-162516723D01*
X96385714Y-162516723D02*
X96338095Y-162326247D01*
X96338095Y-162326247D02*
X96338095Y-162183390D01*
X96338095Y-162183390D02*
X96385714Y-161992914D01*
X96385714Y-161992914D02*
X96433333Y-161897676D01*
X96433333Y-161897676D02*
X96528571Y-161802438D01*
X96528571Y-161802438D02*
X96671428Y-161754819D01*
X96671428Y-161754819D02*
X96766666Y-161754819D01*
X96766666Y-161754819D02*
X96909523Y-161802438D01*
X96909523Y-161802438D02*
X96957142Y-161850057D01*
X97338095Y-161850057D02*
X97385714Y-161802438D01*
X97385714Y-161802438D02*
X97480952Y-161754819D01*
X97480952Y-161754819D02*
X97719047Y-161754819D01*
X97719047Y-161754819D02*
X97814285Y-161802438D01*
X97814285Y-161802438D02*
X97861904Y-161850057D01*
X97861904Y-161850057D02*
X97909523Y-161945295D01*
X97909523Y-161945295D02*
X97909523Y-162040533D01*
X97909523Y-162040533D02*
X97861904Y-162183390D01*
X97861904Y-162183390D02*
X97290476Y-162754819D01*
X97290476Y-162754819D02*
X97909523Y-162754819D01*
X98242857Y-161754819D02*
X98861904Y-161754819D01*
X98861904Y-161754819D02*
X98528571Y-162135771D01*
X98528571Y-162135771D02*
X98671428Y-162135771D01*
X98671428Y-162135771D02*
X98766666Y-162183390D01*
X98766666Y-162183390D02*
X98814285Y-162231009D01*
X98814285Y-162231009D02*
X98861904Y-162326247D01*
X98861904Y-162326247D02*
X98861904Y-162564342D01*
X98861904Y-162564342D02*
X98814285Y-162659580D01*
X98814285Y-162659580D02*
X98766666Y-162707200D01*
X98766666Y-162707200D02*
X98671428Y-162754819D01*
X98671428Y-162754819D02*
X98385714Y-162754819D01*
X98385714Y-162754819D02*
X98290476Y-162707200D01*
X98290476Y-162707200D02*
X98242857Y-162659580D01*
X34178628Y-157726190D02*
X34654819Y-157726190D01*
X33654819Y-158059523D02*
X34178628Y-157726190D01*
X34178628Y-157726190D02*
X33654819Y-157392857D01*
X34654819Y-156535714D02*
X34654819Y-157107142D01*
X34654819Y-156821428D02*
X33654819Y-156821428D01*
X33654819Y-156821428D02*
X33797676Y-156916666D01*
X33797676Y-156916666D02*
X33892914Y-157011904D01*
X33892914Y-157011904D02*
X33940533Y-157107142D01*
X16833333Y-180159580D02*
X16785714Y-180207200D01*
X16785714Y-180207200D02*
X16642857Y-180254819D01*
X16642857Y-180254819D02*
X16547619Y-180254819D01*
X16547619Y-180254819D02*
X16404762Y-180207200D01*
X16404762Y-180207200D02*
X16309524Y-180111961D01*
X16309524Y-180111961D02*
X16261905Y-180016723D01*
X16261905Y-180016723D02*
X16214286Y-179826247D01*
X16214286Y-179826247D02*
X16214286Y-179683390D01*
X16214286Y-179683390D02*
X16261905Y-179492914D01*
X16261905Y-179492914D02*
X16309524Y-179397676D01*
X16309524Y-179397676D02*
X16404762Y-179302438D01*
X16404762Y-179302438D02*
X16547619Y-179254819D01*
X16547619Y-179254819D02*
X16642857Y-179254819D01*
X16642857Y-179254819D02*
X16785714Y-179302438D01*
X16785714Y-179302438D02*
X16833333Y-179350057D01*
X17738095Y-179254819D02*
X17261905Y-179254819D01*
X17261905Y-179254819D02*
X17214286Y-179731009D01*
X17214286Y-179731009D02*
X17261905Y-179683390D01*
X17261905Y-179683390D02*
X17357143Y-179635771D01*
X17357143Y-179635771D02*
X17595238Y-179635771D01*
X17595238Y-179635771D02*
X17690476Y-179683390D01*
X17690476Y-179683390D02*
X17738095Y-179731009D01*
X17738095Y-179731009D02*
X17785714Y-179826247D01*
X17785714Y-179826247D02*
X17785714Y-180064342D01*
X17785714Y-180064342D02*
X17738095Y-180159580D01*
X17738095Y-180159580D02*
X17690476Y-180207200D01*
X17690476Y-180207200D02*
X17595238Y-180254819D01*
X17595238Y-180254819D02*
X17357143Y-180254819D01*
X17357143Y-180254819D02*
X17261905Y-180207200D01*
X17261905Y-180207200D02*
X17214286Y-180159580D01*
X45449580Y-146391666D02*
X45497200Y-146439285D01*
X45497200Y-146439285D02*
X45544819Y-146582142D01*
X45544819Y-146582142D02*
X45544819Y-146677380D01*
X45544819Y-146677380D02*
X45497200Y-146820237D01*
X45497200Y-146820237D02*
X45401961Y-146915475D01*
X45401961Y-146915475D02*
X45306723Y-146963094D01*
X45306723Y-146963094D02*
X45116247Y-147010713D01*
X45116247Y-147010713D02*
X44973390Y-147010713D01*
X44973390Y-147010713D02*
X44782914Y-146963094D01*
X44782914Y-146963094D02*
X44687676Y-146915475D01*
X44687676Y-146915475D02*
X44592438Y-146820237D01*
X44592438Y-146820237D02*
X44544819Y-146677380D01*
X44544819Y-146677380D02*
X44544819Y-146582142D01*
X44544819Y-146582142D02*
X44592438Y-146439285D01*
X44592438Y-146439285D02*
X44640057Y-146391666D01*
X44640057Y-146010713D02*
X44592438Y-145963094D01*
X44592438Y-145963094D02*
X44544819Y-145867856D01*
X44544819Y-145867856D02*
X44544819Y-145629761D01*
X44544819Y-145629761D02*
X44592438Y-145534523D01*
X44592438Y-145534523D02*
X44640057Y-145486904D01*
X44640057Y-145486904D02*
X44735295Y-145439285D01*
X44735295Y-145439285D02*
X44830533Y-145439285D01*
X44830533Y-145439285D02*
X44973390Y-145486904D01*
X44973390Y-145486904D02*
X45544819Y-146058332D01*
X45544819Y-146058332D02*
X45544819Y-145439285D01*
X74616666Y-120454819D02*
X74616666Y-121169104D01*
X74616666Y-121169104D02*
X74569047Y-121311961D01*
X74569047Y-121311961D02*
X74473809Y-121407200D01*
X74473809Y-121407200D02*
X74330952Y-121454819D01*
X74330952Y-121454819D02*
X74235714Y-121454819D01*
X75521428Y-120788152D02*
X75521428Y-121454819D01*
X75283333Y-120407200D02*
X75045238Y-121121485D01*
X75045238Y-121121485D02*
X75664285Y-121121485D01*
X90057142Y-122559580D02*
X90009523Y-122607200D01*
X90009523Y-122607200D02*
X89866666Y-122654819D01*
X89866666Y-122654819D02*
X89771428Y-122654819D01*
X89771428Y-122654819D02*
X89628571Y-122607200D01*
X89628571Y-122607200D02*
X89533333Y-122511961D01*
X89533333Y-122511961D02*
X89485714Y-122416723D01*
X89485714Y-122416723D02*
X89438095Y-122226247D01*
X89438095Y-122226247D02*
X89438095Y-122083390D01*
X89438095Y-122083390D02*
X89485714Y-121892914D01*
X89485714Y-121892914D02*
X89533333Y-121797676D01*
X89533333Y-121797676D02*
X89628571Y-121702438D01*
X89628571Y-121702438D02*
X89771428Y-121654819D01*
X89771428Y-121654819D02*
X89866666Y-121654819D01*
X89866666Y-121654819D02*
X90009523Y-121702438D01*
X90009523Y-121702438D02*
X90057142Y-121750057D01*
X90438095Y-121750057D02*
X90485714Y-121702438D01*
X90485714Y-121702438D02*
X90580952Y-121654819D01*
X90580952Y-121654819D02*
X90819047Y-121654819D01*
X90819047Y-121654819D02*
X90914285Y-121702438D01*
X90914285Y-121702438D02*
X90961904Y-121750057D01*
X90961904Y-121750057D02*
X91009523Y-121845295D01*
X91009523Y-121845295D02*
X91009523Y-121940533D01*
X91009523Y-121940533D02*
X90961904Y-122083390D01*
X90961904Y-122083390D02*
X90390476Y-122654819D01*
X90390476Y-122654819D02*
X91009523Y-122654819D01*
X91628571Y-121654819D02*
X91723809Y-121654819D01*
X91723809Y-121654819D02*
X91819047Y-121702438D01*
X91819047Y-121702438D02*
X91866666Y-121750057D01*
X91866666Y-121750057D02*
X91914285Y-121845295D01*
X91914285Y-121845295D02*
X91961904Y-122035771D01*
X91961904Y-122035771D02*
X91961904Y-122273866D01*
X91961904Y-122273866D02*
X91914285Y-122464342D01*
X91914285Y-122464342D02*
X91866666Y-122559580D01*
X91866666Y-122559580D02*
X91819047Y-122607200D01*
X91819047Y-122607200D02*
X91723809Y-122654819D01*
X91723809Y-122654819D02*
X91628571Y-122654819D01*
X91628571Y-122654819D02*
X91533333Y-122607200D01*
X91533333Y-122607200D02*
X91485714Y-122559580D01*
X91485714Y-122559580D02*
X91438095Y-122464342D01*
X91438095Y-122464342D02*
X91390476Y-122273866D01*
X91390476Y-122273866D02*
X91390476Y-122035771D01*
X91390476Y-122035771D02*
X91438095Y-121845295D01*
X91438095Y-121845295D02*
X91485714Y-121750057D01*
X91485714Y-121750057D02*
X91533333Y-121702438D01*
X91533333Y-121702438D02*
X91628571Y-121654819D01*
X64433333Y-179442319D02*
X64100000Y-178966128D01*
X63861905Y-179442319D02*
X63861905Y-178442319D01*
X63861905Y-178442319D02*
X64242857Y-178442319D01*
X64242857Y-178442319D02*
X64338095Y-178489938D01*
X64338095Y-178489938D02*
X64385714Y-178537557D01*
X64385714Y-178537557D02*
X64433333Y-178632795D01*
X64433333Y-178632795D02*
X64433333Y-178775652D01*
X64433333Y-178775652D02*
X64385714Y-178870890D01*
X64385714Y-178870890D02*
X64338095Y-178918509D01*
X64338095Y-178918509D02*
X64242857Y-178966128D01*
X64242857Y-178966128D02*
X63861905Y-178966128D01*
X65290476Y-178775652D02*
X65290476Y-179442319D01*
X65052381Y-178394700D02*
X64814286Y-179108985D01*
X64814286Y-179108985D02*
X65433333Y-179108985D01*
X58485714Y-133154819D02*
X58485714Y-132154819D01*
X58485714Y-132154819D02*
X58723809Y-132154819D01*
X58723809Y-132154819D02*
X58866666Y-132202438D01*
X58866666Y-132202438D02*
X58961904Y-132297676D01*
X58961904Y-132297676D02*
X59009523Y-132392914D01*
X59009523Y-132392914D02*
X59057142Y-132583390D01*
X59057142Y-132583390D02*
X59057142Y-132726247D01*
X59057142Y-132726247D02*
X59009523Y-132916723D01*
X59009523Y-132916723D02*
X58961904Y-133011961D01*
X58961904Y-133011961D02*
X58866666Y-133107200D01*
X58866666Y-133107200D02*
X58723809Y-133154819D01*
X58723809Y-133154819D02*
X58485714Y-133154819D01*
X60009523Y-133154819D02*
X59438095Y-133154819D01*
X59723809Y-133154819D02*
X59723809Y-132154819D01*
X59723809Y-132154819D02*
X59628571Y-132297676D01*
X59628571Y-132297676D02*
X59533333Y-132392914D01*
X59533333Y-132392914D02*
X59438095Y-132440533D01*
X60961904Y-133154819D02*
X60390476Y-133154819D01*
X60676190Y-133154819D02*
X60676190Y-132154819D01*
X60676190Y-132154819D02*
X60580952Y-132297676D01*
X60580952Y-132297676D02*
X60485714Y-132392914D01*
X60485714Y-132392914D02*
X60390476Y-132440533D01*
X64533333Y-181442319D02*
X64200000Y-180966128D01*
X63961905Y-181442319D02*
X63961905Y-180442319D01*
X63961905Y-180442319D02*
X64342857Y-180442319D01*
X64342857Y-180442319D02*
X64438095Y-180489938D01*
X64438095Y-180489938D02*
X64485714Y-180537557D01*
X64485714Y-180537557D02*
X64533333Y-180632795D01*
X64533333Y-180632795D02*
X64533333Y-180775652D01*
X64533333Y-180775652D02*
X64485714Y-180870890D01*
X64485714Y-180870890D02*
X64438095Y-180918509D01*
X64438095Y-180918509D02*
X64342857Y-180966128D01*
X64342857Y-180966128D02*
X63961905Y-180966128D01*
X65438095Y-180442319D02*
X64961905Y-180442319D01*
X64961905Y-180442319D02*
X64914286Y-180918509D01*
X64914286Y-180918509D02*
X64961905Y-180870890D01*
X64961905Y-180870890D02*
X65057143Y-180823271D01*
X65057143Y-180823271D02*
X65295238Y-180823271D01*
X65295238Y-180823271D02*
X65390476Y-180870890D01*
X65390476Y-180870890D02*
X65438095Y-180918509D01*
X65438095Y-180918509D02*
X65485714Y-181013747D01*
X65485714Y-181013747D02*
X65485714Y-181251842D01*
X65485714Y-181251842D02*
X65438095Y-181347080D01*
X65438095Y-181347080D02*
X65390476Y-181394700D01*
X65390476Y-181394700D02*
X65295238Y-181442319D01*
X65295238Y-181442319D02*
X65057143Y-181442319D01*
X65057143Y-181442319D02*
X64961905Y-181394700D01*
X64961905Y-181394700D02*
X64914286Y-181347080D01*
X29159580Y-192666666D02*
X29207200Y-192714285D01*
X29207200Y-192714285D02*
X29254819Y-192857142D01*
X29254819Y-192857142D02*
X29254819Y-192952380D01*
X29254819Y-192952380D02*
X29207200Y-193095237D01*
X29207200Y-193095237D02*
X29111961Y-193190475D01*
X29111961Y-193190475D02*
X29016723Y-193238094D01*
X29016723Y-193238094D02*
X28826247Y-193285713D01*
X28826247Y-193285713D02*
X28683390Y-193285713D01*
X28683390Y-193285713D02*
X28492914Y-193238094D01*
X28492914Y-193238094D02*
X28397676Y-193190475D01*
X28397676Y-193190475D02*
X28302438Y-193095237D01*
X28302438Y-193095237D02*
X28254819Y-192952380D01*
X28254819Y-192952380D02*
X28254819Y-192857142D01*
X28254819Y-192857142D02*
X28302438Y-192714285D01*
X28302438Y-192714285D02*
X28350057Y-192666666D01*
X28683390Y-192095237D02*
X28635771Y-192190475D01*
X28635771Y-192190475D02*
X28588152Y-192238094D01*
X28588152Y-192238094D02*
X28492914Y-192285713D01*
X28492914Y-192285713D02*
X28445295Y-192285713D01*
X28445295Y-192285713D02*
X28350057Y-192238094D01*
X28350057Y-192238094D02*
X28302438Y-192190475D01*
X28302438Y-192190475D02*
X28254819Y-192095237D01*
X28254819Y-192095237D02*
X28254819Y-191904761D01*
X28254819Y-191904761D02*
X28302438Y-191809523D01*
X28302438Y-191809523D02*
X28350057Y-191761904D01*
X28350057Y-191761904D02*
X28445295Y-191714285D01*
X28445295Y-191714285D02*
X28492914Y-191714285D01*
X28492914Y-191714285D02*
X28588152Y-191761904D01*
X28588152Y-191761904D02*
X28635771Y-191809523D01*
X28635771Y-191809523D02*
X28683390Y-191904761D01*
X28683390Y-191904761D02*
X28683390Y-192095237D01*
X28683390Y-192095237D02*
X28731009Y-192190475D01*
X28731009Y-192190475D02*
X28778628Y-192238094D01*
X28778628Y-192238094D02*
X28873866Y-192285713D01*
X28873866Y-192285713D02*
X29064342Y-192285713D01*
X29064342Y-192285713D02*
X29159580Y-192238094D01*
X29159580Y-192238094D02*
X29207200Y-192190475D01*
X29207200Y-192190475D02*
X29254819Y-192095237D01*
X29254819Y-192095237D02*
X29254819Y-191904761D01*
X29254819Y-191904761D02*
X29207200Y-191809523D01*
X29207200Y-191809523D02*
X29159580Y-191761904D01*
X29159580Y-191761904D02*
X29064342Y-191714285D01*
X29064342Y-191714285D02*
X28873866Y-191714285D01*
X28873866Y-191714285D02*
X28778628Y-191761904D01*
X28778628Y-191761904D02*
X28731009Y-191809523D01*
X28731009Y-191809523D02*
X28683390Y-191904761D01*
X56706666Y-202954819D02*
X56706666Y-203669104D01*
X56706666Y-203669104D02*
X56659047Y-203811961D01*
X56659047Y-203811961D02*
X56563809Y-203907200D01*
X56563809Y-203907200D02*
X56420952Y-203954819D01*
X56420952Y-203954819D02*
X56325714Y-203954819D01*
X57659047Y-202954819D02*
X57182857Y-202954819D01*
X57182857Y-202954819D02*
X57135238Y-203431009D01*
X57135238Y-203431009D02*
X57182857Y-203383390D01*
X57182857Y-203383390D02*
X57278095Y-203335771D01*
X57278095Y-203335771D02*
X57516190Y-203335771D01*
X57516190Y-203335771D02*
X57611428Y-203383390D01*
X57611428Y-203383390D02*
X57659047Y-203431009D01*
X57659047Y-203431009D02*
X57706666Y-203526247D01*
X57706666Y-203526247D02*
X57706666Y-203764342D01*
X57706666Y-203764342D02*
X57659047Y-203859580D01*
X57659047Y-203859580D02*
X57611428Y-203907200D01*
X57611428Y-203907200D02*
X57516190Y-203954819D01*
X57516190Y-203954819D02*
X57278095Y-203954819D01*
X57278095Y-203954819D02*
X57182857Y-203907200D01*
X57182857Y-203907200D02*
X57135238Y-203859580D01*
X32757142Y-160659580D02*
X32709523Y-160707200D01*
X32709523Y-160707200D02*
X32566666Y-160754819D01*
X32566666Y-160754819D02*
X32471428Y-160754819D01*
X32471428Y-160754819D02*
X32328571Y-160707200D01*
X32328571Y-160707200D02*
X32233333Y-160611961D01*
X32233333Y-160611961D02*
X32185714Y-160516723D01*
X32185714Y-160516723D02*
X32138095Y-160326247D01*
X32138095Y-160326247D02*
X32138095Y-160183390D01*
X32138095Y-160183390D02*
X32185714Y-159992914D01*
X32185714Y-159992914D02*
X32233333Y-159897676D01*
X32233333Y-159897676D02*
X32328571Y-159802438D01*
X32328571Y-159802438D02*
X32471428Y-159754819D01*
X32471428Y-159754819D02*
X32566666Y-159754819D01*
X32566666Y-159754819D02*
X32709523Y-159802438D01*
X32709523Y-159802438D02*
X32757142Y-159850057D01*
X33709523Y-160754819D02*
X33138095Y-160754819D01*
X33423809Y-160754819D02*
X33423809Y-159754819D01*
X33423809Y-159754819D02*
X33328571Y-159897676D01*
X33328571Y-159897676D02*
X33233333Y-159992914D01*
X33233333Y-159992914D02*
X33138095Y-160040533D01*
X34090476Y-159850057D02*
X34138095Y-159802438D01*
X34138095Y-159802438D02*
X34233333Y-159754819D01*
X34233333Y-159754819D02*
X34471428Y-159754819D01*
X34471428Y-159754819D02*
X34566666Y-159802438D01*
X34566666Y-159802438D02*
X34614285Y-159850057D01*
X34614285Y-159850057D02*
X34661904Y-159945295D01*
X34661904Y-159945295D02*
X34661904Y-160040533D01*
X34661904Y-160040533D02*
X34614285Y-160183390D01*
X34614285Y-160183390D02*
X34042857Y-160754819D01*
X34042857Y-160754819D02*
X34661904Y-160754819D01*
X93138095Y-169154819D02*
X93138095Y-169964342D01*
X93138095Y-169964342D02*
X93185714Y-170059580D01*
X93185714Y-170059580D02*
X93233333Y-170107200D01*
X93233333Y-170107200D02*
X93328571Y-170154819D01*
X93328571Y-170154819D02*
X93519047Y-170154819D01*
X93519047Y-170154819D02*
X93614285Y-170107200D01*
X93614285Y-170107200D02*
X93661904Y-170059580D01*
X93661904Y-170059580D02*
X93709523Y-169964342D01*
X93709523Y-169964342D02*
X93709523Y-169154819D01*
X94614285Y-169154819D02*
X94423809Y-169154819D01*
X94423809Y-169154819D02*
X94328571Y-169202438D01*
X94328571Y-169202438D02*
X94280952Y-169250057D01*
X94280952Y-169250057D02*
X94185714Y-169392914D01*
X94185714Y-169392914D02*
X94138095Y-169583390D01*
X94138095Y-169583390D02*
X94138095Y-169964342D01*
X94138095Y-169964342D02*
X94185714Y-170059580D01*
X94185714Y-170059580D02*
X94233333Y-170107200D01*
X94233333Y-170107200D02*
X94328571Y-170154819D01*
X94328571Y-170154819D02*
X94519047Y-170154819D01*
X94519047Y-170154819D02*
X94614285Y-170107200D01*
X94614285Y-170107200D02*
X94661904Y-170059580D01*
X94661904Y-170059580D02*
X94709523Y-169964342D01*
X94709523Y-169964342D02*
X94709523Y-169726247D01*
X94709523Y-169726247D02*
X94661904Y-169631009D01*
X94661904Y-169631009D02*
X94614285Y-169583390D01*
X94614285Y-169583390D02*
X94519047Y-169535771D01*
X94519047Y-169535771D02*
X94328571Y-169535771D01*
X94328571Y-169535771D02*
X94233333Y-169583390D01*
X94233333Y-169583390D02*
X94185714Y-169631009D01*
X94185714Y-169631009D02*
X94138095Y-169726247D01*
X84981009Y-175233333D02*
X84981009Y-175566666D01*
X85504819Y-175566666D02*
X84504819Y-175566666D01*
X84504819Y-175566666D02*
X84504819Y-175090476D01*
X85504819Y-174185714D02*
X85504819Y-174757142D01*
X85504819Y-174471428D02*
X84504819Y-174471428D01*
X84504819Y-174471428D02*
X84647676Y-174566666D01*
X84647676Y-174566666D02*
X84742914Y-174661904D01*
X84742914Y-174661904D02*
X84790533Y-174757142D01*
X25959580Y-193642857D02*
X26007200Y-193690476D01*
X26007200Y-193690476D02*
X26054819Y-193833333D01*
X26054819Y-193833333D02*
X26054819Y-193928571D01*
X26054819Y-193928571D02*
X26007200Y-194071428D01*
X26007200Y-194071428D02*
X25911961Y-194166666D01*
X25911961Y-194166666D02*
X25816723Y-194214285D01*
X25816723Y-194214285D02*
X25626247Y-194261904D01*
X25626247Y-194261904D02*
X25483390Y-194261904D01*
X25483390Y-194261904D02*
X25292914Y-194214285D01*
X25292914Y-194214285D02*
X25197676Y-194166666D01*
X25197676Y-194166666D02*
X25102438Y-194071428D01*
X25102438Y-194071428D02*
X25054819Y-193928571D01*
X25054819Y-193928571D02*
X25054819Y-193833333D01*
X25054819Y-193833333D02*
X25102438Y-193690476D01*
X25102438Y-193690476D02*
X25150057Y-193642857D01*
X26054819Y-192690476D02*
X26054819Y-193261904D01*
X26054819Y-192976190D02*
X25054819Y-192976190D01*
X25054819Y-192976190D02*
X25197676Y-193071428D01*
X25197676Y-193071428D02*
X25292914Y-193166666D01*
X25292914Y-193166666D02*
X25340533Y-193261904D01*
X25054819Y-192071428D02*
X25054819Y-191976190D01*
X25054819Y-191976190D02*
X25102438Y-191880952D01*
X25102438Y-191880952D02*
X25150057Y-191833333D01*
X25150057Y-191833333D02*
X25245295Y-191785714D01*
X25245295Y-191785714D02*
X25435771Y-191738095D01*
X25435771Y-191738095D02*
X25673866Y-191738095D01*
X25673866Y-191738095D02*
X25864342Y-191785714D01*
X25864342Y-191785714D02*
X25959580Y-191833333D01*
X25959580Y-191833333D02*
X26007200Y-191880952D01*
X26007200Y-191880952D02*
X26054819Y-191976190D01*
X26054819Y-191976190D02*
X26054819Y-192071428D01*
X26054819Y-192071428D02*
X26007200Y-192166666D01*
X26007200Y-192166666D02*
X25959580Y-192214285D01*
X25959580Y-192214285D02*
X25864342Y-192261904D01*
X25864342Y-192261904D02*
X25673866Y-192309523D01*
X25673866Y-192309523D02*
X25435771Y-192309523D01*
X25435771Y-192309523D02*
X25245295Y-192261904D01*
X25245295Y-192261904D02*
X25150057Y-192214285D01*
X25150057Y-192214285D02*
X25102438Y-192166666D01*
X25102438Y-192166666D02*
X25054819Y-192071428D01*
X20861905Y-180254819D02*
X20861905Y-179254819D01*
X20861905Y-179254819D02*
X21100000Y-179254819D01*
X21100000Y-179254819D02*
X21242857Y-179302438D01*
X21242857Y-179302438D02*
X21338095Y-179397676D01*
X21338095Y-179397676D02*
X21385714Y-179492914D01*
X21385714Y-179492914D02*
X21433333Y-179683390D01*
X21433333Y-179683390D02*
X21433333Y-179826247D01*
X21433333Y-179826247D02*
X21385714Y-180016723D01*
X21385714Y-180016723D02*
X21338095Y-180111961D01*
X21338095Y-180111961D02*
X21242857Y-180207200D01*
X21242857Y-180207200D02*
X21100000Y-180254819D01*
X21100000Y-180254819D02*
X20861905Y-180254819D01*
X21766667Y-179254819D02*
X22385714Y-179254819D01*
X22385714Y-179254819D02*
X22052381Y-179635771D01*
X22052381Y-179635771D02*
X22195238Y-179635771D01*
X22195238Y-179635771D02*
X22290476Y-179683390D01*
X22290476Y-179683390D02*
X22338095Y-179731009D01*
X22338095Y-179731009D02*
X22385714Y-179826247D01*
X22385714Y-179826247D02*
X22385714Y-180064342D01*
X22385714Y-180064342D02*
X22338095Y-180159580D01*
X22338095Y-180159580D02*
X22290476Y-180207200D01*
X22290476Y-180207200D02*
X22195238Y-180254819D01*
X22195238Y-180254819D02*
X21909524Y-180254819D01*
X21909524Y-180254819D02*
X21814286Y-180207200D01*
X21814286Y-180207200D02*
X21766667Y-180159580D01*
X55407200Y-120733332D02*
X55454819Y-120590475D01*
X55454819Y-120590475D02*
X55454819Y-120352380D01*
X55454819Y-120352380D02*
X55407200Y-120257142D01*
X55407200Y-120257142D02*
X55359580Y-120209523D01*
X55359580Y-120209523D02*
X55264342Y-120161904D01*
X55264342Y-120161904D02*
X55169104Y-120161904D01*
X55169104Y-120161904D02*
X55073866Y-120209523D01*
X55073866Y-120209523D02*
X55026247Y-120257142D01*
X55026247Y-120257142D02*
X54978628Y-120352380D01*
X54978628Y-120352380D02*
X54931009Y-120542856D01*
X54931009Y-120542856D02*
X54883390Y-120638094D01*
X54883390Y-120638094D02*
X54835771Y-120685713D01*
X54835771Y-120685713D02*
X54740533Y-120733332D01*
X54740533Y-120733332D02*
X54645295Y-120733332D01*
X54645295Y-120733332D02*
X54550057Y-120685713D01*
X54550057Y-120685713D02*
X54502438Y-120638094D01*
X54502438Y-120638094D02*
X54454819Y-120542856D01*
X54454819Y-120542856D02*
X54454819Y-120304761D01*
X54454819Y-120304761D02*
X54502438Y-120161904D01*
X54454819Y-119828570D02*
X55454819Y-119590475D01*
X55454819Y-119590475D02*
X54740533Y-119399999D01*
X54740533Y-119399999D02*
X55454819Y-119209523D01*
X55454819Y-119209523D02*
X54454819Y-118971428D01*
X54550057Y-118638094D02*
X54502438Y-118590475D01*
X54502438Y-118590475D02*
X54454819Y-118495237D01*
X54454819Y-118495237D02*
X54454819Y-118257142D01*
X54454819Y-118257142D02*
X54502438Y-118161904D01*
X54502438Y-118161904D02*
X54550057Y-118114285D01*
X54550057Y-118114285D02*
X54645295Y-118066666D01*
X54645295Y-118066666D02*
X54740533Y-118066666D01*
X54740533Y-118066666D02*
X54883390Y-118114285D01*
X54883390Y-118114285D02*
X55454819Y-118685713D01*
X55454819Y-118685713D02*
X55454819Y-118066666D01*
X78033333Y-179564819D02*
X77700000Y-179088628D01*
X77461905Y-179564819D02*
X77461905Y-178564819D01*
X77461905Y-178564819D02*
X77842857Y-178564819D01*
X77842857Y-178564819D02*
X77938095Y-178612438D01*
X77938095Y-178612438D02*
X77985714Y-178660057D01*
X77985714Y-178660057D02*
X78033333Y-178755295D01*
X78033333Y-178755295D02*
X78033333Y-178898152D01*
X78033333Y-178898152D02*
X77985714Y-178993390D01*
X77985714Y-178993390D02*
X77938095Y-179041009D01*
X77938095Y-179041009D02*
X77842857Y-179088628D01*
X77842857Y-179088628D02*
X77461905Y-179088628D01*
X78890476Y-178564819D02*
X78700000Y-178564819D01*
X78700000Y-178564819D02*
X78604762Y-178612438D01*
X78604762Y-178612438D02*
X78557143Y-178660057D01*
X78557143Y-178660057D02*
X78461905Y-178802914D01*
X78461905Y-178802914D02*
X78414286Y-178993390D01*
X78414286Y-178993390D02*
X78414286Y-179374342D01*
X78414286Y-179374342D02*
X78461905Y-179469580D01*
X78461905Y-179469580D02*
X78509524Y-179517200D01*
X78509524Y-179517200D02*
X78604762Y-179564819D01*
X78604762Y-179564819D02*
X78795238Y-179564819D01*
X78795238Y-179564819D02*
X78890476Y-179517200D01*
X78890476Y-179517200D02*
X78938095Y-179469580D01*
X78938095Y-179469580D02*
X78985714Y-179374342D01*
X78985714Y-179374342D02*
X78985714Y-179136247D01*
X78985714Y-179136247D02*
X78938095Y-179041009D01*
X78938095Y-179041009D02*
X78890476Y-178993390D01*
X78890476Y-178993390D02*
X78795238Y-178945771D01*
X78795238Y-178945771D02*
X78604762Y-178945771D01*
X78604762Y-178945771D02*
X78509524Y-178993390D01*
X78509524Y-178993390D02*
X78461905Y-179041009D01*
X78461905Y-179041009D02*
X78414286Y-179136247D01*
X69757142Y-128554819D02*
X69423809Y-128078628D01*
X69185714Y-128554819D02*
X69185714Y-127554819D01*
X69185714Y-127554819D02*
X69566666Y-127554819D01*
X69566666Y-127554819D02*
X69661904Y-127602438D01*
X69661904Y-127602438D02*
X69709523Y-127650057D01*
X69709523Y-127650057D02*
X69757142Y-127745295D01*
X69757142Y-127745295D02*
X69757142Y-127888152D01*
X69757142Y-127888152D02*
X69709523Y-127983390D01*
X69709523Y-127983390D02*
X69661904Y-128031009D01*
X69661904Y-128031009D02*
X69566666Y-128078628D01*
X69566666Y-128078628D02*
X69185714Y-128078628D01*
X70709523Y-128554819D02*
X70138095Y-128554819D01*
X70423809Y-128554819D02*
X70423809Y-127554819D01*
X70423809Y-127554819D02*
X70328571Y-127697676D01*
X70328571Y-127697676D02*
X70233333Y-127792914D01*
X70233333Y-127792914D02*
X70138095Y-127840533D01*
X71328571Y-127554819D02*
X71423809Y-127554819D01*
X71423809Y-127554819D02*
X71519047Y-127602438D01*
X71519047Y-127602438D02*
X71566666Y-127650057D01*
X71566666Y-127650057D02*
X71614285Y-127745295D01*
X71614285Y-127745295D02*
X71661904Y-127935771D01*
X71661904Y-127935771D02*
X71661904Y-128173866D01*
X71661904Y-128173866D02*
X71614285Y-128364342D01*
X71614285Y-128364342D02*
X71566666Y-128459580D01*
X71566666Y-128459580D02*
X71519047Y-128507200D01*
X71519047Y-128507200D02*
X71423809Y-128554819D01*
X71423809Y-128554819D02*
X71328571Y-128554819D01*
X71328571Y-128554819D02*
X71233333Y-128507200D01*
X71233333Y-128507200D02*
X71185714Y-128459580D01*
X71185714Y-128459580D02*
X71138095Y-128364342D01*
X71138095Y-128364342D02*
X71090476Y-128173866D01*
X71090476Y-128173866D02*
X71090476Y-127935771D01*
X71090476Y-127935771D02*
X71138095Y-127745295D01*
X71138095Y-127745295D02*
X71185714Y-127650057D01*
X71185714Y-127650057D02*
X71233333Y-127602438D01*
X71233333Y-127602438D02*
X71328571Y-127554819D01*
X94204819Y-178633333D02*
X94919104Y-178633333D01*
X94919104Y-178633333D02*
X95061961Y-178680952D01*
X95061961Y-178680952D02*
X95157200Y-178776190D01*
X95157200Y-178776190D02*
X95204819Y-178919047D01*
X95204819Y-178919047D02*
X95204819Y-179014285D01*
X94204819Y-178252380D02*
X94204819Y-177585714D01*
X94204819Y-177585714D02*
X95204819Y-178014285D01*
X82161905Y-170754819D02*
X82161905Y-169754819D01*
X82161905Y-169754819D02*
X82400000Y-169754819D01*
X82400000Y-169754819D02*
X82542857Y-169802438D01*
X82542857Y-169802438D02*
X82638095Y-169897676D01*
X82638095Y-169897676D02*
X82685714Y-169992914D01*
X82685714Y-169992914D02*
X82733333Y-170183390D01*
X82733333Y-170183390D02*
X82733333Y-170326247D01*
X82733333Y-170326247D02*
X82685714Y-170516723D01*
X82685714Y-170516723D02*
X82638095Y-170611961D01*
X82638095Y-170611961D02*
X82542857Y-170707200D01*
X82542857Y-170707200D02*
X82400000Y-170754819D01*
X82400000Y-170754819D02*
X82161905Y-170754819D01*
X83209524Y-170754819D02*
X83400000Y-170754819D01*
X83400000Y-170754819D02*
X83495238Y-170707200D01*
X83495238Y-170707200D02*
X83542857Y-170659580D01*
X83542857Y-170659580D02*
X83638095Y-170516723D01*
X83638095Y-170516723D02*
X83685714Y-170326247D01*
X83685714Y-170326247D02*
X83685714Y-169945295D01*
X83685714Y-169945295D02*
X83638095Y-169850057D01*
X83638095Y-169850057D02*
X83590476Y-169802438D01*
X83590476Y-169802438D02*
X83495238Y-169754819D01*
X83495238Y-169754819D02*
X83304762Y-169754819D01*
X83304762Y-169754819D02*
X83209524Y-169802438D01*
X83209524Y-169802438D02*
X83161905Y-169850057D01*
X83161905Y-169850057D02*
X83114286Y-169945295D01*
X83114286Y-169945295D02*
X83114286Y-170183390D01*
X83114286Y-170183390D02*
X83161905Y-170278628D01*
X83161905Y-170278628D02*
X83209524Y-170326247D01*
X83209524Y-170326247D02*
X83304762Y-170373866D01*
X83304762Y-170373866D02*
X83495238Y-170373866D01*
X83495238Y-170373866D02*
X83590476Y-170326247D01*
X83590476Y-170326247D02*
X83638095Y-170278628D01*
X83638095Y-170278628D02*
X83685714Y-170183390D01*
X21754819Y-185961904D02*
X22564342Y-185961904D01*
X22564342Y-185961904D02*
X22659580Y-185914285D01*
X22659580Y-185914285D02*
X22707200Y-185866666D01*
X22707200Y-185866666D02*
X22754819Y-185771428D01*
X22754819Y-185771428D02*
X22754819Y-185580952D01*
X22754819Y-185580952D02*
X22707200Y-185485714D01*
X22707200Y-185485714D02*
X22659580Y-185438095D01*
X22659580Y-185438095D02*
X22564342Y-185390476D01*
X22564342Y-185390476D02*
X21754819Y-185390476D01*
X21850057Y-184961904D02*
X21802438Y-184914285D01*
X21802438Y-184914285D02*
X21754819Y-184819047D01*
X21754819Y-184819047D02*
X21754819Y-184580952D01*
X21754819Y-184580952D02*
X21802438Y-184485714D01*
X21802438Y-184485714D02*
X21850057Y-184438095D01*
X21850057Y-184438095D02*
X21945295Y-184390476D01*
X21945295Y-184390476D02*
X22040533Y-184390476D01*
X22040533Y-184390476D02*
X22183390Y-184438095D01*
X22183390Y-184438095D02*
X22754819Y-185009523D01*
X22754819Y-185009523D02*
X22754819Y-184390476D01*
X88857142Y-161954819D02*
X88523809Y-161478628D01*
X88285714Y-161954819D02*
X88285714Y-160954819D01*
X88285714Y-160954819D02*
X88666666Y-160954819D01*
X88666666Y-160954819D02*
X88761904Y-161002438D01*
X88761904Y-161002438D02*
X88809523Y-161050057D01*
X88809523Y-161050057D02*
X88857142Y-161145295D01*
X88857142Y-161145295D02*
X88857142Y-161288152D01*
X88857142Y-161288152D02*
X88809523Y-161383390D01*
X88809523Y-161383390D02*
X88761904Y-161431009D01*
X88761904Y-161431009D02*
X88666666Y-161478628D01*
X88666666Y-161478628D02*
X88285714Y-161478628D01*
X89809523Y-161954819D02*
X89238095Y-161954819D01*
X89523809Y-161954819D02*
X89523809Y-160954819D01*
X89523809Y-160954819D02*
X89428571Y-161097676D01*
X89428571Y-161097676D02*
X89333333Y-161192914D01*
X89333333Y-161192914D02*
X89238095Y-161240533D01*
X90666666Y-160954819D02*
X90476190Y-160954819D01*
X90476190Y-160954819D02*
X90380952Y-161002438D01*
X90380952Y-161002438D02*
X90333333Y-161050057D01*
X90333333Y-161050057D02*
X90238095Y-161192914D01*
X90238095Y-161192914D02*
X90190476Y-161383390D01*
X90190476Y-161383390D02*
X90190476Y-161764342D01*
X90190476Y-161764342D02*
X90238095Y-161859580D01*
X90238095Y-161859580D02*
X90285714Y-161907200D01*
X90285714Y-161907200D02*
X90380952Y-161954819D01*
X90380952Y-161954819D02*
X90571428Y-161954819D01*
X90571428Y-161954819D02*
X90666666Y-161907200D01*
X90666666Y-161907200D02*
X90714285Y-161859580D01*
X90714285Y-161859580D02*
X90761904Y-161764342D01*
X90761904Y-161764342D02*
X90761904Y-161526247D01*
X90761904Y-161526247D02*
X90714285Y-161431009D01*
X90714285Y-161431009D02*
X90666666Y-161383390D01*
X90666666Y-161383390D02*
X90571428Y-161335771D01*
X90571428Y-161335771D02*
X90380952Y-161335771D01*
X90380952Y-161335771D02*
X90285714Y-161383390D01*
X90285714Y-161383390D02*
X90238095Y-161431009D01*
X90238095Y-161431009D02*
X90190476Y-161526247D01*
X30859580Y-193542857D02*
X30907200Y-193590476D01*
X30907200Y-193590476D02*
X30954819Y-193733333D01*
X30954819Y-193733333D02*
X30954819Y-193828571D01*
X30954819Y-193828571D02*
X30907200Y-193971428D01*
X30907200Y-193971428D02*
X30811961Y-194066666D01*
X30811961Y-194066666D02*
X30716723Y-194114285D01*
X30716723Y-194114285D02*
X30526247Y-194161904D01*
X30526247Y-194161904D02*
X30383390Y-194161904D01*
X30383390Y-194161904D02*
X30192914Y-194114285D01*
X30192914Y-194114285D02*
X30097676Y-194066666D01*
X30097676Y-194066666D02*
X30002438Y-193971428D01*
X30002438Y-193971428D02*
X29954819Y-193828571D01*
X29954819Y-193828571D02*
X29954819Y-193733333D01*
X29954819Y-193733333D02*
X30002438Y-193590476D01*
X30002438Y-193590476D02*
X30050057Y-193542857D01*
X30954819Y-192590476D02*
X30954819Y-193161904D01*
X30954819Y-192876190D02*
X29954819Y-192876190D01*
X29954819Y-192876190D02*
X30097676Y-192971428D01*
X30097676Y-192971428D02*
X30192914Y-193066666D01*
X30192914Y-193066666D02*
X30240533Y-193161904D01*
X30954819Y-191638095D02*
X30954819Y-192209523D01*
X30954819Y-191923809D02*
X29954819Y-191923809D01*
X29954819Y-191923809D02*
X30097676Y-192019047D01*
X30097676Y-192019047D02*
X30192914Y-192114285D01*
X30192914Y-192114285D02*
X30240533Y-192209523D01*
X81159580Y-142242857D02*
X81207200Y-142290476D01*
X81207200Y-142290476D02*
X81254819Y-142433333D01*
X81254819Y-142433333D02*
X81254819Y-142528571D01*
X81254819Y-142528571D02*
X81207200Y-142671428D01*
X81207200Y-142671428D02*
X81111961Y-142766666D01*
X81111961Y-142766666D02*
X81016723Y-142814285D01*
X81016723Y-142814285D02*
X80826247Y-142861904D01*
X80826247Y-142861904D02*
X80683390Y-142861904D01*
X80683390Y-142861904D02*
X80492914Y-142814285D01*
X80492914Y-142814285D02*
X80397676Y-142766666D01*
X80397676Y-142766666D02*
X80302438Y-142671428D01*
X80302438Y-142671428D02*
X80254819Y-142528571D01*
X80254819Y-142528571D02*
X80254819Y-142433333D01*
X80254819Y-142433333D02*
X80302438Y-142290476D01*
X80302438Y-142290476D02*
X80350057Y-142242857D01*
X80350057Y-141861904D02*
X80302438Y-141814285D01*
X80302438Y-141814285D02*
X80254819Y-141719047D01*
X80254819Y-141719047D02*
X80254819Y-141480952D01*
X80254819Y-141480952D02*
X80302438Y-141385714D01*
X80302438Y-141385714D02*
X80350057Y-141338095D01*
X80350057Y-141338095D02*
X80445295Y-141290476D01*
X80445295Y-141290476D02*
X80540533Y-141290476D01*
X80540533Y-141290476D02*
X80683390Y-141338095D01*
X80683390Y-141338095D02*
X81254819Y-141909523D01*
X81254819Y-141909523D02*
X81254819Y-141290476D01*
X80588152Y-140433333D02*
X81254819Y-140433333D01*
X80207200Y-140671428D02*
X80921485Y-140909523D01*
X80921485Y-140909523D02*
X80921485Y-140290476D01*
X78057142Y-183259580D02*
X78009523Y-183307200D01*
X78009523Y-183307200D02*
X77866666Y-183354819D01*
X77866666Y-183354819D02*
X77771428Y-183354819D01*
X77771428Y-183354819D02*
X77628571Y-183307200D01*
X77628571Y-183307200D02*
X77533333Y-183211961D01*
X77533333Y-183211961D02*
X77485714Y-183116723D01*
X77485714Y-183116723D02*
X77438095Y-182926247D01*
X77438095Y-182926247D02*
X77438095Y-182783390D01*
X77438095Y-182783390D02*
X77485714Y-182592914D01*
X77485714Y-182592914D02*
X77533333Y-182497676D01*
X77533333Y-182497676D02*
X77628571Y-182402438D01*
X77628571Y-182402438D02*
X77771428Y-182354819D01*
X77771428Y-182354819D02*
X77866666Y-182354819D01*
X77866666Y-182354819D02*
X78009523Y-182402438D01*
X78009523Y-182402438D02*
X78057142Y-182450057D01*
X79009523Y-183354819D02*
X78438095Y-183354819D01*
X78723809Y-183354819D02*
X78723809Y-182354819D01*
X78723809Y-182354819D02*
X78628571Y-182497676D01*
X78628571Y-182497676D02*
X78533333Y-182592914D01*
X78533333Y-182592914D02*
X78438095Y-182640533D01*
X79342857Y-182354819D02*
X80009523Y-182354819D01*
X80009523Y-182354819D02*
X79580952Y-183354819D01*
X25333333Y-126454819D02*
X25000000Y-125978628D01*
X24761905Y-126454819D02*
X24761905Y-125454819D01*
X24761905Y-125454819D02*
X25142857Y-125454819D01*
X25142857Y-125454819D02*
X25238095Y-125502438D01*
X25238095Y-125502438D02*
X25285714Y-125550057D01*
X25285714Y-125550057D02*
X25333333Y-125645295D01*
X25333333Y-125645295D02*
X25333333Y-125788152D01*
X25333333Y-125788152D02*
X25285714Y-125883390D01*
X25285714Y-125883390D02*
X25238095Y-125931009D01*
X25238095Y-125931009D02*
X25142857Y-125978628D01*
X25142857Y-125978628D02*
X24761905Y-125978628D01*
X26285714Y-126454819D02*
X25714286Y-126454819D01*
X26000000Y-126454819D02*
X26000000Y-125454819D01*
X26000000Y-125454819D02*
X25904762Y-125597676D01*
X25904762Y-125597676D02*
X25809524Y-125692914D01*
X25809524Y-125692914D02*
X25714286Y-125740533D01*
X98159580Y-141942857D02*
X98207200Y-141990476D01*
X98207200Y-141990476D02*
X98254819Y-142133333D01*
X98254819Y-142133333D02*
X98254819Y-142228571D01*
X98254819Y-142228571D02*
X98207200Y-142371428D01*
X98207200Y-142371428D02*
X98111961Y-142466666D01*
X98111961Y-142466666D02*
X98016723Y-142514285D01*
X98016723Y-142514285D02*
X97826247Y-142561904D01*
X97826247Y-142561904D02*
X97683390Y-142561904D01*
X97683390Y-142561904D02*
X97492914Y-142514285D01*
X97492914Y-142514285D02*
X97397676Y-142466666D01*
X97397676Y-142466666D02*
X97302438Y-142371428D01*
X97302438Y-142371428D02*
X97254819Y-142228571D01*
X97254819Y-142228571D02*
X97254819Y-142133333D01*
X97254819Y-142133333D02*
X97302438Y-141990476D01*
X97302438Y-141990476D02*
X97350057Y-141942857D01*
X97350057Y-141561904D02*
X97302438Y-141514285D01*
X97302438Y-141514285D02*
X97254819Y-141419047D01*
X97254819Y-141419047D02*
X97254819Y-141180952D01*
X97254819Y-141180952D02*
X97302438Y-141085714D01*
X97302438Y-141085714D02*
X97350057Y-141038095D01*
X97350057Y-141038095D02*
X97445295Y-140990476D01*
X97445295Y-140990476D02*
X97540533Y-140990476D01*
X97540533Y-140990476D02*
X97683390Y-141038095D01*
X97683390Y-141038095D02*
X98254819Y-141609523D01*
X98254819Y-141609523D02*
X98254819Y-140990476D01*
X97254819Y-140085714D02*
X97254819Y-140561904D01*
X97254819Y-140561904D02*
X97731009Y-140609523D01*
X97731009Y-140609523D02*
X97683390Y-140561904D01*
X97683390Y-140561904D02*
X97635771Y-140466666D01*
X97635771Y-140466666D02*
X97635771Y-140228571D01*
X97635771Y-140228571D02*
X97683390Y-140133333D01*
X97683390Y-140133333D02*
X97731009Y-140085714D01*
X97731009Y-140085714D02*
X97826247Y-140038095D01*
X97826247Y-140038095D02*
X98064342Y-140038095D01*
X98064342Y-140038095D02*
X98159580Y-140085714D01*
X98159580Y-140085714D02*
X98207200Y-140133333D01*
X98207200Y-140133333D02*
X98254819Y-140228571D01*
X98254819Y-140228571D02*
X98254819Y-140466666D01*
X98254819Y-140466666D02*
X98207200Y-140561904D01*
X98207200Y-140561904D02*
X98159580Y-140609523D01*
X41333333Y-155859580D02*
X41285714Y-155907200D01*
X41285714Y-155907200D02*
X41142857Y-155954819D01*
X41142857Y-155954819D02*
X41047619Y-155954819D01*
X41047619Y-155954819D02*
X40904762Y-155907200D01*
X40904762Y-155907200D02*
X40809524Y-155811961D01*
X40809524Y-155811961D02*
X40761905Y-155716723D01*
X40761905Y-155716723D02*
X40714286Y-155526247D01*
X40714286Y-155526247D02*
X40714286Y-155383390D01*
X40714286Y-155383390D02*
X40761905Y-155192914D01*
X40761905Y-155192914D02*
X40809524Y-155097676D01*
X40809524Y-155097676D02*
X40904762Y-155002438D01*
X40904762Y-155002438D02*
X41047619Y-154954819D01*
X41047619Y-154954819D02*
X41142857Y-154954819D01*
X41142857Y-154954819D02*
X41285714Y-155002438D01*
X41285714Y-155002438D02*
X41333333Y-155050057D01*
X42285714Y-155954819D02*
X41714286Y-155954819D01*
X42000000Y-155954819D02*
X42000000Y-154954819D01*
X42000000Y-154954819D02*
X41904762Y-155097676D01*
X41904762Y-155097676D02*
X41809524Y-155192914D01*
X41809524Y-155192914D02*
X41714286Y-155240533D01*
X59161905Y-192742319D02*
X59161905Y-191742319D01*
X59161905Y-191742319D02*
X59400000Y-191742319D01*
X59400000Y-191742319D02*
X59542857Y-191789938D01*
X59542857Y-191789938D02*
X59638095Y-191885176D01*
X59638095Y-191885176D02*
X59685714Y-191980414D01*
X59685714Y-191980414D02*
X59733333Y-192170890D01*
X59733333Y-192170890D02*
X59733333Y-192313747D01*
X59733333Y-192313747D02*
X59685714Y-192504223D01*
X59685714Y-192504223D02*
X59638095Y-192599461D01*
X59638095Y-192599461D02*
X59542857Y-192694700D01*
X59542857Y-192694700D02*
X59400000Y-192742319D01*
X59400000Y-192742319D02*
X59161905Y-192742319D01*
X60638095Y-191742319D02*
X60161905Y-191742319D01*
X60161905Y-191742319D02*
X60114286Y-192218509D01*
X60114286Y-192218509D02*
X60161905Y-192170890D01*
X60161905Y-192170890D02*
X60257143Y-192123271D01*
X60257143Y-192123271D02*
X60495238Y-192123271D01*
X60495238Y-192123271D02*
X60590476Y-192170890D01*
X60590476Y-192170890D02*
X60638095Y-192218509D01*
X60638095Y-192218509D02*
X60685714Y-192313747D01*
X60685714Y-192313747D02*
X60685714Y-192551842D01*
X60685714Y-192551842D02*
X60638095Y-192647080D01*
X60638095Y-192647080D02*
X60590476Y-192694700D01*
X60590476Y-192694700D02*
X60495238Y-192742319D01*
X60495238Y-192742319D02*
X60257143Y-192742319D01*
X60257143Y-192742319D02*
X60161905Y-192694700D01*
X60161905Y-192694700D02*
X60114286Y-192647080D01*
X78057142Y-185059580D02*
X78009523Y-185107200D01*
X78009523Y-185107200D02*
X77866666Y-185154819D01*
X77866666Y-185154819D02*
X77771428Y-185154819D01*
X77771428Y-185154819D02*
X77628571Y-185107200D01*
X77628571Y-185107200D02*
X77533333Y-185011961D01*
X77533333Y-185011961D02*
X77485714Y-184916723D01*
X77485714Y-184916723D02*
X77438095Y-184726247D01*
X77438095Y-184726247D02*
X77438095Y-184583390D01*
X77438095Y-184583390D02*
X77485714Y-184392914D01*
X77485714Y-184392914D02*
X77533333Y-184297676D01*
X77533333Y-184297676D02*
X77628571Y-184202438D01*
X77628571Y-184202438D02*
X77771428Y-184154819D01*
X77771428Y-184154819D02*
X77866666Y-184154819D01*
X77866666Y-184154819D02*
X78009523Y-184202438D01*
X78009523Y-184202438D02*
X78057142Y-184250057D01*
X79009523Y-185154819D02*
X78438095Y-185154819D01*
X78723809Y-185154819D02*
X78723809Y-184154819D01*
X78723809Y-184154819D02*
X78628571Y-184297676D01*
X78628571Y-184297676D02*
X78533333Y-184392914D01*
X78533333Y-184392914D02*
X78438095Y-184440533D01*
X79580952Y-184583390D02*
X79485714Y-184535771D01*
X79485714Y-184535771D02*
X79438095Y-184488152D01*
X79438095Y-184488152D02*
X79390476Y-184392914D01*
X79390476Y-184392914D02*
X79390476Y-184345295D01*
X79390476Y-184345295D02*
X79438095Y-184250057D01*
X79438095Y-184250057D02*
X79485714Y-184202438D01*
X79485714Y-184202438D02*
X79580952Y-184154819D01*
X79580952Y-184154819D02*
X79771428Y-184154819D01*
X79771428Y-184154819D02*
X79866666Y-184202438D01*
X79866666Y-184202438D02*
X79914285Y-184250057D01*
X79914285Y-184250057D02*
X79961904Y-184345295D01*
X79961904Y-184345295D02*
X79961904Y-184392914D01*
X79961904Y-184392914D02*
X79914285Y-184488152D01*
X79914285Y-184488152D02*
X79866666Y-184535771D01*
X79866666Y-184535771D02*
X79771428Y-184583390D01*
X79771428Y-184583390D02*
X79580952Y-184583390D01*
X79580952Y-184583390D02*
X79485714Y-184631009D01*
X79485714Y-184631009D02*
X79438095Y-184678628D01*
X79438095Y-184678628D02*
X79390476Y-184773866D01*
X79390476Y-184773866D02*
X79390476Y-184964342D01*
X79390476Y-184964342D02*
X79438095Y-185059580D01*
X79438095Y-185059580D02*
X79485714Y-185107200D01*
X79485714Y-185107200D02*
X79580952Y-185154819D01*
X79580952Y-185154819D02*
X79771428Y-185154819D01*
X79771428Y-185154819D02*
X79866666Y-185107200D01*
X79866666Y-185107200D02*
X79914285Y-185059580D01*
X79914285Y-185059580D02*
X79961904Y-184964342D01*
X79961904Y-184964342D02*
X79961904Y-184773866D01*
X79961904Y-184773866D02*
X79914285Y-184678628D01*
X79914285Y-184678628D02*
X79866666Y-184631009D01*
X79866666Y-184631009D02*
X79771428Y-184583390D01*
X69757142Y-130754819D02*
X69423809Y-130278628D01*
X69185714Y-130754819D02*
X69185714Y-129754819D01*
X69185714Y-129754819D02*
X69566666Y-129754819D01*
X69566666Y-129754819D02*
X69661904Y-129802438D01*
X69661904Y-129802438D02*
X69709523Y-129850057D01*
X69709523Y-129850057D02*
X69757142Y-129945295D01*
X69757142Y-129945295D02*
X69757142Y-130088152D01*
X69757142Y-130088152D02*
X69709523Y-130183390D01*
X69709523Y-130183390D02*
X69661904Y-130231009D01*
X69661904Y-130231009D02*
X69566666Y-130278628D01*
X69566666Y-130278628D02*
X69185714Y-130278628D01*
X70709523Y-130754819D02*
X70138095Y-130754819D01*
X70423809Y-130754819D02*
X70423809Y-129754819D01*
X70423809Y-129754819D02*
X70328571Y-129897676D01*
X70328571Y-129897676D02*
X70233333Y-129992914D01*
X70233333Y-129992914D02*
X70138095Y-130040533D01*
X71661904Y-130754819D02*
X71090476Y-130754819D01*
X71376190Y-130754819D02*
X71376190Y-129754819D01*
X71376190Y-129754819D02*
X71280952Y-129897676D01*
X71280952Y-129897676D02*
X71185714Y-129992914D01*
X71185714Y-129992914D02*
X71090476Y-130040533D01*
X64457142Y-185147080D02*
X64409523Y-185194700D01*
X64409523Y-185194700D02*
X64266666Y-185242319D01*
X64266666Y-185242319D02*
X64171428Y-185242319D01*
X64171428Y-185242319D02*
X64028571Y-185194700D01*
X64028571Y-185194700D02*
X63933333Y-185099461D01*
X63933333Y-185099461D02*
X63885714Y-185004223D01*
X63885714Y-185004223D02*
X63838095Y-184813747D01*
X63838095Y-184813747D02*
X63838095Y-184670890D01*
X63838095Y-184670890D02*
X63885714Y-184480414D01*
X63885714Y-184480414D02*
X63933333Y-184385176D01*
X63933333Y-184385176D02*
X64028571Y-184289938D01*
X64028571Y-184289938D02*
X64171428Y-184242319D01*
X64171428Y-184242319D02*
X64266666Y-184242319D01*
X64266666Y-184242319D02*
X64409523Y-184289938D01*
X64409523Y-184289938D02*
X64457142Y-184337557D01*
X65409523Y-185242319D02*
X64838095Y-185242319D01*
X65123809Y-185242319D02*
X65123809Y-184242319D01*
X65123809Y-184242319D02*
X65028571Y-184385176D01*
X65028571Y-184385176D02*
X64933333Y-184480414D01*
X64933333Y-184480414D02*
X64838095Y-184528033D01*
X66266666Y-184242319D02*
X66076190Y-184242319D01*
X66076190Y-184242319D02*
X65980952Y-184289938D01*
X65980952Y-184289938D02*
X65933333Y-184337557D01*
X65933333Y-184337557D02*
X65838095Y-184480414D01*
X65838095Y-184480414D02*
X65790476Y-184670890D01*
X65790476Y-184670890D02*
X65790476Y-185051842D01*
X65790476Y-185051842D02*
X65838095Y-185147080D01*
X65838095Y-185147080D02*
X65885714Y-185194700D01*
X65885714Y-185194700D02*
X65980952Y-185242319D01*
X65980952Y-185242319D02*
X66171428Y-185242319D01*
X66171428Y-185242319D02*
X66266666Y-185194700D01*
X66266666Y-185194700D02*
X66314285Y-185147080D01*
X66314285Y-185147080D02*
X66361904Y-185051842D01*
X66361904Y-185051842D02*
X66361904Y-184813747D01*
X66361904Y-184813747D02*
X66314285Y-184718509D01*
X66314285Y-184718509D02*
X66266666Y-184670890D01*
X66266666Y-184670890D02*
X66171428Y-184623271D01*
X66171428Y-184623271D02*
X65980952Y-184623271D01*
X65980952Y-184623271D02*
X65885714Y-184670890D01*
X65885714Y-184670890D02*
X65838095Y-184718509D01*
X65838095Y-184718509D02*
X65790476Y-184813747D01*
X78058333Y-181454819D02*
X77725000Y-180978628D01*
X77486905Y-181454819D02*
X77486905Y-180454819D01*
X77486905Y-180454819D02*
X77867857Y-180454819D01*
X77867857Y-180454819D02*
X77963095Y-180502438D01*
X77963095Y-180502438D02*
X78010714Y-180550057D01*
X78010714Y-180550057D02*
X78058333Y-180645295D01*
X78058333Y-180645295D02*
X78058333Y-180788152D01*
X78058333Y-180788152D02*
X78010714Y-180883390D01*
X78010714Y-180883390D02*
X77963095Y-180931009D01*
X77963095Y-180931009D02*
X77867857Y-180978628D01*
X77867857Y-180978628D02*
X77486905Y-180978628D01*
X78391667Y-180454819D02*
X79058333Y-180454819D01*
X79058333Y-180454819D02*
X78629762Y-181454819D01*
X82657142Y-168359580D02*
X82609523Y-168407200D01*
X82609523Y-168407200D02*
X82466666Y-168454819D01*
X82466666Y-168454819D02*
X82371428Y-168454819D01*
X82371428Y-168454819D02*
X82228571Y-168407200D01*
X82228571Y-168407200D02*
X82133333Y-168311961D01*
X82133333Y-168311961D02*
X82085714Y-168216723D01*
X82085714Y-168216723D02*
X82038095Y-168026247D01*
X82038095Y-168026247D02*
X82038095Y-167883390D01*
X82038095Y-167883390D02*
X82085714Y-167692914D01*
X82085714Y-167692914D02*
X82133333Y-167597676D01*
X82133333Y-167597676D02*
X82228571Y-167502438D01*
X82228571Y-167502438D02*
X82371428Y-167454819D01*
X82371428Y-167454819D02*
X82466666Y-167454819D01*
X82466666Y-167454819D02*
X82609523Y-167502438D01*
X82609523Y-167502438D02*
X82657142Y-167550057D01*
X83038095Y-167550057D02*
X83085714Y-167502438D01*
X83085714Y-167502438D02*
X83180952Y-167454819D01*
X83180952Y-167454819D02*
X83419047Y-167454819D01*
X83419047Y-167454819D02*
X83514285Y-167502438D01*
X83514285Y-167502438D02*
X83561904Y-167550057D01*
X83561904Y-167550057D02*
X83609523Y-167645295D01*
X83609523Y-167645295D02*
X83609523Y-167740533D01*
X83609523Y-167740533D02*
X83561904Y-167883390D01*
X83561904Y-167883390D02*
X82990476Y-168454819D01*
X82990476Y-168454819D02*
X83609523Y-168454819D01*
X83990476Y-167550057D02*
X84038095Y-167502438D01*
X84038095Y-167502438D02*
X84133333Y-167454819D01*
X84133333Y-167454819D02*
X84371428Y-167454819D01*
X84371428Y-167454819D02*
X84466666Y-167502438D01*
X84466666Y-167502438D02*
X84514285Y-167550057D01*
X84514285Y-167550057D02*
X84561904Y-167645295D01*
X84561904Y-167645295D02*
X84561904Y-167740533D01*
X84561904Y-167740533D02*
X84514285Y-167883390D01*
X84514285Y-167883390D02*
X83942857Y-168454819D01*
X83942857Y-168454819D02*
X84561904Y-168454819D01*
X70206666Y-202954819D02*
X70206666Y-203669104D01*
X70206666Y-203669104D02*
X70159047Y-203811961D01*
X70159047Y-203811961D02*
X70063809Y-203907200D01*
X70063809Y-203907200D02*
X69920952Y-203954819D01*
X69920952Y-203954819D02*
X69825714Y-203954819D01*
X71111428Y-202954819D02*
X70920952Y-202954819D01*
X70920952Y-202954819D02*
X70825714Y-203002438D01*
X70825714Y-203002438D02*
X70778095Y-203050057D01*
X70778095Y-203050057D02*
X70682857Y-203192914D01*
X70682857Y-203192914D02*
X70635238Y-203383390D01*
X70635238Y-203383390D02*
X70635238Y-203764342D01*
X70635238Y-203764342D02*
X70682857Y-203859580D01*
X70682857Y-203859580D02*
X70730476Y-203907200D01*
X70730476Y-203907200D02*
X70825714Y-203954819D01*
X70825714Y-203954819D02*
X71016190Y-203954819D01*
X71016190Y-203954819D02*
X71111428Y-203907200D01*
X71111428Y-203907200D02*
X71159047Y-203859580D01*
X71159047Y-203859580D02*
X71206666Y-203764342D01*
X71206666Y-203764342D02*
X71206666Y-203526247D01*
X71206666Y-203526247D02*
X71159047Y-203431009D01*
X71159047Y-203431009D02*
X71111428Y-203383390D01*
X71111428Y-203383390D02*
X71016190Y-203335771D01*
X71016190Y-203335771D02*
X70825714Y-203335771D01*
X70825714Y-203335771D02*
X70730476Y-203383390D01*
X70730476Y-203383390D02*
X70682857Y-203431009D01*
X70682857Y-203431009D02*
X70635238Y-203526247D01*
X41207200Y-120783332D02*
X41254819Y-120640475D01*
X41254819Y-120640475D02*
X41254819Y-120402380D01*
X41254819Y-120402380D02*
X41207200Y-120307142D01*
X41207200Y-120307142D02*
X41159580Y-120259523D01*
X41159580Y-120259523D02*
X41064342Y-120211904D01*
X41064342Y-120211904D02*
X40969104Y-120211904D01*
X40969104Y-120211904D02*
X40873866Y-120259523D01*
X40873866Y-120259523D02*
X40826247Y-120307142D01*
X40826247Y-120307142D02*
X40778628Y-120402380D01*
X40778628Y-120402380D02*
X40731009Y-120592856D01*
X40731009Y-120592856D02*
X40683390Y-120688094D01*
X40683390Y-120688094D02*
X40635771Y-120735713D01*
X40635771Y-120735713D02*
X40540533Y-120783332D01*
X40540533Y-120783332D02*
X40445295Y-120783332D01*
X40445295Y-120783332D02*
X40350057Y-120735713D01*
X40350057Y-120735713D02*
X40302438Y-120688094D01*
X40302438Y-120688094D02*
X40254819Y-120592856D01*
X40254819Y-120592856D02*
X40254819Y-120354761D01*
X40254819Y-120354761D02*
X40302438Y-120211904D01*
X40254819Y-119878570D02*
X41254819Y-119640475D01*
X41254819Y-119640475D02*
X40540533Y-119449999D01*
X40540533Y-119449999D02*
X41254819Y-119259523D01*
X41254819Y-119259523D02*
X40254819Y-119021428D01*
X40254819Y-118735713D02*
X40254819Y-118116666D01*
X40254819Y-118116666D02*
X40635771Y-118449999D01*
X40635771Y-118449999D02*
X40635771Y-118307142D01*
X40635771Y-118307142D02*
X40683390Y-118211904D01*
X40683390Y-118211904D02*
X40731009Y-118164285D01*
X40731009Y-118164285D02*
X40826247Y-118116666D01*
X40826247Y-118116666D02*
X41064342Y-118116666D01*
X41064342Y-118116666D02*
X41159580Y-118164285D01*
X41159580Y-118164285D02*
X41207200Y-118211904D01*
X41207200Y-118211904D02*
X41254819Y-118307142D01*
X41254819Y-118307142D02*
X41254819Y-118592856D01*
X41254819Y-118592856D02*
X41207200Y-118688094D01*
X41207200Y-118688094D02*
X41159580Y-118735713D01*
X83706666Y-202954819D02*
X83706666Y-203669104D01*
X83706666Y-203669104D02*
X83659047Y-203811961D01*
X83659047Y-203811961D02*
X83563809Y-203907200D01*
X83563809Y-203907200D02*
X83420952Y-203954819D01*
X83420952Y-203954819D02*
X83325714Y-203954819D01*
X84706666Y-203954819D02*
X84135238Y-203954819D01*
X84420952Y-203954819D02*
X84420952Y-202954819D01*
X84420952Y-202954819D02*
X84325714Y-203097676D01*
X84325714Y-203097676D02*
X84230476Y-203192914D01*
X84230476Y-203192914D02*
X84135238Y-203240533D01*
X52089580Y-165441666D02*
X52137200Y-165489285D01*
X52137200Y-165489285D02*
X52184819Y-165632142D01*
X52184819Y-165632142D02*
X52184819Y-165727380D01*
X52184819Y-165727380D02*
X52137200Y-165870237D01*
X52137200Y-165870237D02*
X52041961Y-165965475D01*
X52041961Y-165965475D02*
X51946723Y-166013094D01*
X51946723Y-166013094D02*
X51756247Y-166060713D01*
X51756247Y-166060713D02*
X51613390Y-166060713D01*
X51613390Y-166060713D02*
X51422914Y-166013094D01*
X51422914Y-166013094D02*
X51327676Y-165965475D01*
X51327676Y-165965475D02*
X51232438Y-165870237D01*
X51232438Y-165870237D02*
X51184819Y-165727380D01*
X51184819Y-165727380D02*
X51184819Y-165632142D01*
X51184819Y-165632142D02*
X51232438Y-165489285D01*
X51232438Y-165489285D02*
X51280057Y-165441666D01*
X51518152Y-164584523D02*
X52184819Y-164584523D01*
X51137200Y-164822618D02*
X51851485Y-165060713D01*
X51851485Y-165060713D02*
X51851485Y-164441666D01*
X38161905Y-181354819D02*
X38161905Y-180354819D01*
X38161905Y-180354819D02*
X38400000Y-180354819D01*
X38400000Y-180354819D02*
X38542857Y-180402438D01*
X38542857Y-180402438D02*
X38638095Y-180497676D01*
X38638095Y-180497676D02*
X38685714Y-180592914D01*
X38685714Y-180592914D02*
X38733333Y-180783390D01*
X38733333Y-180783390D02*
X38733333Y-180926247D01*
X38733333Y-180926247D02*
X38685714Y-181116723D01*
X38685714Y-181116723D02*
X38638095Y-181211961D01*
X38638095Y-181211961D02*
X38542857Y-181307200D01*
X38542857Y-181307200D02*
X38400000Y-181354819D01*
X38400000Y-181354819D02*
X38161905Y-181354819D01*
X39590476Y-180688152D02*
X39590476Y-181354819D01*
X39352381Y-180307200D02*
X39114286Y-181021485D01*
X39114286Y-181021485D02*
X39733333Y-181021485D01*
X35561905Y-181354819D02*
X35561905Y-180354819D01*
X35561905Y-180354819D02*
X35800000Y-180354819D01*
X35800000Y-180354819D02*
X35942857Y-180402438D01*
X35942857Y-180402438D02*
X36038095Y-180497676D01*
X36038095Y-180497676D02*
X36085714Y-180592914D01*
X36085714Y-180592914D02*
X36133333Y-180783390D01*
X36133333Y-180783390D02*
X36133333Y-180926247D01*
X36133333Y-180926247D02*
X36085714Y-181116723D01*
X36085714Y-181116723D02*
X36038095Y-181211961D01*
X36038095Y-181211961D02*
X35942857Y-181307200D01*
X35942857Y-181307200D02*
X35800000Y-181354819D01*
X35800000Y-181354819D02*
X35561905Y-181354819D01*
X36514286Y-180450057D02*
X36561905Y-180402438D01*
X36561905Y-180402438D02*
X36657143Y-180354819D01*
X36657143Y-180354819D02*
X36895238Y-180354819D01*
X36895238Y-180354819D02*
X36990476Y-180402438D01*
X36990476Y-180402438D02*
X37038095Y-180450057D01*
X37038095Y-180450057D02*
X37085714Y-180545295D01*
X37085714Y-180545295D02*
X37085714Y-180640533D01*
X37085714Y-180640533D02*
X37038095Y-180783390D01*
X37038095Y-180783390D02*
X36466667Y-181354819D01*
X36466667Y-181354819D02*
X37085714Y-181354819D01*
X6354819Y-156169523D02*
X7069104Y-156169523D01*
X7069104Y-156169523D02*
X7211961Y-156217142D01*
X7211961Y-156217142D02*
X7307200Y-156312380D01*
X7307200Y-156312380D02*
X7354819Y-156455237D01*
X7354819Y-156455237D02*
X7354819Y-156550475D01*
X7354819Y-155169523D02*
X7354819Y-155740951D01*
X7354819Y-155455237D02*
X6354819Y-155455237D01*
X6354819Y-155455237D02*
X6497676Y-155550475D01*
X6497676Y-155550475D02*
X6592914Y-155645713D01*
X6592914Y-155645713D02*
X6640533Y-155740951D01*
X7354819Y-154217142D02*
X7354819Y-154788570D01*
X7354819Y-154502856D02*
X6354819Y-154502856D01*
X6354819Y-154502856D02*
X6497676Y-154598094D01*
X6497676Y-154598094D02*
X6592914Y-154693332D01*
X6592914Y-154693332D02*
X6640533Y-154788570D01*
X72661905Y-192834819D02*
X72661905Y-191834819D01*
X72661905Y-191834819D02*
X72900000Y-191834819D01*
X72900000Y-191834819D02*
X73042857Y-191882438D01*
X73042857Y-191882438D02*
X73138095Y-191977676D01*
X73138095Y-191977676D02*
X73185714Y-192072914D01*
X73185714Y-192072914D02*
X73233333Y-192263390D01*
X73233333Y-192263390D02*
X73233333Y-192406247D01*
X73233333Y-192406247D02*
X73185714Y-192596723D01*
X73185714Y-192596723D02*
X73138095Y-192691961D01*
X73138095Y-192691961D02*
X73042857Y-192787200D01*
X73042857Y-192787200D02*
X72900000Y-192834819D01*
X72900000Y-192834819D02*
X72661905Y-192834819D01*
X74090476Y-191834819D02*
X73900000Y-191834819D01*
X73900000Y-191834819D02*
X73804762Y-191882438D01*
X73804762Y-191882438D02*
X73757143Y-191930057D01*
X73757143Y-191930057D02*
X73661905Y-192072914D01*
X73661905Y-192072914D02*
X73614286Y-192263390D01*
X73614286Y-192263390D02*
X73614286Y-192644342D01*
X73614286Y-192644342D02*
X73661905Y-192739580D01*
X73661905Y-192739580D02*
X73709524Y-192787200D01*
X73709524Y-192787200D02*
X73804762Y-192834819D01*
X73804762Y-192834819D02*
X73995238Y-192834819D01*
X73995238Y-192834819D02*
X74090476Y-192787200D01*
X74090476Y-192787200D02*
X74138095Y-192739580D01*
X74138095Y-192739580D02*
X74185714Y-192644342D01*
X74185714Y-192644342D02*
X74185714Y-192406247D01*
X74185714Y-192406247D02*
X74138095Y-192311009D01*
X74138095Y-192311009D02*
X74090476Y-192263390D01*
X74090476Y-192263390D02*
X73995238Y-192215771D01*
X73995238Y-192215771D02*
X73804762Y-192215771D01*
X73804762Y-192215771D02*
X73709524Y-192263390D01*
X73709524Y-192263390D02*
X73661905Y-192311009D01*
X73661905Y-192311009D02*
X73614286Y-192406247D01*
X16554819Y-121292857D02*
X16078628Y-121626190D01*
X16554819Y-121864285D02*
X15554819Y-121864285D01*
X15554819Y-121864285D02*
X15554819Y-121483333D01*
X15554819Y-121483333D02*
X15602438Y-121388095D01*
X15602438Y-121388095D02*
X15650057Y-121340476D01*
X15650057Y-121340476D02*
X15745295Y-121292857D01*
X15745295Y-121292857D02*
X15888152Y-121292857D01*
X15888152Y-121292857D02*
X15983390Y-121340476D01*
X15983390Y-121340476D02*
X16031009Y-121388095D01*
X16031009Y-121388095D02*
X16078628Y-121483333D01*
X16078628Y-121483333D02*
X16078628Y-121864285D01*
X16554819Y-120340476D02*
X16554819Y-120911904D01*
X16554819Y-120626190D02*
X15554819Y-120626190D01*
X15554819Y-120626190D02*
X15697676Y-120721428D01*
X15697676Y-120721428D02*
X15792914Y-120816666D01*
X15792914Y-120816666D02*
X15840533Y-120911904D01*
X15554819Y-119435714D02*
X15554819Y-119911904D01*
X15554819Y-119911904D02*
X16031009Y-119959523D01*
X16031009Y-119959523D02*
X15983390Y-119911904D01*
X15983390Y-119911904D02*
X15935771Y-119816666D01*
X15935771Y-119816666D02*
X15935771Y-119578571D01*
X15935771Y-119578571D02*
X15983390Y-119483333D01*
X15983390Y-119483333D02*
X16031009Y-119435714D01*
X16031009Y-119435714D02*
X16126247Y-119388095D01*
X16126247Y-119388095D02*
X16364342Y-119388095D01*
X16364342Y-119388095D02*
X16459580Y-119435714D01*
X16459580Y-119435714D02*
X16507200Y-119483333D01*
X16507200Y-119483333D02*
X16554819Y-119578571D01*
X16554819Y-119578571D02*
X16554819Y-119816666D01*
X16554819Y-119816666D02*
X16507200Y-119911904D01*
X16507200Y-119911904D02*
X16459580Y-119959523D01*
X64457142Y-183147080D02*
X64409523Y-183194700D01*
X64409523Y-183194700D02*
X64266666Y-183242319D01*
X64266666Y-183242319D02*
X64171428Y-183242319D01*
X64171428Y-183242319D02*
X64028571Y-183194700D01*
X64028571Y-183194700D02*
X63933333Y-183099461D01*
X63933333Y-183099461D02*
X63885714Y-183004223D01*
X63885714Y-183004223D02*
X63838095Y-182813747D01*
X63838095Y-182813747D02*
X63838095Y-182670890D01*
X63838095Y-182670890D02*
X63885714Y-182480414D01*
X63885714Y-182480414D02*
X63933333Y-182385176D01*
X63933333Y-182385176D02*
X64028571Y-182289938D01*
X64028571Y-182289938D02*
X64171428Y-182242319D01*
X64171428Y-182242319D02*
X64266666Y-182242319D01*
X64266666Y-182242319D02*
X64409523Y-182289938D01*
X64409523Y-182289938D02*
X64457142Y-182337557D01*
X65409523Y-183242319D02*
X64838095Y-183242319D01*
X65123809Y-183242319D02*
X65123809Y-182242319D01*
X65123809Y-182242319D02*
X65028571Y-182385176D01*
X65028571Y-182385176D02*
X64933333Y-182480414D01*
X64933333Y-182480414D02*
X64838095Y-182528033D01*
X66314285Y-182242319D02*
X65838095Y-182242319D01*
X65838095Y-182242319D02*
X65790476Y-182718509D01*
X65790476Y-182718509D02*
X65838095Y-182670890D01*
X65838095Y-182670890D02*
X65933333Y-182623271D01*
X65933333Y-182623271D02*
X66171428Y-182623271D01*
X66171428Y-182623271D02*
X66266666Y-182670890D01*
X66266666Y-182670890D02*
X66314285Y-182718509D01*
X66314285Y-182718509D02*
X66361904Y-182813747D01*
X66361904Y-182813747D02*
X66361904Y-183051842D01*
X66361904Y-183051842D02*
X66314285Y-183147080D01*
X66314285Y-183147080D02*
X66266666Y-183194700D01*
X66266666Y-183194700D02*
X66171428Y-183242319D01*
X66171428Y-183242319D02*
X65933333Y-183242319D01*
X65933333Y-183242319D02*
X65838095Y-183194700D01*
X65838095Y-183194700D02*
X65790476Y-183147080D01*
X25283333Y-124559580D02*
X25235714Y-124607200D01*
X25235714Y-124607200D02*
X25092857Y-124654819D01*
X25092857Y-124654819D02*
X24997619Y-124654819D01*
X24997619Y-124654819D02*
X24854762Y-124607200D01*
X24854762Y-124607200D02*
X24759524Y-124511961D01*
X24759524Y-124511961D02*
X24711905Y-124416723D01*
X24711905Y-124416723D02*
X24664286Y-124226247D01*
X24664286Y-124226247D02*
X24664286Y-124083390D01*
X24664286Y-124083390D02*
X24711905Y-123892914D01*
X24711905Y-123892914D02*
X24759524Y-123797676D01*
X24759524Y-123797676D02*
X24854762Y-123702438D01*
X24854762Y-123702438D02*
X24997619Y-123654819D01*
X24997619Y-123654819D02*
X25092857Y-123654819D01*
X25092857Y-123654819D02*
X25235714Y-123702438D01*
X25235714Y-123702438D02*
X25283333Y-123750057D01*
X26140476Y-123654819D02*
X25950000Y-123654819D01*
X25950000Y-123654819D02*
X25854762Y-123702438D01*
X25854762Y-123702438D02*
X25807143Y-123750057D01*
X25807143Y-123750057D02*
X25711905Y-123892914D01*
X25711905Y-123892914D02*
X25664286Y-124083390D01*
X25664286Y-124083390D02*
X25664286Y-124464342D01*
X25664286Y-124464342D02*
X25711905Y-124559580D01*
X25711905Y-124559580D02*
X25759524Y-124607200D01*
X25759524Y-124607200D02*
X25854762Y-124654819D01*
X25854762Y-124654819D02*
X26045238Y-124654819D01*
X26045238Y-124654819D02*
X26140476Y-124607200D01*
X26140476Y-124607200D02*
X26188095Y-124559580D01*
X26188095Y-124559580D02*
X26235714Y-124464342D01*
X26235714Y-124464342D02*
X26235714Y-124226247D01*
X26235714Y-124226247D02*
X26188095Y-124131009D01*
X26188095Y-124131009D02*
X26140476Y-124083390D01*
X26140476Y-124083390D02*
X26045238Y-124035771D01*
X26045238Y-124035771D02*
X25854762Y-124035771D01*
X25854762Y-124035771D02*
X25759524Y-124083390D01*
X25759524Y-124083390D02*
X25711905Y-124131009D01*
X25711905Y-124131009D02*
X25664286Y-124226247D01*
X89338095Y-135954819D02*
X89338095Y-136764342D01*
X89338095Y-136764342D02*
X89385714Y-136859580D01*
X89385714Y-136859580D02*
X89433333Y-136907200D01*
X89433333Y-136907200D02*
X89528571Y-136954819D01*
X89528571Y-136954819D02*
X89719047Y-136954819D01*
X89719047Y-136954819D02*
X89814285Y-136907200D01*
X89814285Y-136907200D02*
X89861904Y-136859580D01*
X89861904Y-136859580D02*
X89909523Y-136764342D01*
X89909523Y-136764342D02*
X89909523Y-135954819D01*
X90861904Y-135954819D02*
X90385714Y-135954819D01*
X90385714Y-135954819D02*
X90338095Y-136431009D01*
X90338095Y-136431009D02*
X90385714Y-136383390D01*
X90385714Y-136383390D02*
X90480952Y-136335771D01*
X90480952Y-136335771D02*
X90719047Y-136335771D01*
X90719047Y-136335771D02*
X90814285Y-136383390D01*
X90814285Y-136383390D02*
X90861904Y-136431009D01*
X90861904Y-136431009D02*
X90909523Y-136526247D01*
X90909523Y-136526247D02*
X90909523Y-136764342D01*
X90909523Y-136764342D02*
X90861904Y-136859580D01*
X90861904Y-136859580D02*
X90814285Y-136907200D01*
X90814285Y-136907200D02*
X90719047Y-136954819D01*
X90719047Y-136954819D02*
X90480952Y-136954819D01*
X90480952Y-136954819D02*
X90385714Y-136907200D01*
X90385714Y-136907200D02*
X90338095Y-136859580D01*
X17770476Y-202954819D02*
X17770476Y-203669104D01*
X17770476Y-203669104D02*
X17722857Y-203811961D01*
X17722857Y-203811961D02*
X17627619Y-203907200D01*
X17627619Y-203907200D02*
X17484762Y-203954819D01*
X17484762Y-203954819D02*
X17389524Y-203954819D01*
X18770476Y-203954819D02*
X18199048Y-203954819D01*
X18484762Y-203954819D02*
X18484762Y-202954819D01*
X18484762Y-202954819D02*
X18389524Y-203097676D01*
X18389524Y-203097676D02*
X18294286Y-203192914D01*
X18294286Y-203192914D02*
X18199048Y-203240533D01*
X19151429Y-203050057D02*
X19199048Y-203002438D01*
X19199048Y-203002438D02*
X19294286Y-202954819D01*
X19294286Y-202954819D02*
X19532381Y-202954819D01*
X19532381Y-202954819D02*
X19627619Y-203002438D01*
X19627619Y-203002438D02*
X19675238Y-203050057D01*
X19675238Y-203050057D02*
X19722857Y-203145295D01*
X19722857Y-203145295D02*
X19722857Y-203240533D01*
X19722857Y-203240533D02*
X19675238Y-203383390D01*
X19675238Y-203383390D02*
X19103810Y-203954819D01*
X19103810Y-203954819D02*
X19722857Y-203954819D01*
X85259580Y-131342857D02*
X85307200Y-131390476D01*
X85307200Y-131390476D02*
X85354819Y-131533333D01*
X85354819Y-131533333D02*
X85354819Y-131628571D01*
X85354819Y-131628571D02*
X85307200Y-131771428D01*
X85307200Y-131771428D02*
X85211961Y-131866666D01*
X85211961Y-131866666D02*
X85116723Y-131914285D01*
X85116723Y-131914285D02*
X84926247Y-131961904D01*
X84926247Y-131961904D02*
X84783390Y-131961904D01*
X84783390Y-131961904D02*
X84592914Y-131914285D01*
X84592914Y-131914285D02*
X84497676Y-131866666D01*
X84497676Y-131866666D02*
X84402438Y-131771428D01*
X84402438Y-131771428D02*
X84354819Y-131628571D01*
X84354819Y-131628571D02*
X84354819Y-131533333D01*
X84354819Y-131533333D02*
X84402438Y-131390476D01*
X84402438Y-131390476D02*
X84450057Y-131342857D01*
X85354819Y-130390476D02*
X85354819Y-130961904D01*
X85354819Y-130676190D02*
X84354819Y-130676190D01*
X84354819Y-130676190D02*
X84497676Y-130771428D01*
X84497676Y-130771428D02*
X84592914Y-130866666D01*
X84592914Y-130866666D02*
X84640533Y-130961904D01*
X85354819Y-129914285D02*
X85354819Y-129723809D01*
X85354819Y-129723809D02*
X85307200Y-129628571D01*
X85307200Y-129628571D02*
X85259580Y-129580952D01*
X85259580Y-129580952D02*
X85116723Y-129485714D01*
X85116723Y-129485714D02*
X84926247Y-129438095D01*
X84926247Y-129438095D02*
X84545295Y-129438095D01*
X84545295Y-129438095D02*
X84450057Y-129485714D01*
X84450057Y-129485714D02*
X84402438Y-129533333D01*
X84402438Y-129533333D02*
X84354819Y-129628571D01*
X84354819Y-129628571D02*
X84354819Y-129819047D01*
X84354819Y-129819047D02*
X84402438Y-129914285D01*
X84402438Y-129914285D02*
X84450057Y-129961904D01*
X84450057Y-129961904D02*
X84545295Y-130009523D01*
X84545295Y-130009523D02*
X84783390Y-130009523D01*
X84783390Y-130009523D02*
X84878628Y-129961904D01*
X84878628Y-129961904D02*
X84926247Y-129914285D01*
X84926247Y-129914285D02*
X84973866Y-129819047D01*
X84973866Y-129819047D02*
X84973866Y-129628571D01*
X84973866Y-129628571D02*
X84926247Y-129533333D01*
X84926247Y-129533333D02*
X84878628Y-129485714D01*
X84878628Y-129485714D02*
X84783390Y-129438095D01*
X33633333Y-154759580D02*
X33585714Y-154807200D01*
X33585714Y-154807200D02*
X33442857Y-154854819D01*
X33442857Y-154854819D02*
X33347619Y-154854819D01*
X33347619Y-154854819D02*
X33204762Y-154807200D01*
X33204762Y-154807200D02*
X33109524Y-154711961D01*
X33109524Y-154711961D02*
X33061905Y-154616723D01*
X33061905Y-154616723D02*
X33014286Y-154426247D01*
X33014286Y-154426247D02*
X33014286Y-154283390D01*
X33014286Y-154283390D02*
X33061905Y-154092914D01*
X33061905Y-154092914D02*
X33109524Y-153997676D01*
X33109524Y-153997676D02*
X33204762Y-153902438D01*
X33204762Y-153902438D02*
X33347619Y-153854819D01*
X33347619Y-153854819D02*
X33442857Y-153854819D01*
X33442857Y-153854819D02*
X33585714Y-153902438D01*
X33585714Y-153902438D02*
X33633333Y-153950057D01*
X34109524Y-154854819D02*
X34300000Y-154854819D01*
X34300000Y-154854819D02*
X34395238Y-154807200D01*
X34395238Y-154807200D02*
X34442857Y-154759580D01*
X34442857Y-154759580D02*
X34538095Y-154616723D01*
X34538095Y-154616723D02*
X34585714Y-154426247D01*
X34585714Y-154426247D02*
X34585714Y-154045295D01*
X34585714Y-154045295D02*
X34538095Y-153950057D01*
X34538095Y-153950057D02*
X34490476Y-153902438D01*
X34490476Y-153902438D02*
X34395238Y-153854819D01*
X34395238Y-153854819D02*
X34204762Y-153854819D01*
X34204762Y-153854819D02*
X34109524Y-153902438D01*
X34109524Y-153902438D02*
X34061905Y-153950057D01*
X34061905Y-153950057D02*
X34014286Y-154045295D01*
X34014286Y-154045295D02*
X34014286Y-154283390D01*
X34014286Y-154283390D02*
X34061905Y-154378628D01*
X34061905Y-154378628D02*
X34109524Y-154426247D01*
X34109524Y-154426247D02*
X34204762Y-154473866D01*
X34204762Y-154473866D02*
X34395238Y-154473866D01*
X34395238Y-154473866D02*
X34490476Y-154426247D01*
X34490476Y-154426247D02*
X34538095Y-154378628D01*
X34538095Y-154378628D02*
X34585714Y-154283390D01*
X73133333Y-189154819D02*
X72800000Y-188678628D01*
X72561905Y-189154819D02*
X72561905Y-188154819D01*
X72561905Y-188154819D02*
X72942857Y-188154819D01*
X72942857Y-188154819D02*
X73038095Y-188202438D01*
X73038095Y-188202438D02*
X73085714Y-188250057D01*
X73085714Y-188250057D02*
X73133333Y-188345295D01*
X73133333Y-188345295D02*
X73133333Y-188488152D01*
X73133333Y-188488152D02*
X73085714Y-188583390D01*
X73085714Y-188583390D02*
X73038095Y-188631009D01*
X73038095Y-188631009D02*
X72942857Y-188678628D01*
X72942857Y-188678628D02*
X72561905Y-188678628D01*
X73609524Y-189154819D02*
X73800000Y-189154819D01*
X73800000Y-189154819D02*
X73895238Y-189107200D01*
X73895238Y-189107200D02*
X73942857Y-189059580D01*
X73942857Y-189059580D02*
X74038095Y-188916723D01*
X74038095Y-188916723D02*
X74085714Y-188726247D01*
X74085714Y-188726247D02*
X74085714Y-188345295D01*
X74085714Y-188345295D02*
X74038095Y-188250057D01*
X74038095Y-188250057D02*
X73990476Y-188202438D01*
X73990476Y-188202438D02*
X73895238Y-188154819D01*
X73895238Y-188154819D02*
X73704762Y-188154819D01*
X73704762Y-188154819D02*
X73609524Y-188202438D01*
X73609524Y-188202438D02*
X73561905Y-188250057D01*
X73561905Y-188250057D02*
X73514286Y-188345295D01*
X73514286Y-188345295D02*
X73514286Y-188583390D01*
X73514286Y-188583390D02*
X73561905Y-188678628D01*
X73561905Y-188678628D02*
X73609524Y-188726247D01*
X73609524Y-188726247D02*
X73704762Y-188773866D01*
X73704762Y-188773866D02*
X73895238Y-188773866D01*
X73895238Y-188773866D02*
X73990476Y-188726247D01*
X73990476Y-188726247D02*
X74038095Y-188678628D01*
X74038095Y-188678628D02*
X74085714Y-188583390D01*
X82657142Y-145859580D02*
X82609523Y-145907200D01*
X82609523Y-145907200D02*
X82466666Y-145954819D01*
X82466666Y-145954819D02*
X82371428Y-145954819D01*
X82371428Y-145954819D02*
X82228571Y-145907200D01*
X82228571Y-145907200D02*
X82133333Y-145811961D01*
X82133333Y-145811961D02*
X82085714Y-145716723D01*
X82085714Y-145716723D02*
X82038095Y-145526247D01*
X82038095Y-145526247D02*
X82038095Y-145383390D01*
X82038095Y-145383390D02*
X82085714Y-145192914D01*
X82085714Y-145192914D02*
X82133333Y-145097676D01*
X82133333Y-145097676D02*
X82228571Y-145002438D01*
X82228571Y-145002438D02*
X82371428Y-144954819D01*
X82371428Y-144954819D02*
X82466666Y-144954819D01*
X82466666Y-144954819D02*
X82609523Y-145002438D01*
X82609523Y-145002438D02*
X82657142Y-145050057D01*
X83038095Y-145050057D02*
X83085714Y-145002438D01*
X83085714Y-145002438D02*
X83180952Y-144954819D01*
X83180952Y-144954819D02*
X83419047Y-144954819D01*
X83419047Y-144954819D02*
X83514285Y-145002438D01*
X83514285Y-145002438D02*
X83561904Y-145050057D01*
X83561904Y-145050057D02*
X83609523Y-145145295D01*
X83609523Y-145145295D02*
X83609523Y-145240533D01*
X83609523Y-145240533D02*
X83561904Y-145383390D01*
X83561904Y-145383390D02*
X82990476Y-145954819D01*
X82990476Y-145954819D02*
X83609523Y-145954819D01*
X84466666Y-144954819D02*
X84276190Y-144954819D01*
X84276190Y-144954819D02*
X84180952Y-145002438D01*
X84180952Y-145002438D02*
X84133333Y-145050057D01*
X84133333Y-145050057D02*
X84038095Y-145192914D01*
X84038095Y-145192914D02*
X83990476Y-145383390D01*
X83990476Y-145383390D02*
X83990476Y-145764342D01*
X83990476Y-145764342D02*
X84038095Y-145859580D01*
X84038095Y-145859580D02*
X84085714Y-145907200D01*
X84085714Y-145907200D02*
X84180952Y-145954819D01*
X84180952Y-145954819D02*
X84371428Y-145954819D01*
X84371428Y-145954819D02*
X84466666Y-145907200D01*
X84466666Y-145907200D02*
X84514285Y-145859580D01*
X84514285Y-145859580D02*
X84561904Y-145764342D01*
X84561904Y-145764342D02*
X84561904Y-145526247D01*
X84561904Y-145526247D02*
X84514285Y-145431009D01*
X84514285Y-145431009D02*
X84466666Y-145383390D01*
X84466666Y-145383390D02*
X84371428Y-145335771D01*
X84371428Y-145335771D02*
X84180952Y-145335771D01*
X84180952Y-145335771D02*
X84085714Y-145383390D01*
X84085714Y-145383390D02*
X84038095Y-145431009D01*
X84038095Y-145431009D02*
X83990476Y-145526247D01*
X79457142Y-147959580D02*
X79409523Y-148007200D01*
X79409523Y-148007200D02*
X79266666Y-148054819D01*
X79266666Y-148054819D02*
X79171428Y-148054819D01*
X79171428Y-148054819D02*
X79028571Y-148007200D01*
X79028571Y-148007200D02*
X78933333Y-147911961D01*
X78933333Y-147911961D02*
X78885714Y-147816723D01*
X78885714Y-147816723D02*
X78838095Y-147626247D01*
X78838095Y-147626247D02*
X78838095Y-147483390D01*
X78838095Y-147483390D02*
X78885714Y-147292914D01*
X78885714Y-147292914D02*
X78933333Y-147197676D01*
X78933333Y-147197676D02*
X79028571Y-147102438D01*
X79028571Y-147102438D02*
X79171428Y-147054819D01*
X79171428Y-147054819D02*
X79266666Y-147054819D01*
X79266666Y-147054819D02*
X79409523Y-147102438D01*
X79409523Y-147102438D02*
X79457142Y-147150057D01*
X79838095Y-147150057D02*
X79885714Y-147102438D01*
X79885714Y-147102438D02*
X79980952Y-147054819D01*
X79980952Y-147054819D02*
X80219047Y-147054819D01*
X80219047Y-147054819D02*
X80314285Y-147102438D01*
X80314285Y-147102438D02*
X80361904Y-147150057D01*
X80361904Y-147150057D02*
X80409523Y-147245295D01*
X80409523Y-147245295D02*
X80409523Y-147340533D01*
X80409523Y-147340533D02*
X80361904Y-147483390D01*
X80361904Y-147483390D02*
X79790476Y-148054819D01*
X79790476Y-148054819D02*
X80409523Y-148054819D01*
X81361904Y-148054819D02*
X80790476Y-148054819D01*
X81076190Y-148054819D02*
X81076190Y-147054819D01*
X81076190Y-147054819D02*
X80980952Y-147197676D01*
X80980952Y-147197676D02*
X80885714Y-147292914D01*
X80885714Y-147292914D02*
X80790476Y-147340533D01*
X66454819Y-181449404D02*
X67264342Y-181449404D01*
X67264342Y-181449404D02*
X67359580Y-181401785D01*
X67359580Y-181401785D02*
X67407200Y-181354166D01*
X67407200Y-181354166D02*
X67454819Y-181258928D01*
X67454819Y-181258928D02*
X67454819Y-181068452D01*
X67454819Y-181068452D02*
X67407200Y-180973214D01*
X67407200Y-180973214D02*
X67359580Y-180925595D01*
X67359580Y-180925595D02*
X67264342Y-180877976D01*
X67264342Y-180877976D02*
X66454819Y-180877976D01*
X66788152Y-179973214D02*
X67454819Y-179973214D01*
X66407200Y-180211309D02*
X67121485Y-180449404D01*
X67121485Y-180449404D02*
X67121485Y-179830357D01*
X36520476Y-202954819D02*
X36520476Y-203669104D01*
X36520476Y-203669104D02*
X36472857Y-203811961D01*
X36472857Y-203811961D02*
X36377619Y-203907200D01*
X36377619Y-203907200D02*
X36234762Y-203954819D01*
X36234762Y-203954819D02*
X36139524Y-203954819D01*
X37520476Y-203954819D02*
X36949048Y-203954819D01*
X37234762Y-203954819D02*
X37234762Y-202954819D01*
X37234762Y-202954819D02*
X37139524Y-203097676D01*
X37139524Y-203097676D02*
X37044286Y-203192914D01*
X37044286Y-203192914D02*
X36949048Y-203240533D01*
X37853810Y-202954819D02*
X38472857Y-202954819D01*
X38472857Y-202954819D02*
X38139524Y-203335771D01*
X38139524Y-203335771D02*
X38282381Y-203335771D01*
X38282381Y-203335771D02*
X38377619Y-203383390D01*
X38377619Y-203383390D02*
X38425238Y-203431009D01*
X38425238Y-203431009D02*
X38472857Y-203526247D01*
X38472857Y-203526247D02*
X38472857Y-203764342D01*
X38472857Y-203764342D02*
X38425238Y-203859580D01*
X38425238Y-203859580D02*
X38377619Y-203907200D01*
X38377619Y-203907200D02*
X38282381Y-203954819D01*
X38282381Y-203954819D02*
X37996667Y-203954819D01*
X37996667Y-203954819D02*
X37901429Y-203907200D01*
X37901429Y-203907200D02*
X37853810Y-203859580D01*
X6354819Y-139513333D02*
X7069104Y-139513333D01*
X7069104Y-139513333D02*
X7211961Y-139560952D01*
X7211961Y-139560952D02*
X7307200Y-139656190D01*
X7307200Y-139656190D02*
X7354819Y-139799047D01*
X7354819Y-139799047D02*
X7354819Y-139894285D01*
X6783390Y-138894285D02*
X6735771Y-138989523D01*
X6735771Y-138989523D02*
X6688152Y-139037142D01*
X6688152Y-139037142D02*
X6592914Y-139084761D01*
X6592914Y-139084761D02*
X6545295Y-139084761D01*
X6545295Y-139084761D02*
X6450057Y-139037142D01*
X6450057Y-139037142D02*
X6402438Y-138989523D01*
X6402438Y-138989523D02*
X6354819Y-138894285D01*
X6354819Y-138894285D02*
X6354819Y-138703809D01*
X6354819Y-138703809D02*
X6402438Y-138608571D01*
X6402438Y-138608571D02*
X6450057Y-138560952D01*
X6450057Y-138560952D02*
X6545295Y-138513333D01*
X6545295Y-138513333D02*
X6592914Y-138513333D01*
X6592914Y-138513333D02*
X6688152Y-138560952D01*
X6688152Y-138560952D02*
X6735771Y-138608571D01*
X6735771Y-138608571D02*
X6783390Y-138703809D01*
X6783390Y-138703809D02*
X6783390Y-138894285D01*
X6783390Y-138894285D02*
X6831009Y-138989523D01*
X6831009Y-138989523D02*
X6878628Y-139037142D01*
X6878628Y-139037142D02*
X6973866Y-139084761D01*
X6973866Y-139084761D02*
X7164342Y-139084761D01*
X7164342Y-139084761D02*
X7259580Y-139037142D01*
X7259580Y-139037142D02*
X7307200Y-138989523D01*
X7307200Y-138989523D02*
X7354819Y-138894285D01*
X7354819Y-138894285D02*
X7354819Y-138703809D01*
X7354819Y-138703809D02*
X7307200Y-138608571D01*
X7307200Y-138608571D02*
X7259580Y-138560952D01*
X7259580Y-138560952D02*
X7164342Y-138513333D01*
X7164342Y-138513333D02*
X6973866Y-138513333D01*
X6973866Y-138513333D02*
X6878628Y-138560952D01*
X6878628Y-138560952D02*
X6831009Y-138608571D01*
X6831009Y-138608571D02*
X6783390Y-138703809D01*
X97133333Y-147904819D02*
X96657143Y-147904819D01*
X96657143Y-147904819D02*
X96657143Y-146904819D01*
X97990476Y-147904819D02*
X97419048Y-147904819D01*
X97704762Y-147904819D02*
X97704762Y-146904819D01*
X97704762Y-146904819D02*
X97609524Y-147047676D01*
X97609524Y-147047676D02*
X97514286Y-147142914D01*
X97514286Y-147142914D02*
X97419048Y-147190533D01*
X64383333Y-119154819D02*
X64050000Y-118678628D01*
X63811905Y-119154819D02*
X63811905Y-118154819D01*
X63811905Y-118154819D02*
X64192857Y-118154819D01*
X64192857Y-118154819D02*
X64288095Y-118202438D01*
X64288095Y-118202438D02*
X64335714Y-118250057D01*
X64335714Y-118250057D02*
X64383333Y-118345295D01*
X64383333Y-118345295D02*
X64383333Y-118488152D01*
X64383333Y-118488152D02*
X64335714Y-118583390D01*
X64335714Y-118583390D02*
X64288095Y-118631009D01*
X64288095Y-118631009D02*
X64192857Y-118678628D01*
X64192857Y-118678628D02*
X63811905Y-118678628D01*
X64764286Y-118250057D02*
X64811905Y-118202438D01*
X64811905Y-118202438D02*
X64907143Y-118154819D01*
X64907143Y-118154819D02*
X65145238Y-118154819D01*
X65145238Y-118154819D02*
X65240476Y-118202438D01*
X65240476Y-118202438D02*
X65288095Y-118250057D01*
X65288095Y-118250057D02*
X65335714Y-118345295D01*
X65335714Y-118345295D02*
X65335714Y-118440533D01*
X65335714Y-118440533D02*
X65288095Y-118583390D01*
X65288095Y-118583390D02*
X64716667Y-119154819D01*
X64716667Y-119154819D02*
X65335714Y-119154819D01*
X6354819Y-125873333D02*
X7069104Y-125873333D01*
X7069104Y-125873333D02*
X7211961Y-125920952D01*
X7211961Y-125920952D02*
X7307200Y-126016190D01*
X7307200Y-126016190D02*
X7354819Y-126159047D01*
X7354819Y-126159047D02*
X7354819Y-126254285D01*
X7354819Y-125349523D02*
X7354819Y-125159047D01*
X7354819Y-125159047D02*
X7307200Y-125063809D01*
X7307200Y-125063809D02*
X7259580Y-125016190D01*
X7259580Y-125016190D02*
X7116723Y-124920952D01*
X7116723Y-124920952D02*
X6926247Y-124873333D01*
X6926247Y-124873333D02*
X6545295Y-124873333D01*
X6545295Y-124873333D02*
X6450057Y-124920952D01*
X6450057Y-124920952D02*
X6402438Y-124968571D01*
X6402438Y-124968571D02*
X6354819Y-125063809D01*
X6354819Y-125063809D02*
X6354819Y-125254285D01*
X6354819Y-125254285D02*
X6402438Y-125349523D01*
X6402438Y-125349523D02*
X6450057Y-125397142D01*
X6450057Y-125397142D02*
X6545295Y-125444761D01*
X6545295Y-125444761D02*
X6783390Y-125444761D01*
X6783390Y-125444761D02*
X6878628Y-125397142D01*
X6878628Y-125397142D02*
X6926247Y-125349523D01*
X6926247Y-125349523D02*
X6973866Y-125254285D01*
X6973866Y-125254285D02*
X6973866Y-125063809D01*
X6973866Y-125063809D02*
X6926247Y-124968571D01*
X6926247Y-124968571D02*
X6878628Y-124920952D01*
X6878628Y-124920952D02*
X6783390Y-124873333D01*
X64457142Y-187042319D02*
X64123809Y-186566128D01*
X63885714Y-187042319D02*
X63885714Y-186042319D01*
X63885714Y-186042319D02*
X64266666Y-186042319D01*
X64266666Y-186042319D02*
X64361904Y-186089938D01*
X64361904Y-186089938D02*
X64409523Y-186137557D01*
X64409523Y-186137557D02*
X64457142Y-186232795D01*
X64457142Y-186232795D02*
X64457142Y-186375652D01*
X64457142Y-186375652D02*
X64409523Y-186470890D01*
X64409523Y-186470890D02*
X64361904Y-186518509D01*
X64361904Y-186518509D02*
X64266666Y-186566128D01*
X64266666Y-186566128D02*
X63885714Y-186566128D01*
X65409523Y-187042319D02*
X64838095Y-187042319D01*
X65123809Y-187042319D02*
X65123809Y-186042319D01*
X65123809Y-186042319D02*
X65028571Y-186185176D01*
X65028571Y-186185176D02*
X64933333Y-186280414D01*
X64933333Y-186280414D02*
X64838095Y-186328033D01*
X65790476Y-186137557D02*
X65838095Y-186089938D01*
X65838095Y-186089938D02*
X65933333Y-186042319D01*
X65933333Y-186042319D02*
X66171428Y-186042319D01*
X66171428Y-186042319D02*
X66266666Y-186089938D01*
X66266666Y-186089938D02*
X66314285Y-186137557D01*
X66314285Y-186137557D02*
X66361904Y-186232795D01*
X66361904Y-186232795D02*
X66361904Y-186328033D01*
X66361904Y-186328033D02*
X66314285Y-186470890D01*
X66314285Y-186470890D02*
X65742857Y-187042319D01*
X65742857Y-187042319D02*
X66361904Y-187042319D01*
X31357142Y-152559580D02*
X31309523Y-152607200D01*
X31309523Y-152607200D02*
X31166666Y-152654819D01*
X31166666Y-152654819D02*
X31071428Y-152654819D01*
X31071428Y-152654819D02*
X30928571Y-152607200D01*
X30928571Y-152607200D02*
X30833333Y-152511961D01*
X30833333Y-152511961D02*
X30785714Y-152416723D01*
X30785714Y-152416723D02*
X30738095Y-152226247D01*
X30738095Y-152226247D02*
X30738095Y-152083390D01*
X30738095Y-152083390D02*
X30785714Y-151892914D01*
X30785714Y-151892914D02*
X30833333Y-151797676D01*
X30833333Y-151797676D02*
X30928571Y-151702438D01*
X30928571Y-151702438D02*
X31071428Y-151654819D01*
X31071428Y-151654819D02*
X31166666Y-151654819D01*
X31166666Y-151654819D02*
X31309523Y-151702438D01*
X31309523Y-151702438D02*
X31357142Y-151750057D01*
X32309523Y-152654819D02*
X31738095Y-152654819D01*
X32023809Y-152654819D02*
X32023809Y-151654819D01*
X32023809Y-151654819D02*
X31928571Y-151797676D01*
X31928571Y-151797676D02*
X31833333Y-151892914D01*
X31833333Y-151892914D02*
X31738095Y-151940533D01*
X33166666Y-151988152D02*
X33166666Y-152654819D01*
X32928571Y-151607200D02*
X32690476Y-152321485D01*
X32690476Y-152321485D02*
X33309523Y-152321485D01*
X58008333Y-152839580D02*
X57960714Y-152887200D01*
X57960714Y-152887200D02*
X57817857Y-152934819D01*
X57817857Y-152934819D02*
X57722619Y-152934819D01*
X57722619Y-152934819D02*
X57579762Y-152887200D01*
X57579762Y-152887200D02*
X57484524Y-152791961D01*
X57484524Y-152791961D02*
X57436905Y-152696723D01*
X57436905Y-152696723D02*
X57389286Y-152506247D01*
X57389286Y-152506247D02*
X57389286Y-152363390D01*
X57389286Y-152363390D02*
X57436905Y-152172914D01*
X57436905Y-152172914D02*
X57484524Y-152077676D01*
X57484524Y-152077676D02*
X57579762Y-151982438D01*
X57579762Y-151982438D02*
X57722619Y-151934819D01*
X57722619Y-151934819D02*
X57817857Y-151934819D01*
X57817857Y-151934819D02*
X57960714Y-151982438D01*
X57960714Y-151982438D02*
X58008333Y-152030057D01*
X58341667Y-151934819D02*
X58960714Y-151934819D01*
X58960714Y-151934819D02*
X58627381Y-152315771D01*
X58627381Y-152315771D02*
X58770238Y-152315771D01*
X58770238Y-152315771D02*
X58865476Y-152363390D01*
X58865476Y-152363390D02*
X58913095Y-152411009D01*
X58913095Y-152411009D02*
X58960714Y-152506247D01*
X58960714Y-152506247D02*
X58960714Y-152744342D01*
X58960714Y-152744342D02*
X58913095Y-152839580D01*
X58913095Y-152839580D02*
X58865476Y-152887200D01*
X58865476Y-152887200D02*
X58770238Y-152934819D01*
X58770238Y-152934819D02*
X58484524Y-152934819D01*
X58484524Y-152934819D02*
X58389286Y-152887200D01*
X58389286Y-152887200D02*
X58341667Y-152839580D01*
X31357142Y-150159580D02*
X31309523Y-150207200D01*
X31309523Y-150207200D02*
X31166666Y-150254819D01*
X31166666Y-150254819D02*
X31071428Y-150254819D01*
X31071428Y-150254819D02*
X30928571Y-150207200D01*
X30928571Y-150207200D02*
X30833333Y-150111961D01*
X30833333Y-150111961D02*
X30785714Y-150016723D01*
X30785714Y-150016723D02*
X30738095Y-149826247D01*
X30738095Y-149826247D02*
X30738095Y-149683390D01*
X30738095Y-149683390D02*
X30785714Y-149492914D01*
X30785714Y-149492914D02*
X30833333Y-149397676D01*
X30833333Y-149397676D02*
X30928571Y-149302438D01*
X30928571Y-149302438D02*
X31071428Y-149254819D01*
X31071428Y-149254819D02*
X31166666Y-149254819D01*
X31166666Y-149254819D02*
X31309523Y-149302438D01*
X31309523Y-149302438D02*
X31357142Y-149350057D01*
X32309523Y-150254819D02*
X31738095Y-150254819D01*
X32023809Y-150254819D02*
X32023809Y-149254819D01*
X32023809Y-149254819D02*
X31928571Y-149397676D01*
X31928571Y-149397676D02*
X31833333Y-149492914D01*
X31833333Y-149492914D02*
X31738095Y-149540533D01*
X32642857Y-149254819D02*
X33261904Y-149254819D01*
X33261904Y-149254819D02*
X32928571Y-149635771D01*
X32928571Y-149635771D02*
X33071428Y-149635771D01*
X33071428Y-149635771D02*
X33166666Y-149683390D01*
X33166666Y-149683390D02*
X33214285Y-149731009D01*
X33214285Y-149731009D02*
X33261904Y-149826247D01*
X33261904Y-149826247D02*
X33261904Y-150064342D01*
X33261904Y-150064342D02*
X33214285Y-150159580D01*
X33214285Y-150159580D02*
X33166666Y-150207200D01*
X33166666Y-150207200D02*
X33071428Y-150254819D01*
X33071428Y-150254819D02*
X32785714Y-150254819D01*
X32785714Y-150254819D02*
X32690476Y-150207200D01*
X32690476Y-150207200D02*
X32642857Y-150159580D01*
X78057142Y-186954819D02*
X77723809Y-186478628D01*
X77485714Y-186954819D02*
X77485714Y-185954819D01*
X77485714Y-185954819D02*
X77866666Y-185954819D01*
X77866666Y-185954819D02*
X77961904Y-186002438D01*
X77961904Y-186002438D02*
X78009523Y-186050057D01*
X78009523Y-186050057D02*
X78057142Y-186145295D01*
X78057142Y-186145295D02*
X78057142Y-186288152D01*
X78057142Y-186288152D02*
X78009523Y-186383390D01*
X78009523Y-186383390D02*
X77961904Y-186431009D01*
X77961904Y-186431009D02*
X77866666Y-186478628D01*
X77866666Y-186478628D02*
X77485714Y-186478628D01*
X79009523Y-186954819D02*
X78438095Y-186954819D01*
X78723809Y-186954819D02*
X78723809Y-185954819D01*
X78723809Y-185954819D02*
X78628571Y-186097676D01*
X78628571Y-186097676D02*
X78533333Y-186192914D01*
X78533333Y-186192914D02*
X78438095Y-186240533D01*
X79342857Y-185954819D02*
X79961904Y-185954819D01*
X79961904Y-185954819D02*
X79628571Y-186335771D01*
X79628571Y-186335771D02*
X79771428Y-186335771D01*
X79771428Y-186335771D02*
X79866666Y-186383390D01*
X79866666Y-186383390D02*
X79914285Y-186431009D01*
X79914285Y-186431009D02*
X79961904Y-186526247D01*
X79961904Y-186526247D02*
X79961904Y-186764342D01*
X79961904Y-186764342D02*
X79914285Y-186859580D01*
X79914285Y-186859580D02*
X79866666Y-186907200D01*
X79866666Y-186907200D02*
X79771428Y-186954819D01*
X79771428Y-186954819D02*
X79485714Y-186954819D01*
X79485714Y-186954819D02*
X79390476Y-186907200D01*
X79390476Y-186907200D02*
X79342857Y-186859580D01*
X64333333Y-121504819D02*
X64000000Y-121028628D01*
X63761905Y-121504819D02*
X63761905Y-120504819D01*
X63761905Y-120504819D02*
X64142857Y-120504819D01*
X64142857Y-120504819D02*
X64238095Y-120552438D01*
X64238095Y-120552438D02*
X64285714Y-120600057D01*
X64285714Y-120600057D02*
X64333333Y-120695295D01*
X64333333Y-120695295D02*
X64333333Y-120838152D01*
X64333333Y-120838152D02*
X64285714Y-120933390D01*
X64285714Y-120933390D02*
X64238095Y-120981009D01*
X64238095Y-120981009D02*
X64142857Y-121028628D01*
X64142857Y-121028628D02*
X63761905Y-121028628D01*
X64666667Y-120504819D02*
X65285714Y-120504819D01*
X65285714Y-120504819D02*
X64952381Y-120885771D01*
X64952381Y-120885771D02*
X65095238Y-120885771D01*
X65095238Y-120885771D02*
X65190476Y-120933390D01*
X65190476Y-120933390D02*
X65238095Y-120981009D01*
X65238095Y-120981009D02*
X65285714Y-121076247D01*
X65285714Y-121076247D02*
X65285714Y-121314342D01*
X65285714Y-121314342D02*
X65238095Y-121409580D01*
X65238095Y-121409580D02*
X65190476Y-121457200D01*
X65190476Y-121457200D02*
X65095238Y-121504819D01*
X65095238Y-121504819D02*
X64809524Y-121504819D01*
X64809524Y-121504819D02*
X64714286Y-121457200D01*
X64714286Y-121457200D02*
X64666667Y-121409580D01*
X25116667Y-120207200D02*
X25259524Y-120254819D01*
X25259524Y-120254819D02*
X25497619Y-120254819D01*
X25497619Y-120254819D02*
X25592857Y-120207200D01*
X25592857Y-120207200D02*
X25640476Y-120159580D01*
X25640476Y-120159580D02*
X25688095Y-120064342D01*
X25688095Y-120064342D02*
X25688095Y-119969104D01*
X25688095Y-119969104D02*
X25640476Y-119873866D01*
X25640476Y-119873866D02*
X25592857Y-119826247D01*
X25592857Y-119826247D02*
X25497619Y-119778628D01*
X25497619Y-119778628D02*
X25307143Y-119731009D01*
X25307143Y-119731009D02*
X25211905Y-119683390D01*
X25211905Y-119683390D02*
X25164286Y-119635771D01*
X25164286Y-119635771D02*
X25116667Y-119540533D01*
X25116667Y-119540533D02*
X25116667Y-119445295D01*
X25116667Y-119445295D02*
X25164286Y-119350057D01*
X25164286Y-119350057D02*
X25211905Y-119302438D01*
X25211905Y-119302438D02*
X25307143Y-119254819D01*
X25307143Y-119254819D02*
X25545238Y-119254819D01*
X25545238Y-119254819D02*
X25688095Y-119302438D01*
X26021429Y-119254819D02*
X26259524Y-120254819D01*
X26259524Y-120254819D02*
X26450000Y-119540533D01*
X26450000Y-119540533D02*
X26640476Y-120254819D01*
X26640476Y-120254819D02*
X26878572Y-119254819D01*
X27783333Y-120254819D02*
X27211905Y-120254819D01*
X27497619Y-120254819D02*
X27497619Y-119254819D01*
X27497619Y-119254819D02*
X27402381Y-119397676D01*
X27402381Y-119397676D02*
X27307143Y-119492914D01*
X27307143Y-119492914D02*
X27211905Y-119540533D01*
X18461905Y-180254819D02*
X18461905Y-179254819D01*
X18461905Y-179254819D02*
X18700000Y-179254819D01*
X18700000Y-179254819D02*
X18842857Y-179302438D01*
X18842857Y-179302438D02*
X18938095Y-179397676D01*
X18938095Y-179397676D02*
X18985714Y-179492914D01*
X18985714Y-179492914D02*
X19033333Y-179683390D01*
X19033333Y-179683390D02*
X19033333Y-179826247D01*
X19033333Y-179826247D02*
X18985714Y-180016723D01*
X18985714Y-180016723D02*
X18938095Y-180111961D01*
X18938095Y-180111961D02*
X18842857Y-180207200D01*
X18842857Y-180207200D02*
X18700000Y-180254819D01*
X18700000Y-180254819D02*
X18461905Y-180254819D01*
X19985714Y-180254819D02*
X19414286Y-180254819D01*
X19700000Y-180254819D02*
X19700000Y-179254819D01*
X19700000Y-179254819D02*
X19604762Y-179397676D01*
X19604762Y-179397676D02*
X19509524Y-179492914D01*
X19509524Y-179492914D02*
X19414286Y-179540533D01*
X59411905Y-128554819D02*
X59411905Y-127554819D01*
X59411905Y-127554819D02*
X59650000Y-127554819D01*
X59650000Y-127554819D02*
X59792857Y-127602438D01*
X59792857Y-127602438D02*
X59888095Y-127697676D01*
X59888095Y-127697676D02*
X59935714Y-127792914D01*
X59935714Y-127792914D02*
X59983333Y-127983390D01*
X59983333Y-127983390D02*
X59983333Y-128126247D01*
X59983333Y-128126247D02*
X59935714Y-128316723D01*
X59935714Y-128316723D02*
X59888095Y-128411961D01*
X59888095Y-128411961D02*
X59792857Y-128507200D01*
X59792857Y-128507200D02*
X59650000Y-128554819D01*
X59650000Y-128554819D02*
X59411905Y-128554819D01*
X60316667Y-127554819D02*
X60983333Y-127554819D01*
X60983333Y-127554819D02*
X60554762Y-128554819D01*
%TO.C,U3*%
D13*
X54240000Y-179940000D02*
X54510000Y-179940000D01*
X54240000Y-185460000D02*
X54240000Y-179940000D01*
X54510000Y-185460000D02*
X54240000Y-185460000D01*
X59490000Y-179940000D02*
X59760000Y-179940000D01*
X59760000Y-179940000D02*
X59760000Y-185460000D01*
X59760000Y-185460000D02*
X59490000Y-185460000D01*
X59500000Y-179110000D02*
X59970000Y-178770000D01*
X59970000Y-179450000D01*
X59500000Y-179110000D01*
G36*
X59970000Y-179450000D02*
G01*
X59500000Y-179110000D01*
X59970000Y-178770000D01*
X59970000Y-179450000D01*
G37*
%TO.C,D8*%
X61440000Y-129565000D02*
X61440000Y-131035000D01*
X61440000Y-131035000D02*
X63900000Y-131035000D01*
X63900000Y-129565000D02*
X61440000Y-129565000D01*
%TO.C,Y2*%
X37025000Y-150325000D02*
X37025000Y-151675000D01*
X38775000Y-150325000D02*
X38775000Y-151675000D01*
%TO.C,D10*%
X87225000Y-160690000D02*
X81715000Y-160690000D01*
X87225000Y-163990000D02*
X81715000Y-163990000D01*
X87225000Y-163990000D02*
X87225000Y-160690000D01*
%TO.C,U1*%
X44890000Y-152090000D02*
X45340000Y-152090000D01*
X44890000Y-152540000D02*
X44890000Y-152090000D01*
X44890000Y-159310000D02*
X44890000Y-158860000D01*
X45340000Y-159310000D02*
X44890000Y-159310000D01*
X51660000Y-152090000D02*
X52110000Y-152090000D01*
X52110000Y-152090000D02*
X52110000Y-152540000D01*
X52110000Y-158860000D02*
X52110000Y-159310000D01*
X52110000Y-159310000D02*
X51660000Y-159310000D01*
X44250000Y-152540000D02*
X43910000Y-152070000D01*
X44590000Y-152070000D01*
X44250000Y-152540000D01*
G36*
X44250000Y-152540000D02*
G01*
X43910000Y-152070000D01*
X44590000Y-152070000D01*
X44250000Y-152540000D01*
G37*
%TO.C,R17*%
X67537258Y-132177500D02*
X67062742Y-132177500D01*
X67537258Y-133222500D02*
X67062742Y-133222500D01*
%TO.C,J10*%
X790000Y-168000000D02*
X790000Y-170000000D01*
X790000Y-170000000D02*
X2290000Y-169750000D01*
X790000Y-173080000D02*
X790000Y-175080000D01*
X790000Y-175080000D02*
X2290000Y-174830000D01*
X790000Y-178160000D02*
X790000Y-180160000D01*
X790000Y-180160000D02*
X2290000Y-179910000D01*
X2290000Y-168250000D02*
X790000Y-168000000D01*
X2290000Y-169750000D02*
X2290000Y-168250000D01*
X2290000Y-173330000D02*
X790000Y-173080000D01*
X2290000Y-174830000D02*
X2290000Y-173330000D01*
X2290000Y-178410000D02*
X790000Y-178160000D01*
X2290000Y-179910000D02*
X2290000Y-178410000D01*
X13210000Y-169000000D02*
X13810000Y-168700000D01*
X13810000Y-168700000D02*
X13810000Y-169300000D01*
X13810000Y-169300000D02*
X13210000Y-169000000D01*
X2290000Y-165350000D02*
X4090000Y-165350000D01*
X4090000Y-182810000D01*
X2290000Y-182810000D01*
X2290000Y-165350000D01*
X790000Y-165350000D02*
X13010000Y-165350000D01*
X13010000Y-182810000D01*
X790000Y-182810000D01*
X790000Y-165350000D01*
%TO.C,R18*%
X86637258Y-165577500D02*
X86162742Y-165577500D01*
X86637258Y-166622500D02*
X86162742Y-166622500D01*
%TO.C,C7*%
X23290000Y-189759420D02*
X23290000Y-190040580D01*
X24310000Y-189759420D02*
X24310000Y-190040580D01*
%TO.C,R14*%
X15477500Y-137737258D02*
X15477500Y-137262742D01*
X16522500Y-137737258D02*
X16522500Y-137262742D01*
%TO.C,R8*%
X57237258Y-188365000D02*
X56762742Y-188365000D01*
X57237258Y-189410000D02*
X56762742Y-189410000D01*
%TO.C,C23*%
X94359420Y-161790000D02*
X94640580Y-161790000D01*
X94359420Y-162810000D02*
X94640580Y-162810000D01*
%TO.C,Y1*%
X35090000Y-159410000D02*
X38510000Y-159410000D01*
X38510000Y-159410000D02*
X38510000Y-155290000D01*
%TO.C,C5*%
X16490000Y-182440580D02*
X16490000Y-182159420D01*
X17510000Y-182440580D02*
X17510000Y-182159420D01*
%TO.C,C2*%
X44590000Y-148940580D02*
X44590000Y-148659420D01*
X45610000Y-148940580D02*
X45610000Y-148659420D01*
%TO.C,J4*%
X68350000Y-116350000D02*
X68350000Y-117600000D01*
X68650000Y-118900000D02*
X69400000Y-118900000D01*
X69400000Y-118900000D02*
X69400000Y-121850000D01*
X69400000Y-121850000D02*
X74950000Y-121850000D01*
X69600000Y-116350000D02*
X68350000Y-116350000D01*
X80500000Y-118900000D02*
X80500000Y-121850000D01*
X80500000Y-121850000D02*
X74950000Y-121850000D01*
X81250000Y-118900000D02*
X80500000Y-118900000D01*
X68640000Y-116640000D02*
X81260000Y-116640000D01*
X81260000Y-122610000D01*
X68640000Y-122610000D01*
X68640000Y-116640000D01*
X68650000Y-116650000D02*
X70450000Y-116650000D01*
X70450000Y-117400000D01*
X68650000Y-117400000D01*
X68650000Y-116650000D01*
X71950000Y-116650000D02*
X77950000Y-116650000D01*
X77950000Y-117400000D01*
X71950000Y-117400000D01*
X71950000Y-116650000D01*
X79450000Y-116650000D02*
X81250000Y-116650000D01*
X81250000Y-117400000D01*
X79450000Y-117400000D01*
X79450000Y-116650000D01*
%TO.C,C20*%
X87300000Y-124140000D02*
X87800000Y-124140000D01*
X87550000Y-123890000D02*
X87550000Y-124390000D01*
X88040000Y-124504437D02*
X88040000Y-124640000D01*
X88040000Y-124504437D02*
X89104437Y-123440000D01*
X88040000Y-126895563D02*
X88040000Y-126760000D01*
X88040000Y-126895563D02*
X89104437Y-127960000D01*
X89104437Y-123440000D02*
X92560000Y-123440000D01*
X89104437Y-127960000D02*
X92560000Y-127960000D01*
X92560000Y-123440000D02*
X92560000Y-124640000D01*
X92560000Y-127960000D02*
X92560000Y-126760000D01*
%TO.C,R4*%
X62212258Y-178465000D02*
X61737742Y-178465000D01*
X62212258Y-179510000D02*
X61737742Y-179510000D01*
%TO.C,D11*%
X61440000Y-131965000D02*
X61440000Y-133435000D01*
X61440000Y-133435000D02*
X63900000Y-133435000D01*
X63900000Y-131965000D02*
X61440000Y-131965000D01*
%TO.C,R5*%
X62237258Y-180465000D02*
X61762742Y-180465000D01*
X62237258Y-181510000D02*
X61762742Y-181510000D01*
%TO.C,C8*%
X28290000Y-190040580D02*
X28290000Y-189759420D01*
X29310000Y-190040580D02*
X29310000Y-189759420D01*
%TO.C,J5*%
X53500000Y-209610000D02*
X55500000Y-209610000D01*
X53750000Y-208110000D02*
X53500000Y-209610000D01*
X54200000Y-196590000D02*
X54800000Y-196590000D01*
X54500000Y-197190000D02*
X54200000Y-196590000D01*
X54800000Y-196590000D02*
X54500000Y-197190000D01*
X55250000Y-208110000D02*
X53750000Y-208110000D01*
X55500000Y-209610000D02*
X55250000Y-208110000D01*
X58580000Y-209610000D02*
X60580000Y-209610000D01*
X58830000Y-208110000D02*
X58580000Y-209610000D01*
X60330000Y-208110000D02*
X58830000Y-208110000D01*
X60580000Y-209610000D02*
X60330000Y-208110000D01*
X50850000Y-197390000D02*
X63230000Y-197390000D01*
X63230000Y-209610000D01*
X50850000Y-209610000D01*
X50850000Y-197390000D01*
X50850000Y-206310000D02*
X63230000Y-206310000D01*
X63230000Y-208110000D01*
X50850000Y-208110000D01*
X50850000Y-206310000D01*
%TO.C,C12*%
X36640580Y-159790000D02*
X36359420Y-159790000D01*
X36640580Y-160810000D02*
X36359420Y-160810000D01*
%TO.C,U6*%
X90640000Y-163640000D02*
X94760000Y-163640000D01*
X90640000Y-163735000D02*
X90640000Y-163640000D01*
X90640000Y-168760000D02*
X90640000Y-168665000D01*
X94760000Y-163640000D02*
X94760000Y-163735000D01*
X94760000Y-168665000D02*
X94760000Y-168760000D01*
X94760000Y-168760000D02*
X90640000Y-168760000D01*
X90100000Y-163730000D02*
X89860000Y-163400000D01*
X90340000Y-163400000D01*
X90100000Y-163730000D01*
G36*
X90100000Y-163730000D02*
G01*
X89860000Y-163400000D01*
X90340000Y-163400000D01*
X90100000Y-163730000D01*
G37*
%TO.C,F1*%
X86020000Y-176236252D02*
X86020000Y-173463748D01*
X89440000Y-176236252D02*
X89440000Y-173463748D01*
%TO.C,C10*%
X25090000Y-189759420D02*
X25090000Y-190040580D01*
X26110000Y-189759420D02*
X26110000Y-190040580D01*
%TO.C,D3*%
X20750000Y-180690000D02*
X20750000Y-183350000D01*
X22450000Y-180690000D02*
X20750000Y-180690000D01*
X22450000Y-180690000D02*
X22450000Y-183350000D01*
%TO.C,SW2*%
D14*
X49710000Y-117050000D02*
X55860000Y-117050000D01*
X49710000Y-122130000D02*
X49710000Y-117050000D01*
X49710000Y-122130000D02*
X55860000Y-122130000D01*
X51290000Y-117730000D02*
X54280000Y-117730000D01*
X51290000Y-118920000D02*
X51290000Y-117730000D01*
X51290000Y-118920000D02*
X54280000Y-118920000D01*
X51290000Y-120270000D02*
X54280000Y-120270000D01*
X51290000Y-121460000D02*
X51290000Y-120270000D01*
X51290000Y-121460000D02*
X54280000Y-121460000D01*
D15*
X51940000Y-118825000D02*
X51940000Y-117825000D01*
X51940000Y-121375000D02*
X51940000Y-120350000D01*
D14*
X54280000Y-118920000D02*
X54280000Y-117730000D01*
X54280000Y-121460000D02*
X54280000Y-120270000D01*
X55860000Y-122130000D02*
X55860000Y-117050000D01*
X55500000Y-121600000D02*
G75*
G02*
X55100000Y-121600000I-200000J0D01*
G01*
X55100000Y-121600000D02*
G75*
G02*
X55500000Y-121600000I200000J0D01*
G01*
D16*
X57510000Y-122130000D02*
G75*
G02*
X57470000Y-122130000I-20000J0D01*
G01*
X57470000Y-122130000D02*
G75*
G02*
X57510000Y-122130000I20000J0D01*
G01*
D14*
X52710000Y-118875000D02*
X52710000Y-117775000D01*
X53620000Y-117775000D01*
X53620000Y-118875000D01*
X52710000Y-118875000D01*
G36*
X53620000Y-118875000D02*
G01*
X52710000Y-118875000D01*
X52710000Y-117775000D01*
X53620000Y-117775000D01*
X53620000Y-118875000D01*
G37*
X52710000Y-121023750D02*
X52710000Y-120325000D01*
X53620000Y-120325000D01*
X53620000Y-121400000D01*
X52710000Y-121400000D01*
X52710000Y-121023750D01*
G36*
X53620000Y-121400000D02*
G01*
X52710000Y-121400000D01*
X52710000Y-121023750D01*
X52710000Y-120325000D01*
X53620000Y-120325000D01*
X53620000Y-121400000D01*
G37*
%TO.C,R6*%
D13*
X75837258Y-178577500D02*
X75362742Y-178577500D01*
X75837258Y-179622500D02*
X75362742Y-179622500D01*
%TO.C,R10*%
X67512258Y-127567500D02*
X67037742Y-127567500D01*
X67512258Y-128612500D02*
X67037742Y-128612500D01*
%TO.C,J7*%
X93750000Y-175200000D02*
X93750000Y-178250000D01*
X93750000Y-181300000D02*
X93750000Y-178250000D01*
X96700000Y-174450000D02*
X96700000Y-175200000D01*
X96700000Y-175200000D02*
X93750000Y-175200000D01*
X96700000Y-181300000D02*
X93750000Y-181300000D01*
X96700000Y-182050000D02*
X96700000Y-181300000D01*
X99250000Y-174150000D02*
X98000000Y-174150000D01*
X99250000Y-175400000D02*
X99250000Y-174150000D01*
X98200000Y-174450000D02*
X98950000Y-174450000D01*
X98950000Y-176250000D01*
X98200000Y-176250000D01*
X98200000Y-174450000D01*
X98200000Y-177750000D02*
X98950000Y-177750000D01*
X98950000Y-178750000D01*
X98200000Y-178750000D01*
X98200000Y-177750000D01*
X98200000Y-180250000D02*
X98950000Y-180250000D01*
X98950000Y-182050000D01*
X98200000Y-182050000D01*
X98200000Y-180250000D01*
X92990000Y-174440000D02*
X98960000Y-174440000D01*
X98960000Y-182060000D01*
X92990000Y-182060000D01*
X92990000Y-174440000D01*
%TO.C,D9*%
X88560000Y-169290000D02*
X84800000Y-169290000D01*
X88560000Y-171310000D02*
X84800000Y-171310000D01*
X88560000Y-171310000D02*
X88560000Y-169290000D01*
%TO.C,U2*%
X23290000Y-180540000D02*
X23495000Y-180540000D01*
X23290000Y-186060000D02*
X23290000Y-180540000D01*
X23495000Y-186060000D02*
X23290000Y-186060000D01*
X33505000Y-180540000D02*
X33710000Y-180540000D01*
X33710000Y-180540000D02*
X33710000Y-186060000D01*
X33710000Y-186060000D02*
X33505000Y-186060000D01*
X23490000Y-186700000D02*
X23020000Y-187040000D01*
X23020000Y-186360000D01*
X23490000Y-186700000D01*
G36*
X23490000Y-186700000D02*
G01*
X23020000Y-187040000D01*
X23020000Y-186360000D01*
X23490000Y-186700000D01*
G37*
%TO.C,R16*%
X91177500Y-161362742D02*
X91177500Y-161837258D01*
X92222500Y-161362742D02*
X92222500Y-161837258D01*
%TO.C,C11*%
X29990000Y-189759420D02*
X29990000Y-190040580D01*
X31010000Y-189759420D02*
X31010000Y-190040580D01*
%TO.C,C24*%
X81990000Y-141740580D02*
X81990000Y-141459420D01*
X83010000Y-141740580D02*
X83010000Y-141459420D01*
%TO.C,C17*%
X75459420Y-182390000D02*
X75740580Y-182390000D01*
X75459420Y-183410000D02*
X75740580Y-183410000D01*
%TO.C,R1*%
X27962742Y-125477500D02*
X28437258Y-125477500D01*
X27962742Y-126522500D02*
X28437258Y-126522500D01*
%TO.C,C25*%
X95290000Y-141740580D02*
X95290000Y-141459420D01*
X96310000Y-141740580D02*
X96310000Y-141459420D01*
%TO.C,C1*%
X41640580Y-156390000D02*
X41359420Y-156390000D01*
X41640580Y-157410000D02*
X41359420Y-157410000D01*
%TO.C,D5*%
X55440000Y-191627500D02*
X55490000Y-191627500D01*
X55440000Y-193147500D02*
X55440000Y-191627500D01*
X56440000Y-193147500D02*
X55440000Y-193147500D01*
X56610000Y-191627500D02*
X57390000Y-191627500D01*
X58510000Y-191627500D02*
X58560000Y-191627500D01*
X58560000Y-191627500D02*
X58560000Y-193147500D01*
X58560000Y-193147500D02*
X57560000Y-193147500D01*
X57380000Y-191087500D02*
X57050000Y-191327500D01*
X57050000Y-190847500D01*
X57380000Y-191087500D01*
G36*
X57380000Y-191087500D02*
G01*
X57050000Y-191327500D01*
X57050000Y-190847500D01*
X57380000Y-191087500D01*
G37*
%TO.C,C18*%
X75459420Y-184290000D02*
X75740580Y-184290000D01*
X75459420Y-185310000D02*
X75740580Y-185310000D01*
%TO.C,R11*%
X67512258Y-129777500D02*
X67037742Y-129777500D01*
X67512258Y-130822500D02*
X67037742Y-130822500D01*
%TO.C,C16*%
X61859420Y-184277500D02*
X62140580Y-184277500D01*
X61859420Y-185297500D02*
X62140580Y-185297500D01*
%TO.C,R7*%
X75837258Y-180477500D02*
X75362742Y-180477500D01*
X75837258Y-181522500D02*
X75362742Y-181522500D01*
%TO.C,C22*%
X86540580Y-167490000D02*
X86259420Y-167490000D01*
X86540580Y-168510000D02*
X86259420Y-168510000D01*
%TO.C,J6*%
X67000000Y-209610000D02*
X69000000Y-209610000D01*
X67250000Y-208110000D02*
X67000000Y-209610000D01*
X67700000Y-196590000D02*
X68300000Y-196590000D01*
X68000000Y-197190000D02*
X67700000Y-196590000D01*
X68300000Y-196590000D02*
X68000000Y-197190000D01*
X68750000Y-208110000D02*
X67250000Y-208110000D01*
X69000000Y-209610000D02*
X68750000Y-208110000D01*
X72080000Y-209610000D02*
X74080000Y-209610000D01*
X72330000Y-208110000D02*
X72080000Y-209610000D01*
X73830000Y-208110000D02*
X72330000Y-208110000D01*
X74080000Y-209610000D02*
X73830000Y-208110000D01*
X64350000Y-197390000D02*
X76730000Y-197390000D01*
X76730000Y-209610000D01*
X64350000Y-209610000D01*
X64350000Y-197390000D01*
X64350000Y-206310000D02*
X76730000Y-206310000D01*
X76730000Y-208110000D01*
X64350000Y-208110000D01*
X64350000Y-206310000D01*
%TO.C,SW3*%
D14*
X35420000Y-117090000D02*
X41570000Y-117090000D01*
X35420000Y-122170000D02*
X35420000Y-117090000D01*
X35420000Y-122170000D02*
X41570000Y-122170000D01*
X37000000Y-117770000D02*
X39990000Y-117770000D01*
X37000000Y-118960000D02*
X37000000Y-117770000D01*
X37000000Y-118960000D02*
X39990000Y-118960000D01*
X37000000Y-120310000D02*
X39990000Y-120310000D01*
X37000000Y-121500000D02*
X37000000Y-120310000D01*
X37000000Y-121500000D02*
X39990000Y-121500000D01*
D15*
X37650000Y-118865000D02*
X37650000Y-117865000D01*
X37650000Y-121415000D02*
X37650000Y-120390000D01*
D14*
X39990000Y-118960000D02*
X39990000Y-117770000D01*
X39990000Y-121500000D02*
X39990000Y-120310000D01*
X41570000Y-122170000D02*
X41570000Y-117090000D01*
X41210000Y-121640000D02*
G75*
G02*
X40810000Y-121640000I-200000J0D01*
G01*
X40810000Y-121640000D02*
G75*
G02*
X41210000Y-121640000I200000J0D01*
G01*
D16*
X43220000Y-122170000D02*
G75*
G02*
X43180000Y-122170000I-20000J0D01*
G01*
X43180000Y-122170000D02*
G75*
G02*
X43220000Y-122170000I20000J0D01*
G01*
D14*
X38420000Y-118915000D02*
X38420000Y-117815000D01*
X39330000Y-117815000D01*
X39330000Y-118915000D01*
X38420000Y-118915000D01*
G36*
X39330000Y-118915000D02*
G01*
X38420000Y-118915000D01*
X38420000Y-117815000D01*
X39330000Y-117815000D01*
X39330000Y-118915000D01*
G37*
X38420000Y-121063750D02*
X38420000Y-120365000D01*
X39330000Y-120365000D01*
X39330000Y-121440000D01*
X38420000Y-121440000D01*
X38420000Y-121063750D01*
G36*
X39330000Y-121440000D02*
G01*
X38420000Y-121440000D01*
X38420000Y-121063750D01*
X38420000Y-120365000D01*
X39330000Y-120365000D01*
X39330000Y-121440000D01*
G37*
%TO.C,J1*%
D13*
X80500000Y-209610000D02*
X82500000Y-209610000D01*
X80750000Y-208110000D02*
X80500000Y-209610000D01*
X81200000Y-196590000D02*
X81800000Y-196590000D01*
X81500000Y-197190000D02*
X81200000Y-196590000D01*
X81800000Y-196590000D02*
X81500000Y-197190000D01*
X82250000Y-208110000D02*
X80750000Y-208110000D01*
X82500000Y-209610000D02*
X82250000Y-208110000D01*
X85580000Y-209610000D02*
X87580000Y-209610000D01*
X85830000Y-208110000D02*
X85580000Y-209610000D01*
X87330000Y-208110000D02*
X85830000Y-208110000D01*
X87580000Y-209610000D02*
X87330000Y-208110000D01*
X77850000Y-197390000D02*
X90230000Y-197390000D01*
X90230000Y-209610000D01*
X77850000Y-209610000D01*
X77850000Y-197390000D01*
X77850000Y-206310000D02*
X90230000Y-206310000D01*
X90230000Y-208110000D01*
X77850000Y-208110000D01*
X77850000Y-206310000D01*
%TO.C,C4*%
X51190000Y-162559420D02*
X51190000Y-162840580D01*
X52210000Y-162559420D02*
X52210000Y-162840580D01*
%TO.C,D4*%
X38050000Y-181790000D02*
X38050000Y-184450000D01*
X39750000Y-181790000D02*
X38050000Y-181790000D01*
X39750000Y-181790000D02*
X39750000Y-184450000D01*
%TO.C,D2*%
X35450000Y-181790000D02*
X35450000Y-184450000D01*
X37150000Y-181790000D02*
X35450000Y-181790000D01*
X37150000Y-181790000D02*
X37150000Y-184450000D01*
%TO.C,J11*%
X790000Y-149280000D02*
X790000Y-151280000D01*
X790000Y-151280000D02*
X2290000Y-151030000D01*
X790000Y-154360000D02*
X790000Y-156360000D01*
X790000Y-156360000D02*
X2290000Y-156110000D01*
X790000Y-159440000D02*
X790000Y-161440000D01*
X790000Y-161440000D02*
X2290000Y-161190000D01*
X2290000Y-149530000D02*
X790000Y-149280000D01*
X2290000Y-151030000D02*
X2290000Y-149530000D01*
X2290000Y-154610000D02*
X790000Y-154360000D01*
X2290000Y-156110000D02*
X2290000Y-154610000D01*
X2290000Y-159690000D02*
X790000Y-159440000D01*
X2290000Y-161190000D02*
X2290000Y-159690000D01*
X13210000Y-150280000D02*
X13810000Y-149980000D01*
X13810000Y-149980000D02*
X13810000Y-150580000D01*
X13810000Y-150580000D02*
X13210000Y-150280000D01*
X2290000Y-146630000D02*
X4090000Y-146630000D01*
X4090000Y-164090000D01*
X2290000Y-164090000D01*
X2290000Y-146630000D01*
X790000Y-146630000D02*
X13010000Y-146630000D01*
X13010000Y-164090000D01*
X790000Y-164090000D01*
X790000Y-146630000D01*
%TO.C,D6*%
X69040000Y-191520000D02*
X69090000Y-191520000D01*
X69040000Y-193040000D02*
X69040000Y-191520000D01*
X70040000Y-193040000D02*
X69040000Y-193040000D01*
X70210000Y-191520000D02*
X70990000Y-191520000D01*
X72110000Y-191520000D02*
X72160000Y-191520000D01*
X72160000Y-191520000D02*
X72160000Y-193040000D01*
X72160000Y-193040000D02*
X71160000Y-193040000D01*
X70980000Y-190980000D02*
X70650000Y-191220000D01*
X70650000Y-190740000D01*
X70980000Y-190980000D01*
G36*
X70980000Y-190980000D02*
G01*
X70650000Y-191220000D01*
X70650000Y-190740000D01*
X70980000Y-190980000D01*
G37*
%TO.C,R15*%
X15477500Y-124037258D02*
X15477500Y-123562742D01*
X16522500Y-124037258D02*
X16522500Y-123562742D01*
%TO.C,C15*%
X61859420Y-182377500D02*
X62140580Y-182377500D01*
X61859420Y-183397500D02*
X62140580Y-183397500D01*
%TO.C,C6*%
X28059420Y-123690000D02*
X28340580Y-123690000D01*
X28059420Y-124710000D02*
X28340580Y-124710000D01*
%TO.C,U5*%
X88190000Y-128590000D02*
X88190000Y-129850000D01*
X88190000Y-135410000D02*
X88190000Y-134150000D01*
X91950000Y-128590000D02*
X88190000Y-128590000D01*
X91950000Y-135410000D02*
X88190000Y-135410000D01*
X93230000Y-135310000D02*
X93470000Y-135640000D01*
X92990000Y-135640000D01*
X93230000Y-135310000D01*
G36*
X93470000Y-135640000D02*
G01*
X92990000Y-135640000D01*
X93230000Y-135310000D01*
X93470000Y-135640000D01*
G37*
%TO.C,J12*%
X12500000Y-209610000D02*
X14500000Y-209610000D01*
X12750000Y-208110000D02*
X12500000Y-209610000D01*
X13200000Y-196590000D02*
X13800000Y-196590000D01*
X13500000Y-197190000D02*
X13200000Y-196590000D01*
X13800000Y-196590000D02*
X13500000Y-197190000D01*
X14250000Y-208110000D02*
X12750000Y-208110000D01*
X14500000Y-209610000D02*
X14250000Y-208110000D01*
X17580000Y-209610000D02*
X19580000Y-209610000D01*
X17830000Y-208110000D02*
X17580000Y-209610000D01*
X19330000Y-208110000D02*
X17830000Y-208110000D01*
X19580000Y-209610000D02*
X19330000Y-208110000D01*
X22660000Y-209610000D02*
X24660000Y-209610000D01*
X22910000Y-208110000D02*
X22660000Y-209610000D01*
X24410000Y-208110000D02*
X22910000Y-208110000D01*
X24660000Y-209610000D02*
X24410000Y-208110000D01*
X9850000Y-197390000D02*
X27310000Y-197390000D01*
X27310000Y-209610000D01*
X9850000Y-209610000D01*
X9850000Y-197390000D01*
X9850000Y-206310000D02*
X27310000Y-206310000D01*
X27310000Y-208110000D01*
X9850000Y-208110000D01*
X9850000Y-206310000D01*
%TO.C,C19*%
X84290000Y-133959420D02*
X84290000Y-134240580D01*
X85310000Y-133959420D02*
X85310000Y-134240580D01*
%TO.C,C9*%
X36640580Y-153890000D02*
X36359420Y-153890000D01*
X36640580Y-154910000D02*
X36359420Y-154910000D01*
%TO.C,R9*%
X70837258Y-188077500D02*
X70362742Y-188077500D01*
X70837258Y-189122500D02*
X70362742Y-189122500D01*
%TO.C,C26*%
X84897500Y-137390000D02*
X84897500Y-140140000D01*
X84897500Y-145910000D02*
X84897500Y-143160000D01*
X92353063Y-137390000D02*
X84897500Y-137390000D01*
X92353063Y-145910000D02*
X84897500Y-145910000D01*
X93417500Y-138454437D02*
X92353063Y-137390000D01*
X93417500Y-138454437D02*
X93417500Y-140140000D01*
X93417500Y-144845563D02*
X92353063Y-145910000D01*
X93417500Y-144845563D02*
X93417500Y-143160000D01*
X94157500Y-144660000D02*
X94157500Y-143660000D01*
X94657500Y-144160000D02*
X93657500Y-144160000D01*
%TO.C,C21*%
X72740000Y-149040000D02*
X75490000Y-149040000D01*
X72740000Y-156495563D02*
X72740000Y-149040000D01*
X73804437Y-157560000D02*
X72740000Y-156495563D01*
X73804437Y-157560000D02*
X75490000Y-157560000D01*
X73990000Y-158300000D02*
X74990000Y-158300000D01*
X74490000Y-158800000D02*
X74490000Y-157800000D01*
X80195563Y-157560000D02*
X78510000Y-157560000D01*
X80195563Y-157560000D02*
X81260000Y-156495563D01*
X81260000Y-149040000D02*
X78510000Y-149040000D01*
X81260000Y-156495563D02*
X81260000Y-149040000D01*
%TO.C,U4*%
X67840000Y-179940000D02*
X68110000Y-179940000D01*
X67840000Y-185460000D02*
X67840000Y-179940000D01*
X68110000Y-185460000D02*
X67840000Y-185460000D01*
X73090000Y-179940000D02*
X73360000Y-179940000D01*
X73360000Y-179940000D02*
X73360000Y-185460000D01*
X73360000Y-185460000D02*
X73090000Y-185460000D01*
X73100000Y-179110000D02*
X73570000Y-178770000D01*
X73570000Y-179450000D01*
X73100000Y-179110000D01*
G36*
X73570000Y-179450000D02*
G01*
X73100000Y-179110000D01*
X73570000Y-178770000D01*
X73570000Y-179450000D01*
G37*
%TO.C,J13*%
X31250000Y-209610000D02*
X33250000Y-209610000D01*
X31500000Y-208110000D02*
X31250000Y-209610000D01*
X31950000Y-196590000D02*
X32550000Y-196590000D01*
X32250000Y-197190000D02*
X31950000Y-196590000D01*
X32550000Y-196590000D02*
X32250000Y-197190000D01*
X33000000Y-208110000D02*
X31500000Y-208110000D01*
X33250000Y-209610000D02*
X33000000Y-208110000D01*
X36330000Y-209610000D02*
X38330000Y-209610000D01*
X36580000Y-208110000D02*
X36330000Y-209610000D01*
X38080000Y-208110000D02*
X36580000Y-208110000D01*
X38330000Y-209610000D02*
X38080000Y-208110000D01*
X41410000Y-209610000D02*
X43410000Y-209610000D01*
X41660000Y-208110000D02*
X41410000Y-209610000D01*
X43160000Y-208110000D02*
X41660000Y-208110000D01*
X43410000Y-209610000D02*
X43160000Y-208110000D01*
X28600000Y-197390000D02*
X46060000Y-197390000D01*
X46060000Y-209610000D01*
X28600000Y-209610000D01*
X28600000Y-197390000D01*
X28600000Y-206310000D02*
X46060000Y-206310000D01*
X46060000Y-208110000D01*
X28600000Y-208110000D01*
X28600000Y-206310000D01*
%TO.C,J8*%
X790000Y-135640000D02*
X790000Y-137640000D01*
X790000Y-137640000D02*
X2290000Y-137390000D01*
X790000Y-140720000D02*
X790000Y-142720000D01*
X790000Y-142720000D02*
X2290000Y-142470000D01*
X2290000Y-135890000D02*
X790000Y-135640000D01*
X2290000Y-137390000D02*
X2290000Y-135890000D01*
X2290000Y-140970000D02*
X790000Y-140720000D01*
X2290000Y-142470000D02*
X2290000Y-140970000D01*
X13210000Y-136640000D02*
X13810000Y-136340000D01*
X13810000Y-136340000D02*
X13810000Y-136940000D01*
X13810000Y-136940000D02*
X13210000Y-136640000D01*
X2290000Y-132990000D02*
X4090000Y-132990000D01*
X4090000Y-145370000D01*
X2290000Y-145370000D01*
X2290000Y-132990000D01*
X790000Y-132990000D02*
X13010000Y-132990000D01*
X13010000Y-145370000D01*
X790000Y-145370000D01*
X790000Y-132990000D01*
%TO.C,L1*%
X82900000Y-146900000D02*
X95500000Y-146900000D01*
X82900000Y-149900000D02*
X82900000Y-146900000D01*
X82900000Y-159500000D02*
X82900000Y-156500000D01*
X95500000Y-146900000D02*
X95500000Y-149900000D01*
X95500000Y-156500000D02*
X95500000Y-159500000D01*
X95500000Y-159500000D02*
X82900000Y-159500000D01*
%TO.C,R2*%
X61662742Y-118177500D02*
X62137258Y-118177500D01*
X61662742Y-119222500D02*
X62137258Y-119222500D01*
%TO.C,J9*%
X790000Y-122000000D02*
X790000Y-124000000D01*
X790000Y-124000000D02*
X2290000Y-123750000D01*
X790000Y-127080000D02*
X790000Y-129080000D01*
X790000Y-129080000D02*
X2290000Y-128830000D01*
X2290000Y-122250000D02*
X790000Y-122000000D01*
X2290000Y-123750000D02*
X2290000Y-122250000D01*
X2290000Y-127330000D02*
X790000Y-127080000D01*
X2290000Y-128830000D02*
X2290000Y-127330000D01*
X13210000Y-123000000D02*
X13810000Y-122700000D01*
X13810000Y-122700000D02*
X13810000Y-123300000D01*
X13810000Y-123300000D02*
X13210000Y-123000000D01*
X2290000Y-119350000D02*
X4090000Y-119350000D01*
X4090000Y-131730000D01*
X2290000Y-131730000D01*
X2290000Y-119350000D01*
X790000Y-119350000D02*
X13010000Y-119350000D01*
X13010000Y-131730000D01*
X790000Y-131730000D01*
X790000Y-119350000D01*
%TO.C,R12*%
X61762742Y-186065000D02*
X62237258Y-186065000D01*
X61762742Y-187110000D02*
X62237258Y-187110000D01*
%TO.C,C14*%
X35240580Y-151690000D02*
X34959420Y-151690000D01*
X35240580Y-152710000D02*
X34959420Y-152710000D01*
%TO.C,C3*%
X55459420Y-151890000D02*
X55740580Y-151890000D01*
X55459420Y-152910000D02*
X55740580Y-152910000D01*
%TO.C,C13*%
X34959420Y-149290000D02*
X35240580Y-149290000D01*
X34959420Y-150310000D02*
X35240580Y-150310000D01*
%TO.C,R13*%
X75362742Y-186077500D02*
X75837258Y-186077500D01*
X75362742Y-187122500D02*
X75837258Y-187122500D01*
%TO.C,R3*%
X61662742Y-120577500D02*
X62137258Y-120577500D01*
X61662742Y-121622500D02*
X62137258Y-121622500D01*
%TO.C,SW1*%
X23950000Y-117350000D02*
X23950000Y-117400000D01*
X23950000Y-117350000D02*
X28850000Y-117350000D01*
X23950000Y-119050000D02*
X23950000Y-120550000D01*
X23950000Y-122250000D02*
X23950000Y-122200000D01*
X23950000Y-122250000D02*
X28850000Y-122250000D01*
X28850000Y-117350000D02*
X28850000Y-117400000D01*
X28850000Y-119050000D02*
X28850000Y-120550000D01*
X28850000Y-122250000D02*
X28850000Y-122200000D01*
%TO.C,D1*%
X18350000Y-180690000D02*
X18350000Y-183350000D01*
X20050000Y-180690000D02*
X18350000Y-180690000D01*
X20050000Y-180690000D02*
X20050000Y-183350000D01*
%TO.C,D7*%
X61440000Y-127365000D02*
X61440000Y-128835000D01*
X61440000Y-128835000D02*
X63900000Y-128835000D01*
X63900000Y-127365000D02*
X61440000Y-127365000D01*
%TD*%
M02*
